<?xml version="1.0" encoding="UTF-8" standalone="no"?>
<!DOCTYPE svg PUBLIC "-//W3C//DTD SVG 1.1//EN" "http://www.w3.org/Graphics/SVG/1.1/DTD/svg11.dtd">
<svg width="100%" height="100%" viewBox="0 0 2000 1000" version="1.1" xmlns="http://www.w3.org/2000/svg" xmlns:xlink="http://www.w3.org/1999/xlink" xml:space="preserve" xmlns:serif="http://www.serif.com/" style="fill-rule:evenodd;clip-rule:evenodd;stroke-linejoin:round;stroke-miterlimit:1.5;">
    <g transform="matrix(1.093963,0,0,1.093963,-93.963347,-546.922923)">
        <g transform="matrix(0.934127,0,0,0.934127,-317.181795,-83.414631)">
            <g transform="matrix(533.333333,0,0,533.333333,441,1044)">
                <path d="M0.399,0.014C0.554,0.014 0.643,-0.053 0.709,-0.144L0.563,-0.248C0.521,-0.197 0.478,-0.163 0.405,-0.163C0.307,-0.163 0.238,-0.245 0.238,-0.35L0.238,-0.352C0.238,-0.454 0.307,-0.537 0.405,-0.537C0.472,-0.537 0.518,-0.505 0.558,-0.455L0.704,-0.568C0.642,-0.654 0.55,-0.714 0.407,-0.714C0.195,-0.714 0.038,-0.554 0.038,-0.35L0.038,-0.348C0.038,-0.139 0.199,0.014 0.399,0.014Z" style="fill-rule:nonzero;"/>
            </g>
            <g transform="matrix(533.333333,0,0,533.333333,830.333333,1044)">
                <path d="M0.062,-0L0.595,-0L0.595,-0.17L0.256,-0.17L0.256,-0.7L0.062,-0.7L0.062,-0Z" style="fill-rule:nonzero;"/>
            </g>
            <g transform="matrix(533.333333,0,0,533.333333,1158.866667,1044)">
                <path d="M0.006,-0L0.21,-0L0.26,-0.125L0.53,-0.125L0.581,-0L0.789,-0L0.491,-0.705L0.304,-0.705L0.006,-0ZM0.317,-0.276L0.396,-0.475L0.474,-0.276L0.317,-0.276Z" style="fill-rule:nonzero;"/>
            </g>
            <g transform="matrix(533.333333,0,0,533.333333,1582.866667,1044)">
                <path d="M0.062,-0L0.256,-0L0.256,-0.212L0.341,-0.212L0.482,-0L0.706,-0L0.539,-0.244C0.626,-0.281 0.683,-0.352 0.683,-0.459L0.683,-0.461C0.683,-0.53 0.662,-0.584 0.621,-0.624C0.574,-0.672 0.5,-0.7 0.393,-0.7L0.062,-0.7L0.062,-0ZM0.256,-0.364L0.256,-0.532L0.383,-0.532C0.448,-0.532 0.488,-0.504 0.488,-0.449L0.488,-0.447C0.488,-0.396 0.45,-0.364 0.384,-0.364L0.256,-0.364Z" style="fill-rule:nonzero;"/>
            </g>
            <g transform="matrix(533.333333,0,0,533.333333,1966.333333,1044)">
                <path d="M0.062,-0L0.256,-0L0.256,-0.181L0.327,-0.26L0.503,-0L0.736,-0L0.462,-0.399L0.727,-0.7L0.497,-0.7L0.256,-0.416L0.256,-0.7L0.062,-0.7L0.062,-0Z" style="fill-rule:nonzero;"/>
            </g>
        </g>
        <g transform="matrix(0.293794,0,0,0.293794,439.695385,906.428088)">
            <g transform="matrix(533.333333,0,0,533.333333,372.733333,1044)">
                <path d="M0.084,-0L0.417,-0C0.575,-0 0.679,-0.064 0.679,-0.192L0.679,-0.194C0.679,-0.288 0.629,-0.335 0.548,-0.366C0.598,-0.394 0.64,-0.438 0.64,-0.517L0.64,-0.519C0.64,-0.567 0.624,-0.606 0.592,-0.638C0.552,-0.678 0.489,-0.7 0.409,-0.7L0.084,-0.7L0.084,-0ZM0.234,-0.417L0.234,-0.565L0.386,-0.565C0.451,-0.565 0.487,-0.539 0.487,-0.493L0.487,-0.491C0.487,-0.439 0.444,-0.417 0.376,-0.417L0.234,-0.417ZM0.234,-0.135L0.234,-0.289L0.412,-0.289C0.491,-0.289 0.526,-0.26 0.526,-0.213L0.526,-0.211C0.526,-0.159 0.485,-0.135 0.417,-0.135L0.234,-0.135Z" style="fill-rule:nonzero;"/>
            </g>
            <g transform="matrix(533.333333,0,0,533.333333,757.8,1044)">
                <path d="M0.024,-0L0.181,-0L0.245,-0.157L0.541,-0.157L0.605,-0L0.766,-0L0.466,-0.705L0.324,-0.705L0.024,-0ZM0.3,-0.293L0.393,-0.52L0.486,-0.293L0.3,-0.293Z" style="fill-rule:nonzero;"/>
            </g>
            <g transform="matrix(533.333333,0,0,533.333333,1173.8,1044)">
                <path d="M0.333,0.01C0.484,0.01 0.59,-0.068 0.59,-0.207L0.59,-0.209C0.59,-0.331 0.51,-0.382 0.368,-0.419C0.247,-0.45 0.217,-0.465 0.217,-0.511L0.217,-0.513C0.217,-0.547 0.248,-0.574 0.307,-0.574C0.366,-0.574 0.427,-0.548 0.489,-0.505L0.569,-0.621C0.498,-0.678 0.411,-0.71 0.309,-0.71C0.166,-0.71 0.064,-0.626 0.064,-0.499L0.064,-0.497C0.064,-0.358 0.155,-0.319 0.296,-0.283C0.413,-0.253 0.437,-0.233 0.437,-0.194L0.437,-0.192C0.437,-0.151 0.399,-0.126 0.336,-0.126C0.256,-0.126 0.19,-0.159 0.127,-0.211L0.036,-0.102C0.12,-0.027 0.227,0.01 0.333,0.01Z" style="fill-rule:nonzero;"/>
            </g>
            <g transform="matrix(533.333333,0,0,533.333333,1515.133333,1044)">
                <path d="M0.084,-0L0.617,-0L0.617,-0.137L0.237,-0.137L0.237,-0.284L0.567,-0.284L0.567,-0.421L0.237,-0.421L0.237,-0.563L0.612,-0.563L0.612,-0.7L0.084,-0.7L0.084,-0Z" style="fill-rule:nonzero;"/>
            </g>
            <g transform="matrix(533.333333,0,0,533.333333,1872.466667,1044)">
                <path d="M0.084,-0L0.235,-0L0.235,-0.454L0.43,-0.158L0.434,-0.158L0.631,-0.457L0.631,-0L0.784,-0L0.784,-0.7L0.618,-0.7L0.434,-0.404L0.25,-0.7L0.084,-0.7L0.084,-0Z" style="fill-rule:nonzero;"/>
            </g>
            <g transform="matrix(533.333333,0,0,533.333333,2335.4,1044)">
                <path d="M0.084,-0L0.617,-0L0.617,-0.137L0.237,-0.137L0.237,-0.284L0.567,-0.284L0.567,-0.421L0.237,-0.421L0.237,-0.563L0.612,-0.563L0.612,-0.7L0.084,-0.7L0.084,-0Z" style="fill-rule:nonzero;"/>
            </g>
            <g transform="matrix(533.333333,0,0,533.333333,2692.733333,1044)">
                <path d="M0.084,-0L0.236,-0L0.236,-0.445L0.575,-0L0.706,-0L0.706,-0.7L0.554,-0.7L0.554,-0.269L0.226,-0.7L0.084,-0.7L0.084,-0Z" style="fill-rule:nonzero;"/>
            </g>
            <g transform="matrix(533.333333,0,0,533.333333,3114.066667,1044)">
                <path d="M0.247,-0L0.401,-0L0.401,-0.558L0.614,-0.558L0.614,-0.7L0.034,-0.7L0.034,-0.558L0.247,-0.558L0.247,-0Z" style="fill-rule:nonzero;"/>
            </g>
            <g transform="matrix(533.333333,0,0,533.333333,-598.466667,1598.374315)">
                <path d="M0.269,0.005L0.403,0.005L0.561,-0.453L0.719,0.005L0.853,0.005L1.092,-0.7L0.931,-0.7L0.786,-0.226L0.629,-0.702L0.497,-0.702L0.34,-0.226L0.195,-0.7L0.03,-0.7L0.269,0.005Z" style="fill-rule:nonzero;"/>
            </g>
            <g transform="matrix(533.333333,0,0,533.333333,-48.066667,1598.374315)">
                <path d="M0.024,-0L0.181,-0L0.245,-0.157L0.541,-0.157L0.605,-0L0.766,-0L0.466,-0.705L0.324,-0.705L0.024,-0ZM0.3,-0.293L0.393,-0.52L0.486,-0.293L0.3,-0.293Z" style="fill-rule:nonzero;"/>
            </g>
            <g transform="matrix(533.333333,0,0,533.333333,325.266667,1598.374315)">
                <path d="M0.247,-0L0.401,-0L0.401,-0.558L0.614,-0.558L0.614,-0.7L0.034,-0.7L0.034,-0.558L0.247,-0.558L0.247,-0Z" style="fill-rule:nonzero;"/>
            </g>
            <g transform="matrix(533.333333,0,0,533.333333,670.866667,1598.374315)">
                <path d="M0.084,-0L0.617,-0L0.617,-0.137L0.237,-0.137L0.237,-0.284L0.567,-0.284L0.567,-0.421L0.237,-0.421L0.237,-0.563L0.612,-0.563L0.612,-0.7L0.084,-0.7L0.084,-0Z" style="fill-rule:nonzero;"/>
            </g>
            <g transform="matrix(533.333333,0,0,533.333333,1028.2,1598.374315)">
                <path d="M0.084,-0L0.238,-0L0.238,-0.224L0.359,-0.224L0.509,-0L0.689,-0L0.518,-0.25C0.607,-0.283 0.668,-0.354 0.668,-0.467L0.668,-0.469C0.668,-0.535 0.647,-0.59 0.608,-0.629C0.562,-0.675 0.493,-0.7 0.404,-0.7L0.084,-0.7L0.084,-0ZM0.238,-0.36L0.238,-0.561L0.391,-0.561C0.466,-0.561 0.512,-0.527 0.512,-0.461L0.512,-0.459C0.512,-0.4 0.469,-0.36 0.394,-0.36L0.238,-0.36Z" style="fill-rule:nonzero;"/>
            </g>
            <g transform="matrix(533.333333,0,0,533.333333,1413.8,1598.374315)">
                <path d="M0.084,-0L0.238,-0L0.238,-0.21L0.355,-0.21C0.512,-0.21 0.638,-0.294 0.638,-0.456L0.638,-0.458C0.638,-0.601 0.537,-0.7 0.37,-0.7L0.084,-0.7L0.084,-0ZM0.238,-0.347L0.238,-0.561L0.357,-0.561C0.434,-0.561 0.482,-0.524 0.482,-0.455L0.482,-0.453C0.482,-0.393 0.437,-0.347 0.36,-0.347L0.238,-0.347Z" style="fill-rule:nonzero;"/>
            </g>
            <g transform="matrix(533.333333,0,0,533.333333,1770.066667,1598.374315)">
                <path d="M0.084,-0L0.238,-0L0.238,-0.224L0.359,-0.224L0.509,-0L0.689,-0L0.518,-0.25C0.607,-0.283 0.668,-0.354 0.668,-0.467L0.668,-0.469C0.668,-0.535 0.647,-0.59 0.608,-0.629C0.562,-0.675 0.493,-0.7 0.404,-0.7L0.084,-0.7L0.084,-0ZM0.238,-0.36L0.238,-0.561L0.391,-0.561C0.466,-0.561 0.512,-0.527 0.512,-0.461L0.512,-0.459C0.512,-0.4 0.469,-0.36 0.394,-0.36L0.238,-0.36Z" style="fill-rule:nonzero;"/>
            </g>
            <g transform="matrix(533.333333,0,0,533.333333,2155.666667,1598.374315)">
                <path d="M0.424,0.012C0.64,0.012 0.797,-0.151 0.797,-0.35L0.797,-0.352C0.797,-0.551 0.642,-0.712 0.426,-0.712C0.21,-0.712 0.053,-0.549 0.053,-0.35L0.053,-0.348C0.053,-0.149 0.208,0.012 0.424,0.012ZM0.426,-0.13C0.302,-0.13 0.214,-0.23 0.214,-0.35L0.214,-0.352C0.214,-0.472 0.3,-0.57 0.424,-0.57C0.548,-0.57 0.636,-0.47 0.636,-0.35L0.636,-0.348C0.636,-0.228 0.55,-0.13 0.426,-0.13Z" style="fill-rule:nonzero;"/>
            </g>
            <g transform="matrix(533.333333,0,0,533.333333,2609,1598.374315)">
                <path d="M0.424,0.012C0.64,0.012 0.797,-0.151 0.797,-0.35L0.797,-0.352C0.797,-0.551 0.642,-0.712 0.426,-0.712C0.21,-0.712 0.053,-0.549 0.053,-0.35L0.053,-0.348C0.053,-0.149 0.208,0.012 0.424,0.012ZM0.426,-0.13C0.302,-0.13 0.214,-0.23 0.214,-0.35L0.214,-0.352C0.214,-0.472 0.3,-0.57 0.424,-0.57C0.548,-0.57 0.636,-0.47 0.636,-0.35L0.636,-0.348C0.636,-0.228 0.55,-0.13 0.426,-0.13Z" style="fill-rule:nonzero;"/>
            </g>
            <g transform="matrix(533.333333,0,0,533.333333,3062.333333,1598.374315)">
                <path d="M0.084,-0L0.238,-0L0.238,-0.271L0.572,-0.271L0.572,-0.411L0.238,-0.411L0.238,-0.56L0.617,-0.56L0.617,-0.7L0.084,-0.7L0.084,-0Z" style="fill-rule:nonzero;"/>
            </g>
            <g transform="matrix(533.333333,0,0,533.333333,3412.2,1598.374315)">
                <rect x="0.091" y="-0.7" width="0.154" height="0.7" style="fill-rule:nonzero;"/>
            </g>
            <g transform="matrix(533.333333,0,0,533.333333,3591.4,1598.374315)">
                <path d="M0.084,-0L0.236,-0L0.236,-0.445L0.575,-0L0.706,-0L0.706,-0.7L0.554,-0.7L0.554,-0.269L0.226,-0.7L0.084,-0.7L0.084,-0Z" style="fill-rule:nonzero;"/>
            </g>
            <g transform="matrix(533.333333,0,0,533.333333,4012.733333,1598.374315)">
                <path d="M0.421,0.012C0.549,0.012 0.648,-0.038 0.72,-0.099L0.72,-0.403L0.416,-0.403L0.416,-0.27L0.571,-0.27L0.571,-0.17C0.532,-0.142 0.482,-0.128 0.426,-0.128C0.302,-0.128 0.214,-0.222 0.214,-0.35L0.214,-0.352C0.214,-0.471 0.303,-0.57 0.415,-0.57C0.496,-0.57 0.544,-0.544 0.598,-0.499L0.695,-0.616C0.622,-0.678 0.546,-0.712 0.42,-0.712C0.208,-0.712 0.053,-0.549 0.053,-0.35L0.053,-0.348C0.053,-0.141 0.203,0.012 0.421,0.012Z" style="fill-rule:nonzero;"/>
            </g>
        </g>
        <g transform="matrix(0.934127,0,0,0.934127,65.872681,63.872681)">
            <path d="M51.2,1000L1948.8,1000" style="fill:none;stroke:rgb(0,0,0);stroke-width:81.55px;"/>
        </g>
    </g>
</svg>
