<?xml version="1.0" encoding="UTF-8" standalone="no"?>
<!DOCTYPE svg PUBLIC "-//W3C//DTD SVG 1.1//EN" "http://www.w3.org/Graphics/SVG/1.1/DTD/svg11.dtd">
<svg width="100%" height="100%" viewBox="0 0 270 194" version="1.1" xmlns="http://www.w3.org/2000/svg" xmlns:xlink="http://www.w3.org/1999/xlink" xml:space="preserve" xmlns:serif="http://www.serif.com/" style="fill-rule:evenodd;clip-rule:evenodd;stroke-linejoin:round;stroke-miterlimit:2;">
    <g>
        <path d="M268.99,12.17L2.02,12.19L2.16,3.46C2.165,3.206 2.371,3 2.62,3L268.51,3C268.757,3 268.96,3.203 268.96,3.45L268.99,12.17Z" style="fill:rgb(0,0,0);fill-rule:nonzero;"/>
        <path d="M189.72,35.56L182.55,35.56C182.259,35.56 182.02,35.321 182.02,35.03L182.02,33.59C182.02,33.222 182.322,32.92 182.69,32.92L192.75,32.92C192.751,32.92 192.752,32.92 192.752,32.92C193.153,32.92 193.482,33.25 193.482,33.65C193.482,33.67 193.482,33.69 193.48,33.71C192.86,41.097 189.12,45.227 182.26,46.1C173.49,47.21 165.3,41.67 165.3,32.58C165.29,18.26 182.44,14.63 191.54,23.37C191.643,23.468 191.702,23.604 191.702,23.747C191.702,23.903 191.631,24.051 191.51,24.15L190.11,25.31C189.909,25.476 189.612,25.472 189.41,25.3C183.79,20.42 176.13,19.58 170.98,25.16C168.4,27.967 167.563,31.233 168.47,34.96C170.96,45.16 186.8,47.49 190.31,36.37C190.33,36.309 190.34,36.244 190.34,36.18C190.34,35.84 190.06,35.56 189.72,35.56Z" style="fill:rgb(0,0,0);fill-rule:nonzero;"/>
        <path d="M13.46,19.68C13.46,19.499 13.609,19.35 13.79,19.35L23.3,19.37C23.301,19.37 23.301,19.37 23.302,19.37C30.147,19.382 35.771,25.02 35.76,31.86L35.76,33.26C35.76,33.261 35.76,33.261 35.76,33.262C35.748,40.102 30.106,45.721 23.26,45.71L13.75,45.69C13.569,45.69 13.42,45.541 13.42,45.36L13.46,19.68ZM16.18,22.29L15.96,42.79C15.96,42.944 16.086,43.07 16.24,43.07L22.52,43.14C28.213,43.198 32.943,38.797 33,33.39L33.02,32.05C33.02,32.049 33.02,32.049 33.02,32.048C33.077,26.639 28.438,22.14 22.744,22.08C22.743,22.08 22.741,22.08 22.74,22.08L16.46,22.01C16.306,22.01 16.18,22.136 16.18,22.29Z" style="fill:rgb(0,0,0);fill-rule:nonzero;"/>
        <path d="M49.64,43.66C53.62,43.67 55.71,40.81 55.72,37C55.727,34.427 55.747,28.67 55.78,19.73C55.78,19.483 55.983,19.28 56.23,19.28L58.01,19.28C58.275,19.28 58.495,19.495 58.5,19.76C58.507,26.367 58.467,32.25 58.38,37.41C58.28,42.75 54.93,46.26 49.63,46.25C44.33,46.23 41.01,42.69 40.95,37.35C40.897,32.19 40.897,26.307 40.95,19.7C40.955,19.435 41.175,19.22 41.44,19.22L43.22,19.24C43.467,19.24 43.67,19.443 43.67,19.69C43.637,28.63 43.617,34.387 43.61,36.96C43.59,40.77 45.66,43.65 49.64,43.66Z" style="fill:rgb(0,0,0);fill-rule:nonzero;"/>
        <path d="M75.4,19.24C75.433,19.24 75.5,19.257 75.6,19.29C75.713,19.33 75.773,19.357 75.78,19.37C79.607,27.363 83.633,35.937 87.86,45.09C87.872,45.116 87.881,45.143 87.887,45.171C87.935,45.385 87.793,45.601 87.574,45.65C87.546,45.656 87.518,45.66 87.49,45.66L85.76,45.66C85.388,45.659 85.052,45.448 84.9,45.12L81.35,37.62C81.195,37.285 80.882,37.052 80.52,37C80.227,36.96 78.51,36.937 75.37,36.93C72.23,36.923 70.517,36.94 70.23,36.98C69.864,37.029 69.547,37.263 69.39,37.6L65.81,45.08C65.658,45.408 65.322,45.619 64.95,45.62L63.22,45.61C63.191,45.61 63.163,45.606 63.135,45.6C62.915,45.55 62.775,45.334 62.823,45.119C62.829,45.092 62.838,45.065 62.85,45.04C67.11,35.907 71.17,27.35 75.03,19.37C75.037,19.357 75.097,19.33 75.21,19.29C75.31,19.257 75.373,19.24 75.4,19.24ZM71.16,33.88C71.137,33.927 71.125,33.978 71.125,34.03C71.125,34.215 71.275,34.367 71.46,34.37L79.33,34.38C79.515,34.377 79.665,34.225 79.665,34.04C79.665,33.988 79.653,33.937 79.63,33.89L75.72,25.62C75.665,25.498 75.544,25.42 75.41,25.42C75.276,25.42 75.155,25.498 75.1,25.62L71.16,33.88Z" style="fill:rgb(0,0,0);fill-rule:nonzero;"/>
        <path d="M92.12,45.17L92.12,19.68C92.12,19.433 92.323,19.23 92.57,19.23L94.37,19.23C94.617,19.23 94.82,19.433 94.82,19.68L94.82,42.57C94.82,42.817 95.023,43.02 95.27,43.02L104.55,43.02C104.797,43.02 105,43.223 105,43.47L105,45.17C105,45.417 104.797,45.62 104.55,45.62L92.57,45.62C92.323,45.62 92.12,45.417 92.12,45.17Z" style="fill:rgb(0,0,0);fill-rule:nonzero;"/>
        <path d="M121.99,34.02L121.99,45.17C121.99,45.428 121.778,45.64 121.52,45.64L119.73,45.64C119.461,45.64 119.24,45.419 119.24,45.15L119.24,19.91C119.24,19.575 119.506,19.296 119.84,19.28C122.407,19.127 125.373,19.173 128.74,19.42C133.58,19.767 135.927,22.28 135.78,26.96C135.57,33.52 128.56,33.39 122.63,33.37C122.279,33.37 121.99,33.663 121.99,34.02ZM122.01,22.25L121.99,30.37C121.99,30.575 122.155,30.745 122.36,30.75L128.01,30.77C128.012,30.77 128.013,30.77 128.015,30.77C130.762,30.78 133.03,28.866 133.04,26.53L133.04,26.17C133.05,23.834 130.798,21.902 128.05,21.89L122.4,21.87C122.397,21.87 122.393,21.87 122.39,21.87C122.182,21.87 122.01,22.041 122.01,22.25C122.01,22.25 122.01,22.25 122.01,22.25Z" style="fill:rgb(0,0,0);fill-rule:nonzero;"/>
        <path d="M143.38,19.74L143.38,45.12C143.38,45.396 143.156,45.62 142.88,45.62L141.18,45.62C140.904,45.62 140.68,45.396 140.68,45.12L140.68,19.74C140.68,19.464 140.904,19.24 141.18,19.24L142.88,19.24C143.156,19.24 143.38,19.464 143.38,19.74Z" style="fill:rgb(0,0,0);"/>
        <path d="M162.27,43.56L162.25,45.1C162.25,45.391 162.011,45.63 161.72,45.63L149.76,45.63C149.557,45.63 149.39,45.463 149.39,45.26L149.37,19.79C149.37,19.507 149.597,19.271 149.88,19.26L151.53,19.21C151.533,19.21 151.537,19.21 151.54,19.21C151.836,19.21 152.08,19.454 152.08,19.75C152.08,19.75 152.07,42.41 152.07,42.41C152.07,42.412 152.07,42.414 152.07,42.416C152.068,42.756 152.35,43.038 152.696,43.04C152.697,43.04 152.699,43.04 152.7,43.04C152.7,43.04 161.74,43.02 161.74,43.02C162.031,43.02 162.27,43.259 162.27,43.55C162.27,43.553 162.27,43.557 162.27,43.56Z" style="fill:rgb(0,0,0);fill-rule:nonzero;"/>
        <path d="M206.38,34.11L215.36,44.97C215.392,45.007 215.417,45.05 215.434,45.096C215.51,45.307 215.395,45.546 215.178,45.624C215.134,45.641 215.087,45.649 215.04,45.65L213.11,45.65C212.755,45.65 212.418,45.492 212.19,45.22L202.31,33.28C202.256,33.214 202.188,33.162 202.111,33.126C201.823,32.992 201.473,33.122 201.336,33.416C201.3,33.492 201.281,33.576 201.28,33.66L201.28,45.14C201.28,45.409 201.059,45.63 200.79,45.63L199.09,45.63C198.799,45.63 198.56,45.391 198.56,45.1L198.56,19.91C198.56,19.574 198.829,19.291 199.17,19.27C201.03,19.17 203.867,19.207 207.68,19.38C218.37,19.87 217.36,33.81 206.79,33.29C206.781,33.29 206.772,33.289 206.764,33.289C206.489,33.289 206.264,33.515 206.264,33.789C206.264,33.907 206.305,34.02 206.38,34.11ZM201.28,22.31L201.26,30.31C201.26,30.551 201.459,30.75 201.7,30.75L207.34,30.76C207.341,30.76 207.342,30.76 207.343,30.76C210.085,30.765 212.345,28.86 212.35,26.54L212.35,26.12C212.355,23.8 210.103,21.886 207.36,21.88L201.72,21.87C201.479,21.87 201.28,22.069 201.28,22.31Z" style="fill:rgb(0,0,0);fill-rule:nonzero;"/>
        <path d="M223.07,19.7L223.07,45.2C223.07,45.443 222.873,45.64 222.63,45.64L220.81,45.64C220.567,45.64 220.37,45.443 220.37,45.2L220.37,19.7C220.37,19.457 220.567,19.26 220.81,19.26L222.63,19.26C222.873,19.26 223.07,19.457 223.07,19.7Z" style="fill:rgb(0,0,0);"/>
        <path d="M242.8,40.37C242.853,40.37 242.883,40.367 242.89,40.36C242.97,40.341 243.031,40.303 243.05,40.26L253.3,19.58C253.328,19.525 253.368,19.478 253.418,19.441C253.587,19.319 253.824,19.353 253.943,19.517C253.98,19.568 254.003,19.627 254.01,19.69L257.68,45.14C257.683,45.16 257.684,45.18 257.684,45.2C257.684,45.441 257.485,45.64 257.244,45.64C257.243,45.64 257.241,45.64 257.24,45.64L255.63,45.64C255.362,45.638 255.135,45.441 255.1,45.18L252.56,27.54C252.54,27.442 252.454,27.371 252.354,27.371C252.278,27.371 252.207,27.413 252.17,27.48C249.063,33.767 246.137,39.663 243.39,45.17C243.23,45.483 243.033,45.64 242.8,45.64C242.56,45.64 242.36,45.483 242.2,45.17C239.46,39.663 236.54,33.763 233.44,27.47C233.403,27.403 233.332,27.361 233.256,27.361C233.156,27.361 233.07,27.432 233.05,27.53L230.49,45.17C230.455,45.431 230.228,45.628 229.96,45.63L228.35,45.63C228.349,45.63 228.347,45.63 228.346,45.63C228.105,45.63 227.906,45.431 227.906,45.19C227.906,45.17 227.907,45.15 227.91,45.13L231.6,19.68C231.607,19.617 231.63,19.558 231.667,19.507C231.786,19.343 232.023,19.309 232.192,19.431C232.242,19.468 232.282,19.515 232.31,19.57L242.54,40.26C242.559,40.303 242.62,40.341 242.7,40.36C242.707,40.367 242.74,40.37 242.8,40.37Z" style="fill:rgb(0,0,0);fill-rule:nonzero;"/>
        <path d="M148.11,111L151.57,112.72C151.639,112.756 151.716,112.774 151.794,112.774C152.063,112.774 152.284,112.553 152.284,112.284C152.284,112.186 152.255,112.091 152.2,112.01C149.733,108.237 148.227,104.047 147.68,99.44C147.673,99.391 147.681,99.341 147.704,99.297C147.766,99.181 147.916,99.138 148.038,99.202C148.08,99.225 148.116,99.259 148.14,99.3C148.9,100.72 149.653,101.723 150.4,102.31C150.542,102.425 150.72,102.487 150.902,102.487C151.341,102.487 151.702,102.126 151.702,101.687C151.702,101.624 151.695,101.561 151.68,101.5C150.54,96.62 149.37,92.63 151.11,87.64C151.136,87.569 151.18,87.504 151.237,87.453C151.427,87.279 151.724,87.29 151.894,87.477C151.946,87.534 151.983,87.604 152,87.68C152.76,90.867 154.013,93.503 155.76,95.59C155.809,95.648 155.871,95.693 155.942,95.722C156.181,95.817 156.459,95.695 156.557,95.45C156.585,95.38 156.596,95.305 156.59,95.23C155.84,87.98 156.31,80.72 160.39,74.62C160.454,74.533 160.556,74.482 160.663,74.482C160.85,74.482 161.003,74.636 161.003,74.822C161.003,74.838 161.002,74.854 161,74.87C160.42,77.943 160.397,80.557 160.93,82.71C160.992,82.935 161.198,83.092 161.431,83.092C161.661,83.092 161.865,82.94 161.93,82.72C164.06,74.97 167.46,68.24 174.18,63.65C174.223,63.623 174.273,63.608 174.324,63.608C174.472,63.608 174.594,63.73 174.594,63.878C174.594,63.924 174.583,63.97 174.56,64.01C172.4,67.583 170.833,71.56 169.86,75.94C169.773,76.321 169.96,76.716 170.31,76.89L170.75,77.11C170.816,77.142 170.888,77.159 170.961,77.159C171.16,77.159 171.339,77.036 171.41,76.85C175.183,66.903 181.687,59.587 190.92,54.9C192.06,54.32 193.2,53.987 194.34,53.9C194.354,53.899 194.368,53.898 194.382,53.898C194.651,53.898 194.872,54.119 194.872,54.388C194.872,54.502 194.832,54.612 194.76,54.7C186.16,65.06 181.43,78.57 183.19,92.01C183.51,94.51 184.17,96.347 185.17,97.52C188.07,100.94 193.15,101.79 194.88,96.63C195.58,94.563 195.873,91.77 195.76,88.25C195.513,80.383 195.523,74.803 195.79,71.51C195.897,70.243 196.53,68.923 197.69,67.55C200.53,64.19 205.52,64.3 209.09,66.38C211.15,67.57 211.74,70.26 211.76,72.86C211.787,77.193 211.773,82.99 211.72,90.25C211.7,93.57 212.133,95.783 213.02,96.89C215.13,99.53 222.24,101.04 223.63,96.2C226.94,84.58 221.86,69.47 215.59,59.66C214.457,57.887 213.24,56.463 211.94,55.39C211.905,55.362 211.875,55.328 211.85,55.291C211.709,55.082 211.769,54.791 211.983,54.647C212.019,54.623 212.059,54.604 212.1,54.59C212.633,54.423 213.247,54.497 213.94,54.81C223.733,59.203 231.097,66.11 236.03,75.53C236.08,75.668 236.213,75.761 236.36,75.761C236.553,75.761 236.711,75.603 236.711,75.41C236.711,75.369 236.704,75.328 236.69,75.29C235.923,71.723 234.513,68.077 232.46,64.35C232.419,64.277 232.397,64.194 232.397,64.11C232.397,63.841 232.618,63.62 232.887,63.62C232.976,63.62 233.064,63.644 233.14,63.69C235.74,65.217 238.107,67.313 240.24,69.98C243.48,74.03 244.74,81.52 246.02,86.95C246.091,87.245 246.358,87.455 246.661,87.455C246.895,87.455 247.111,87.331 247.23,87.13C248.48,85.04 247.22,77.11 246.66,73.76C246.655,73.738 246.653,73.716 246.653,73.694C246.653,73.53 246.788,73.394 246.953,73.394C247.058,73.394 247.156,73.45 247.21,73.54C250.143,77.8 251.707,82.64 251.9,88.06C251.993,90.787 251.97,93.417 251.83,95.95C251.829,95.96 251.829,95.971 251.829,95.981C251.829,96.289 252.082,96.541 252.389,96.541C252.492,96.541 252.592,96.513 252.68,96.46C254.41,95.42 255.36,89.06 255.53,86.95C255.558,86.626 255.833,86.374 256.158,86.374C256.422,86.374 256.66,86.541 256.75,86.79C258.397,91.343 258.177,96.107 256.09,101.08C255.918,101.498 256.031,101.982 256.37,102.28L256.63,102.46C256.698,102.506 256.779,102.531 256.861,102.531C257.018,102.531 257.162,102.441 257.23,102.3L259.89,96.94C259.904,96.913 259.924,96.888 259.947,96.867C260.049,96.776 260.205,96.781 260.293,96.879C260.314,96.903 260.33,96.93 260.34,96.96C261.87,101.12 257.94,107.97 255.18,111.09C255.086,111.196 255.035,111.333 255.035,111.474C255.035,111.792 255.296,112.054 255.615,112.054C255.671,112.054 255.726,112.046 255.78,112.03C257.313,111.557 258.59,110.537 259.61,108.97C259.737,108.763 259.963,108.637 260.206,108.637C260.59,108.637 260.906,108.953 260.906,109.337C260.906,109.368 260.904,109.399 260.9,109.43C260.23,115.66 256.35,117.61 251.61,120.63C251.508,120.694 251.446,120.806 251.446,120.926C251.446,121.093 251.566,121.238 251.73,121.27C253.43,121.643 254.98,121.487 256.38,120.8C256.435,120.774 256.496,120.76 256.557,120.76C256.782,120.76 256.967,120.945 256.967,121.17C256.967,121.236 256.951,121.301 256.92,121.36C254.653,125.52 251.39,128.71 247.13,130.93C241.51,133.857 235.937,135.76 230.41,136.64C228.931,136.875 227.83,138.167 227.83,139.67L227.83,142.67C227.83,142.764 227.836,142.858 227.848,142.952C228.001,144.132 229.103,144.977 230.289,144.823C230.381,144.811 230.471,144.793 230.56,144.77C234.573,143.71 236.833,143.53 237.34,144.23C238.08,145.237 239.027,146.23 240.18,147.21C240.463,147.447 240.689,147.748 240.84,148.09C241.193,148.883 241.353,149.733 241.32,150.64C241.305,150.975 241.026,151.243 240.691,151.243C240.506,151.243 240.33,151.161 240.21,151.02C239.157,149.793 238.147,149.077 237.18,148.87C237.061,148.845 236.94,148.835 236.819,148.842C236.063,148.881 235.473,149.531 235.512,150.282C235.519,150.404 235.542,150.524 235.58,150.64C236.24,152.687 236.293,154.57 235.74,156.29C235.673,156.489 235.485,156.625 235.275,156.625C235.113,156.625 234.961,156.544 234.87,156.41C233.61,154.53 232.137,153.03 230.45,151.91C230.15,151.71 229.77,151.672 229.44,151.81C226.61,152.97 227.81,156.48 228.32,159.15C228.323,159.172 228.325,159.193 228.325,159.215C228.325,159.44 228.14,159.625 227.915,159.625C227.893,159.625 227.872,159.623 227.85,159.62C223.69,158.887 221.74,156.673 222,152.98C222.02,152.709 222.091,152.448 222.21,152.21L223.59,149.42C223.601,149.398 223.611,149.376 223.621,149.354C224.035,148.439 223.617,147.344 222.698,146.929C222.675,146.919 222.653,146.909 222.63,146.9C219.65,145.7 217.293,143.96 215.56,141.68C214.861,140.772 213.56,140.564 212.62,141.21C209.153,143.577 208.253,146.74 209.92,150.7C210.017,150.933 210.189,151.13 210.41,151.26L215.37,154.07C215.642,154.223 215.8,154.525 215.77,154.84C215.69,155.66 215.17,156.15 215.44,157.1C215.873,158.613 215.717,160.037 214.97,161.37C214.908,161.482 214.816,161.574 214.704,161.634C214.38,161.808 213.968,161.682 213.791,161.353C213.731,161.242 213.703,161.116 213.71,160.99C213.83,159.357 212.633,157.913 210.12,156.66C210.075,156.638 210.029,156.619 209.982,156.602C209.335,156.374 208.617,156.715 208.391,157.356C208.374,157.403 208.361,157.451 208.35,157.5C207.68,160.49 206,163.13 202.55,162.89C202.496,162.884 202.445,162.866 202.399,162.836C202.248,162.737 202.203,162.534 202.299,162.388C202.329,162.342 202.371,162.305 202.42,162.28C204.227,161.36 204.697,159.81 203.83,157.63C203.817,157.597 203.802,157.565 203.786,157.533C203.463,156.891 202.673,156.626 202.036,156.947C202.003,156.963 201.971,156.981 201.94,157C200.527,157.867 199.61,158.583 199.19,159.15C198.48,160.11 197.25,159.83 196.54,161.19C196.509,161.278 196.426,161.337 196.333,161.337C196.212,161.337 196.113,161.237 196.113,161.117C196.113,161.098 196.115,161.079 196.12,161.06L196.78,156.71C196.858,156.187 197.12,155.708 197.52,155.36C199.08,154 201.86,153.78 203.37,152.08C206.72,148.31 203.78,143.33 200.31,141.14C200.047,140.976 199.713,140.976 199.45,141.14C195.75,143.387 192.477,146.15 189.63,149.43C188.872,150.309 188.552,151.483 188.76,152.62C189.25,155.23 190.42,159.6 186.62,160.08C184.933,160.3 183.307,160.107 181.74,159.5C181.661,159.471 181.596,159.417 181.555,159.345C181.455,159.174 181.518,158.95 181.694,158.848C181.766,158.807 181.849,158.79 181.93,158.8C186.92,159.48 185.61,153.77 181.55,154.86C181.364,154.912 181.167,154.89 181,154.8L179.77,154.19C179.497,154.06 179.188,154.025 178.89,154.09C176.917,154.557 176.053,155.953 176.3,158.28C176.304,158.307 176.306,158.335 176.306,158.363C176.306,158.67 176.053,158.923 175.746,158.923C175.521,158.923 175.317,158.787 175.23,158.58C173.87,155.68 174.03,153.457 175.71,151.91C176.71,150.99 178.33,150.96 180.28,150.71C180.335,150.703 180.39,150.691 180.443,150.675C180.947,150.522 181.239,149.99 181.089,149.497C181.073,149.446 181.054,149.397 181.03,149.35C180.75,148.81 180.15,148.453 179.23,148.28C176.243,147.713 173.787,148.123 171.86,149.51C171.795,149.561 171.715,149.588 171.632,149.588C171.429,149.588 171.262,149.421 171.262,149.218C171.262,149.148 171.282,149.079 171.32,149.02C173.887,144.62 177.523,143.617 182.23,146.01C183.57,146.697 184.413,147.203 184.76,147.53C185.04,147.793 185.472,147.815 185.77,147.58C189.077,144.907 189.347,141.887 186.58,138.52C186.376,138.278 186.077,138.136 185.76,138.13C173.11,137.93 160.03,134.23 152.19,123.71C152.158,123.666 152.141,123.613 152.141,123.558C152.141,123.416 152.259,123.298 152.401,123.298C152.411,123.298 152.42,123.299 152.43,123.3L158,124.1C158.016,124.102 158.032,124.103 158.048,124.103C158.245,124.103 158.408,123.941 158.408,123.743C158.408,123.633 158.357,123.528 158.27,123.46C154.06,120.1 149.94,116.6 147.64,111.45C147.623,111.408 147.614,111.363 147.614,111.318C147.614,111.126 147.772,110.968 147.964,110.968C148.015,110.968 148.064,110.979 148.11,111ZM205.12,72.13C205.12,70.44 203.73,69.05 202.04,69.05C200.35,69.05 198.96,70.44 198.96,72.13C198.96,73.82 200.35,75.21 202.04,75.21C203.73,75.21 205.12,73.82 205.12,72.13Z" style="fill:rgb(0,0,0);fill-rule:nonzero;"/>
        <path d="M90.71,81.17C90.668,81.152 90.624,81.143 90.578,81.143C90.397,81.143 90.248,81.292 90.248,81.473C90.248,81.553 90.277,81.63 90.33,81.69L119.89,117.4C120.321,117.929 120.429,118.652 120.17,119.28C119.45,121.053 118.417,123.12 117.07,125.48C116.537,126.413 115.963,126.847 115.35,126.78C112.92,126.52 109.29,121.66 108.17,119.9C99.783,106.707 92.333,95.193 85.82,85.36C85.596,85.021 85.188,84.851 84.79,84.93L84.71,84.94C84.443,84.991 84.247,85.227 84.247,85.5C84.247,85.565 84.258,85.629 84.28,85.69C84.52,86.337 84.757,86.873 84.99,87.3C93.423,102.62 100.873,117.513 107.34,131.98C108.153,133.807 108.6,135.197 108.68,136.15C108.711,136.501 108.549,136.84 108.26,137.03L101.11,141.94C100.895,142.087 100.641,142.166 100.381,142.166C99.841,142.166 99.356,141.827 99.17,141.32L79.4,88.46C79.272,88.128 78.933,87.927 78.59,87.98L78.27,88.02C78.256,88.022 78.242,88.024 78.227,88.027C77.857,88.103 77.614,88.474 77.691,88.851C77.694,88.864 77.697,88.877 77.7,88.89C86.66,121.223 91.737,139.61 92.93,144.05C93.23,145.163 93.243,146.163 92.97,147.05C92.873,147.387 92.665,147.682 92.38,147.89C90.033,149.663 87.563,150.663 84.97,150.89C84.121,150.965 83.347,150.37 83.2,149.53L72.78,89.46C72.699,88.972 72.241,88.63 71.75,88.69L71.71,88.7C71.223,88.762 70.864,89.2 70.9,89.69C72.98,119.583 74.593,142.187 75.74,157.5C76.1,162.27 68.01,161.06 65.16,160.36C62.71,159.75 62.48,158.02 62.71,155.75C63.443,148.737 63.853,144.487 63.94,143C64.787,129.453 65.697,116.1 66.67,102.94C67.01,98.313 67.163,93.503 67.13,88.51C67.121,88.198 66.862,87.946 66.55,87.946C66.337,87.946 66.141,88.063 66.04,88.25C65.707,88.877 65.477,89.573 65.35,90.34C64.457,95.627 61.503,114.26 56.49,146.24C56.163,148.3 55.563,149.72 54.69,150.5C54.36,150.8 53.884,150.889 53.46,150.73L46.82,148.2C46.137,147.939 45.755,147.198 45.94,146.49L61.48,87.95C61.496,87.887 61.501,87.823 61.495,87.758C61.468,87.447 61.194,87.212 60.888,87.239C60.823,87.245 60.759,87.262 60.7,87.29L60.29,87.48C59.624,87.794 59.11,88.355 58.86,89.04C49.8,114.047 44.753,127.943 43.72,130.73C42.227,134.757 40.513,138.307 38.58,141.38C38.239,141.926 37.638,142.259 36.994,142.259C36.554,142.259 36.127,142.104 35.79,141.82L29.87,136.85C29.122,136.222 28.946,135.127 29.46,134.29C30.807,132.097 31.887,130.233 32.7,128.7C37.087,120.373 42.853,109.223 50,95.25C51.8,91.737 53.187,88.783 54.16,86.39C54.407,85.777 54.517,85.367 54.49,85.16C54.451,84.813 54.154,84.547 53.804,84.547C53.567,84.547 53.346,84.669 53.22,84.87L25.28,128.37C25.012,128.787 24.548,129.04 24.052,129.04C23.487,129.04 22.97,128.712 22.73,128.2L18.95,120.09C18.475,119.068 18.635,117.857 19.36,116.99L48.63,82.12C48.746,81.98 48.81,81.803 48.81,81.621C48.81,81.339 48.657,81.078 48.41,80.94L48.37,80.92C47.872,80.643 47.251,80.707 46.82,81.08C37.9,88.767 29.113,96.393 20.46,103.96C19.14,105.12 17.8,106.077 16.44,106.83C16.225,106.951 15.982,107.014 15.735,107.014C15.023,107.014 14.412,106.485 14.31,105.78L13.24,98.34C13.038,96.937 13.657,95.536 14.83,94.74C20.463,90.947 29.37,85.217 41.55,77.55C43.937,76.05 45.973,74.527 47.66,72.98C47.86,72.796 47.973,72.537 47.973,72.266C47.973,71.865 47.725,71.503 47.35,71.36L31.42,65.29C31.028,65.142 30.767,64.764 30.767,64.345C30.767,64.11 30.849,63.881 31,63.7L34.58,59.44C35.221,58.676 36.295,58.423 37.21,58.82C43.37,61.47 47.58,64.19 53.72,63.14C54.019,63.087 54.308,63 54.58,62.88C58.213,61.22 60.867,60.297 62.54,60.11C64.02,59.943 67.633,59.937 73.38,60.09C74.229,60.117 75.071,60.265 75.88,60.53C79.71,61.79 85.47,64.01 89.83,63.1C89.91,63.087 89.987,63.063 90.06,63.03L101.46,58.47C102.826,57.917 104.407,58.394 105.24,59.61L106.38,61.27C106.422,61.332 106.462,61.395 106.499,61.46C107.228,62.737 106.773,64.39 105.491,65.121C105.428,65.157 105.365,65.19 105.3,65.22L92.49,71.2C92.451,71.219 92.415,71.242 92.382,71.27C92.167,71.449 92.136,71.77 92.311,71.98C92.34,72.015 92.373,72.045 92.41,72.07C99.343,77.017 109.833,84.36 123.88,94.1C127.22,96.42 125.93,103.02 124.83,106.1C124.819,106.131 124.806,106.162 124.792,106.191C124.574,106.64 124.021,106.828 123.567,106.608C123.537,106.594 123.508,106.578 123.48,106.56C122.707,106.06 121.343,105.077 119.39,103.61C117.877,102.463 108.717,95.203 91.91,81.83C91.63,81.603 91.23,81.383 90.71,81.17Z" style="fill:rgb(0,0,0);fill-rule:nonzero;"/>
        <path d="M198.85,63.74C198.899,63.719 198.951,63.708 199.004,63.708C199.218,63.708 199.394,63.884 199.394,64.098C199.394,64.186 199.364,64.271 199.31,64.34L196.68,67.47C196.416,67.785 196.045,67.992 195.64,68.05L193.25,68.39C192.874,68.447 192.495,68.341 192.21,68.1L190.83,66.94C190.718,66.853 190.653,66.719 190.653,66.577C190.653,66.325 190.861,66.117 191.113,66.117C191.149,66.117 191.185,66.122 191.22,66.13C192.407,66.377 193.283,65.73 193.85,64.19C193.851,64.188 193.852,64.186 193.852,64.184C193.97,63.888 194.305,63.739 194.596,63.854C194.601,63.856 194.605,63.858 194.61,63.86C194.737,63.913 194.95,64.19 195.25,64.69C195.442,65.011 195.847,65.137 196.18,64.98L198.85,63.74Z" style="fill:rgb(0,0,0);fill-rule:nonzero;"/>
        <path d="M186.65,73.6C188.61,70.92 191.217,69.537 194.47,69.45C194.475,69.45 194.48,69.45 194.485,69.45C194.815,69.45 195.085,69.721 195.085,70.05C195.085,70.077 195.084,70.103 195.08,70.13C195.02,70.65 194.853,71.197 194.58,71.77C194.419,72.109 194.088,72.332 193.72,72.35C191.333,72.503 189.093,73.063 187,74.03C186.965,74.044 186.928,74.051 186.891,74.051C186.732,74.051 186.601,73.92 186.601,73.761C186.601,73.704 186.618,73.648 186.65,73.6Z" style="fill:rgb(0,0,0);fill-rule:nonzero;"/>
        <circle cx="201.71" cy="71.79" r="0.91" style="fill:rgb(0,0,0);"/>
        <path d="M189.04,74.36L194.18,73.47C194.194,73.467 194.208,73.466 194.223,73.466C194.335,73.466 194.432,73.549 194.45,73.66L194.73,75.29C194.735,75.316 194.737,75.343 194.737,75.37C194.737,75.616 194.536,75.818 194.29,75.82C192.59,75.827 190.827,75.527 189,74.92C188.882,74.88 188.803,74.769 188.803,74.645C188.803,74.506 188.903,74.385 189.04,74.36Z" style="fill:rgb(0,0,0);fill-rule:nonzero;"/>
        <path d="M268.99,181.8L268.94,190.54C268.94,190.792 268.728,191 268.47,191L2.52,191C2.262,191 2.05,190.788 2.05,190.53L2.01,181.71L12.89,181.76C12.918,181.76 12.946,181.756 12.974,181.75C13.193,181.701 13.335,181.485 13.287,181.271C13.281,181.243 13.272,181.216 13.26,181.19L12.73,180.06C12.67,179.935 12.651,179.795 12.675,179.658C12.739,179.297 13.093,179.052 13.461,179.117C13.596,179.141 13.722,179.205 13.82,179.3C14.693,180.167 15.167,180.637 15.24,180.71C16.179,181.604 17.664,181.708 18.81,180.96C19.93,180.227 20.283,179.253 19.87,178.04C18.72,174.69 10.78,172.74 14.05,167.82C15.77,165.22 19.24,166.01 21.14,168.17C21.282,168.332 21.36,168.541 21.36,168.756C21.36,169.02 21.243,169.271 21.04,169.44L20.8,169.63C20.589,169.81 20.267,169.793 20.07,169.59C19.503,168.997 18.96,168.553 18.44,168.26C18.37,168.22 18.298,168.184 18.225,168.152C17.096,167.652 15.793,168.086 15.337,169.114C15.307,169.181 15.282,169.25 15.26,169.32C13.98,173.42 25.32,174.83 20.85,181.63C20.835,181.65 20.827,181.675 20.827,181.7C20.827,181.766 20.882,181.82 20.947,181.82C20.948,181.82 20.949,181.82 20.95,181.82L23.83,181.82C23.969,181.821 24.098,181.739 24.16,181.61L31.44,166.93C31.504,166.809 31.63,166.732 31.767,166.732C31.909,166.732 32.038,166.813 32.1,166.94L38.78,181.26C38.939,181.596 39.279,181.811 39.65,181.81L41.41,181.81C41.695,181.81 41.93,181.575 41.93,181.29L41.93,167.13C41.93,167.13 41.93,167.13 41.93,167.129C41.93,166.861 42.151,166.639 42.42,166.639C42.567,166.639 42.707,166.706 42.8,166.82L52.39,178.41C52.422,178.45 52.462,178.482 52.508,178.504C52.677,178.584 52.883,178.507 52.965,178.334C52.987,178.289 52.999,178.24 53,178.19L53.1,167.23C53.1,166.808 53.443,166.456 53.87,166.44L53.9,166.44C53.907,166.44 53.914,166.439 53.92,166.439C54.326,166.429 54.669,166.758 54.68,167.17C54.68,167.176 54.68,167.183 54.68,167.19L54.69,181.26C54.69,181.556 54.934,181.8 55.23,181.8L60.1,181.8C60.358,181.8 60.57,181.588 60.57,181.33L60.57,168.9C60.57,168.554 60.286,168.27 59.94,168.27L57.58,168.27C57.251,168.27 56.98,167.999 56.98,167.67L56.98,167.18C56.98,166.84 57.26,166.56 57.6,166.56L65.48,166.56C65.727,166.56 65.93,166.763 65.93,167.01L65.93,167.76C65.93,168.045 65.695,168.28 65.41,168.28L62.85,168.28C62.559,168.28 62.32,168.519 62.32,168.81L62.32,181.36C62.32,181.601 62.519,181.8 62.76,181.8L67.49,181.8C67.737,181.8 67.94,181.601 67.94,181.36L67.94,167.16C67.941,166.844 68.172,166.574 68.48,166.53L68.84,166.48C68.873,166.475 68.907,166.472 68.94,166.472C69.307,166.472 69.609,166.773 69.61,167.14L69.61,180.46C69.61,180.463 69.61,180.466 69.61,180.469C69.61,181.286 70.283,181.959 71.1,181.959C71.669,181.959 72.191,181.632 72.44,181.12L79.5,166.89C79.559,166.772 79.681,166.697 79.813,166.697C79.949,166.697 80.073,166.777 80.13,166.9L86.84,181.29C86.985,181.607 87.311,181.811 87.67,181.81L92.44,181.81C92.596,181.805 92.721,181.676 92.721,181.52C92.721,181.436 92.684,181.355 92.62,181.3C89.533,178.733 88.577,175.653 89.75,172.06C91.95,165.32 100.29,164.54 105.15,168.88C105.311,169.022 105.403,169.227 105.403,169.441C105.403,169.665 105.303,169.878 105.13,170.02L104.89,170.22C104.685,170.39 104.385,170.399 104.16,170.24C91.58,161.41 85.7,180.45 97.73,181.42C101.17,181.7 103.47,180.303 104.63,177.23C104.649,177.179 104.658,177.125 104.658,177.07C104.658,176.812 104.446,176.6 104.188,176.6C104.185,176.6 104.183,176.6 104.18,176.6C102.167,176.647 100.773,176.62 100,176.52C99.611,176.496 99.304,176.17 99.304,175.78C99.304,175.373 99.638,175.039 100.045,175.039C100.06,175.039 100.075,175.039 100.09,175.04L106.05,175.04C106.057,175.04 106.064,175.04 106.071,175.04C106.367,175.051 106.602,175.307 106.591,175.609C106.591,175.616 106.591,175.623 106.59,175.63C106.443,178.063 105.543,179.963 103.89,181.33C103.823,181.383 103.783,181.464 103.783,181.55C103.783,181.704 103.909,181.83 104.063,181.83C104.065,181.83 104.068,181.83 104.07,181.83L112.18,181.83C112.221,181.831 112.261,181.821 112.296,181.802C112.412,181.739 112.453,181.588 112.388,181.468C112.369,181.433 112.342,181.403 112.31,181.38C106.57,177.63 108.52,168.39 114.87,166.6C124.35,163.91 130.25,175.93 122.59,181.49C122.547,181.524 122.523,181.576 122.523,181.63C122.523,181.724 122.596,181.803 122.69,181.81L153.18,181.81C153.394,181.81 153.57,181.634 153.57,181.42L153.57,166.78C153.57,166.412 153.872,166.11 154.24,166.11L154.64,166.11C155.019,166.11 155.33,166.417 155.33,166.79L155.33,171.47C155.332,171.633 155.467,171.766 155.63,171.766C155.704,171.766 155.775,171.739 155.83,171.69L161.15,166.71C161.417,166.456 161.756,166.292 162.12,166.24L163.41,166.06C163.434,166.056 163.458,166.054 163.482,166.054C163.718,166.054 163.912,166.248 163.912,166.484C163.912,166.615 163.852,166.738 163.75,166.82L156.52,172.81C156.369,172.935 156.281,173.122 156.281,173.318C156.281,173.486 156.345,173.648 156.46,173.77L163.59,181.31C163.902,181.636 164.333,181.82 164.78,181.82L168.38,181.82C168.52,181.816 168.633,181.7 168.633,181.56C168.633,181.488 168.603,181.419 168.55,181.37C167.443,180.423 166.9,178.807 166.92,176.52C166.94,174.433 166.947,171.267 166.94,167.02C166.938,166.537 167.309,166.126 167.79,166.08L167.81,166.07C167.82,166.07 167.83,166.069 167.84,166.069C168.27,166.069 168.625,166.42 168.63,166.85L168.64,177.57C168.645,179.486 170.219,181.06 172.13,181.06L172.64,181.06C174.5,181.06 176.03,179.525 176.03,177.66L176.03,166.88C176.031,166.497 176.315,166.17 176.69,166.12L176.98,166.08C176.996,166.078 177.011,166.076 177.027,166.074C177.377,166.046 177.689,166.314 177.718,166.67C177.719,166.683 177.72,166.697 177.72,166.71C177.78,171.4 178.62,179.21 175.98,181.43C175.955,181.451 175.935,181.478 175.921,181.508C175.867,181.622 175.912,181.758 176.021,181.81C176.052,181.824 176.086,181.831 176.12,181.83L180.38,181.83C180.723,181.829 181.015,181.575 181.06,181.24L183.18,166.62C183.206,166.433 183.368,166.292 183.556,166.292C183.703,166.292 183.837,166.377 183.9,166.51L189.6,178.74C189.67,178.899 189.829,179.002 190.002,179.002C190.172,179.002 190.327,178.903 190.4,178.75L196.35,166.73C196.376,166.682 196.412,166.639 196.457,166.607C196.612,166.495 196.83,166.526 196.94,166.677C196.972,166.722 196.993,166.775 197,166.83L199.02,180.84C199.049,181.034 199.125,181.218 199.24,181.377C199.632,181.919 200.397,182.045 200.935,181.656C201.095,181.54 201.223,181.387 201.31,181.21L208.55,166.61C208.614,166.474 208.752,166.386 208.903,166.386C209.057,166.386 209.198,166.478 209.26,166.62L216.14,181.36C216.268,181.639 216.546,181.819 216.85,181.82L218.45,181.82C218.774,181.82 219.04,181.554 219.04,181.23L219.04,166.59C219.04,166.59 219.04,166.59 219.04,166.589C219.04,166.348 219.239,166.149 219.48,166.149C219.612,166.149 219.736,166.208 219.82,166.31L229.42,177.91C229.458,177.956 229.506,177.994 229.56,178.019C229.764,178.114 230.012,178.021 230.11,177.813C230.135,177.758 230.149,177.7 230.15,177.64L230.15,166.83C230.15,166.43 230.48,166.1 230.88,166.1L231.27,166.1C231.616,166.1 231.9,166.384 231.9,166.73L231.9,181.21C231.9,181.534 232.166,181.8 232.49,181.8L238.68,181.8C238.682,181.8 238.684,181.8 238.686,181.8C238.839,181.8 238.966,181.674 238.966,181.52C238.966,181.422 238.914,181.331 238.83,181.28C236.15,179.68 234.9,177.18 235.08,173.78C235.65,162.93 252.11,163.34 252.08,174.33C252.067,177.503 250.753,179.873 248.14,181.44C248.115,181.457 248.094,181.48 248.078,181.507C248.023,181.602 248.052,181.723 248.142,181.775C248.168,181.791 248.199,181.799 248.23,181.8L268.99,181.8ZM250.41,174.31C250.41,170.563 247.327,167.48 243.58,167.48C239.833,167.48 236.75,170.563 236.75,174.31C236.75,178.057 239.833,181.14 243.58,181.14C247.327,181.14 250.41,178.057 250.41,174.31ZM124.29,174.69C124.29,170.949 121.211,167.87 117.47,167.87C113.729,167.87 110.65,170.949 110.65,174.69C110.65,178.431 113.729,181.51 117.47,181.51C121.211,181.51 124.29,178.431 124.29,174.69ZM208.81,175.5C209.483,175.5 210.157,175.47 210.83,175.41C210.852,175.408 210.874,175.404 210.896,175.398C211.119,175.34 211.253,175.104 211.193,174.876C211.187,174.853 211.179,174.831 211.17,174.81C210.61,173.577 210.023,172.34 209.41,171.1C209.077,170.433 208.87,170.1 208.79,170.1C208.71,170.1 208.507,170.433 208.18,171.1C207.573,172.347 206.993,173.587 206.44,174.82C206.43,174.842 206.423,174.864 206.417,174.887C206.358,175.116 206.493,175.351 206.716,175.409C206.737,175.414 206.758,175.418 206.78,175.42C207.453,175.473 208.13,175.5 208.81,175.5ZM29.17,175.42C29.149,175.464 29.138,175.511 29.138,175.56C29.138,175.736 29.282,175.88 29.458,175.88C29.458,175.88 29.459,175.88 29.46,175.88L33.86,175.89C33.861,175.89 33.862,175.89 33.862,175.89C34.038,175.89 34.182,175.746 34.182,175.57C34.182,175.521 34.171,175.474 34.15,175.43L31.95,170.78C31.895,170.673 31.785,170.606 31.665,170.606C31.545,170.606 31.435,170.673 31.38,170.78L29.17,175.42ZM77.22,175.42C77.199,175.464 77.188,175.511 77.188,175.56C77.188,175.736 77.332,175.88 77.508,175.88C77.508,175.88 77.509,175.88 77.51,175.88L81.93,175.88C82.105,175.879 82.248,175.735 82.248,175.56C82.248,175.515 82.238,175.471 82.22,175.43L80.01,170.76C79.955,170.653 79.845,170.586 79.725,170.586C79.605,170.586 79.495,170.653 79.44,170.76L77.22,175.42ZM220.83,170.98L220.83,181.31C220.83,181.59 221.06,181.82 221.34,181.82L230.5,181.82C230.536,181.816 230.563,181.786 230.563,181.75C230.563,181.736 230.558,181.722 230.55,181.71L221.47,170.74C221.437,170.7 221.395,170.667 221.347,170.646C221.168,170.562 220.951,170.645 220.865,170.83C220.843,170.877 220.831,170.928 220.83,170.98ZM43.69,171.34L43.69,181.31C43.69,181.579 43.911,181.8 44.18,181.8L53.02,181.81C53.03,181.812 53.04,181.812 53.05,181.808C53.081,181.797 53.095,181.758 53.082,181.722C53.079,181.714 53.075,181.707 53.07,181.7L44.31,171.11C44.244,171.029 44.144,170.983 44.04,170.983C43.848,170.983 43.69,171.141 43.69,171.333C43.69,171.335 43.69,171.338 43.69,171.34ZM184.48,171.56C184.445,171.481 184.366,171.43 184.279,171.43C184.166,171.43 184.07,171.517 184.06,171.63L182.68,181.22C182.677,181.243 182.675,181.267 182.675,181.29C182.675,181.575 182.91,181.81 183.195,181.81C183.197,181.81 183.198,181.81 183.2,181.81L189.11,181.81C189.268,181.808 189.396,181.678 189.396,181.52C189.396,181.479 189.387,181.438 189.37,181.4L184.48,171.56ZM195.68,171.64L190.83,181.41C190.819,181.431 190.811,181.452 190.806,181.475C190.772,181.624 190.871,181.777 191.026,181.812C191.047,181.817 191.069,181.82 191.09,181.82L196.96,181.82C196.972,181.82 196.983,181.819 196.994,181.819C197.279,181.797 197.496,181.55 197.475,181.271C197.474,181.257 197.472,181.244 197.47,181.23L196.1,171.71C196.09,171.597 195.994,171.51 195.881,171.51C195.794,171.51 195.715,171.561 195.68,171.64ZM155.33,175.58L155.33,181.18C155.33,181.531 155.619,181.82 155.97,181.82L161.08,181.82C161.081,181.82 161.082,181.82 161.083,181.82C161.16,181.82 161.223,181.757 161.223,181.68C161.223,181.647 161.211,181.615 161.19,181.59L156.01,175.33C155.974,175.285 155.928,175.249 155.877,175.225C155.688,175.137 155.458,175.224 155.367,175.418C155.344,175.469 155.331,175.524 155.33,175.58ZM203.64,181.83L213.94,181.79C214.011,181.79 214.07,181.731 214.07,181.66L214.07,181.54C214.058,179.012 212.289,176.94 210.15,176.95L207.39,176.95C205.252,176.96 203.501,179.046 203.51,181.574C203.51,181.576 203.51,181.578 203.51,181.58L203.51,181.7C203.51,181.771 203.569,181.83 203.64,181.83ZM26.3,181.37C26.28,181.411 26.27,181.455 26.27,181.5C26.27,181.661 26.399,181.794 26.56,181.8L36.68,181.8C36.844,181.8 36.98,181.664 36.98,181.5C36.98,181.455 36.97,181.411 36.95,181.37L35.23,177.69C35.18,177.586 35.075,177.52 34.96,177.52L28.4,177.52C28.285,177.52 28.18,177.586 28.13,177.69L26.3,181.37ZM74.7,181.78L84.7,181.84C84.782,181.84 84.85,181.772 84.85,181.69C84.85,181.69 84.85,181.539 84.85,181.539C84.862,179.301 83.233,177.45 81.241,177.44C81.241,177.44 81.24,177.44 81.24,177.44L78.2,177.42C76.209,177.41 74.562,179.243 74.55,181.48L74.55,181.63C74.55,181.712 74.618,181.78 74.7,181.78Z" style="fill:rgb(0,0,0);fill-rule:nonzero;"/>
    </g>
</svg>
