<svg xmlns="http://www.w3.org/2000/svg" viewBox="0 0 1350 370.72">
<path d="M9407.72 335.539c-106.89-80.551-239.48-102.809-364.87-65.039 104.7 14.891 258.29 48.738 421.14 116.141-16.93-18.5-35.74-35.582-56.27-51.102zm236.82 1093.191c18.65 24.3 35.58 34.64 44.2 37.31 9.71-24.77-5.18-124.6-112.54-279.45 4.71 142.93 48.9 216.44 68.34 242.14zm-2852.33-214.4c269.11 452.79 508.59 818.28 570.34 839.28 5.33-.15 8-1.25 8.31-1.56.16-.16 12.38-22.41-32.13-113.48-89.18-182.58-312.52-470.34-546.52-724.24zM5101.1 1139.1c-38.55-9.25-74.44-12.7-105.01-7.53-113.78 19.44-130.24 102.82-129.77 150.94 56.11 22.25 119.74 34.48 190.9 29.77 4.54-.31 7.83-.47 9.87-.47 23.2 0 33.38-4.23 37.3-6.74l34.01 54.08c-17.55 11.12-40.9 16.45-71.15 16.45-1.26 0-3.29.16-5.8.32-62.54 4.23-123.66-2.98-182.28-21.01 29.47 85.74 106.89 162.53 210.33 162.53 29.78 0 50.94-8.77 64.73-26.64 13.8-18.02 21.16-47.02 21.16-83.54 0-72.25-27.58-168.64-74.29-268.16zm-113.94-193.721c-125.7-174.91-265.81-275.219-384.46-275.219-47.49 0-79.93 18.031-96.23 53.289-45.45 98.43 36.05 273.34 140.12 394.961 39.34 46.24 92 96.08 157.35 133.85 9.25-82.13 60.03-162.85 181.34-183.53 24.76-4.24 51.41-4.24 79.3-.95a1234.202 1234.202 0 0 0-77.42-122.401zm2762.99 365.341c-10.03-36.21-63.01-130.4-178.52-260.49-58.77-66.449-115.51-122.402-169.11-168.949 52.97 182.899 230.55 412.199 347.63 429.439zm253.27-154.07c318.48 592.6 525.2 845.24 606.23 889.6-32.13-124.76-317.85-626.45-653.4-1010.91-5.8-6.58-11.6-13.32-17.4-19.75 16.46 44.52 38.08 91.85 64.57 141.06zm497.93 0c318.48 592.44 525.2 845.09 606.23 889.6-22.72-87.77-170.52-365.49-394.02-679.58-96.07-134.79-188.86-252.65-275.68-350.61 15.98 44.52 37.3 91.69 63.47 140.59zm635.85 153.91c-19.9-63.79-166.29-258.45-341.98-415.021 57.52 179.611 227.89 396.841 341.98 415.021zM9909.47 771c-96.86-119.898-171.52-169.641-289.54-237.82 31.35 100.781 32.91 214.25 1.26 329.601-23.2 84.321-36.05 157.829-41.7 221.459 145.14 185.57 196.39 338.85 167.08 408.6-10.03 23.82-30.25 37.93-53.92 37.93-32.13 0-68.17-23.04-98.89-63.32-33.54-44.04-93.73-153.91-80.09-363.77-31.5-38.72-68.18-79.94-110.81-123.66-154.38-157.989-292.77-230.239-381.64-263.149-74.76-27.59-127.73-32.762-147.95-33.699h-.16c-34.16.629-59.24 9.719-74.91 26.957-15.05 16.609-22.73 42-22.73 75.391 0 3.601 0 7.359.16 10.968 89.02 71.782 163.47 147.793 203.59 190.742 24.61 26.33 239.17 259.54 223.03 347.94-4.39 24.6-24.3 40.43-50.31 40.43-173.97 0-408.13-329.76-437.28-547.139-68.65-53.289-139.33-97.492-207.04-123.5l-48.12-3.289c-22.72 13.937-39.02 36.199-48.42 66.289-10.19 32.91-12.23 73.039-6.27 118.648 139.02 143.401 270.2 315.961 359.69 441.501 110.81 155.48 215.03 319.42 293.56 461.42 81.81 147.79 120.68 244.02 115.82 286.18-3.29 28.84-24.45 41.69-44.04 41.69-44.36 0-126.33-33.85-325.06-326.46-107.36-158.3-238.39-378.51-359.69-604.04-51.88-96.55-85.58-188.861-99.68-269.888-126.17-127.891-236.2-207.043-320.67-228.352l-32.92-.16c-36.36 7.371-61.43 26.172-76.48 57.52-16.61 34.32-20.22 81.339-12.07 137.609 125.23 128.361 242.93 279.291 326.78 394.021 241.84 331.17 446.37 692.74 446.37 789.44 0 12.54-2.98 23.04-8.62 31.51-7.99 12.06-21.16 18.8-35.89 18.8-44.51 0-126.48-33.85-325.06-326.46-107.36-158.3-238.54-378.51-359.85-604.04-53.29-99.37-87.93-192.15-102.97-272.548-147.64-148.903-271.77-229.77-356.88-231.18-35.42.308-61.28 9.398-77.26 26.957-15.05 16.609-22.73 42-22.73 75.391v1.089c58.77 46.243 110.65 94.512 149.83 133.692 135.11 134.789 278.67 321.459 278.67 402.009 0 18.97-7.21 30.72-13.32 37.46-6.58 7.21-18.81 15.83-38.87 15.83-176.48 0-415.02-339.79-438.37-556.862-130.09-97.168-236.98-135.726-306.72-135.726-18.18 0-49.69 2.199-56.74 17.707-6.74 14.422-13.79 78.679 174.91 301.241 71 83.69 184.16 236.97 144.66 322.24-10.81 23.35-37.46 51.4-102.03 51.4-63.94 0-145.13-29.78-235.25-88.39 252.18 290.1 492.6 623 492.6 754.34 0 22.72-6.58 41.22-19.43 54.7-13.48 14.1-32.45 21.15-56.11 21.15-34.8 0-99.37 0-544.17-738.04-74.45-123.66-147.48-247.94-211.11-357.65-199.83-195.761-383.36-338.698-470.04-338.698-44.35 0-76.95 9.879-97.01 29.308-17.55 16.93-26.33 42.321-26.33 75.7 0 47.96 18.18 108.3 50.31 171.621 15.51 26.019 27.27 47.329 34.48 60.809 21.16 34.01 45.92 68.02 73.51 100.47 101.09 119.42 213.46 190.89 300.6 190.89 44.98 0 48.9-22.1 50.31-30.4 8.94-51.41-53.6-158.46-155-195.13l-22.29-73.28 43.92 13.25c128.67 46.39 211.11 181.18 196.38 266.13-9.09 52.19-51.57 83.22-113.32 83.22-107.36 0-234.62-77.73-349.35-213.46-27.74-32.76-52.82-66.77-74.6-100.78l-.47.31c-1.1-2.19-2.35-4.39-3.61-6.74-14.41-22.88-27.42-45.92-38.71-68.489-83.38-139.332-208.6-303.429-291.04-303.429-25.39 0-30.1 9.09-31.82 12.539-22.41 44.98 50.62 245.758 276.47 560.309 25.08 33.54 77.44 111.61 77.44 111.61l-78.22-4.56c-10.19-13.79-26.49-35.74-46.71-63.79-194.34-261.27-498.4-616.108-615.63-616.108-54.23 0-63.48 20.07-66.46 26.648-11.12 23.981-18.96 106.102 145.76 349.82 94.35 139.49 198.89 262.21 199.99 263.46l-24.29 20.69-.16.16-19.44 25.07c-64.25-49.68-211.42-149.67-347.78-203.43 36.21 88.86 56.74 173.5 56.74 241.83 0 51.57-11.6 92.79-34.48 122.56-18.18 23.36-52.82 51.41-115.36 51.41-153.12 0-262.05-128.52-283.21-255.31-75.07-36.36-145.29-92-208.29-165.98-141.06-165.19-201.08-351.229-149.52-463.292 26.8-58.296 81.66-90.277 154.22-90.277 139.49 0 298.41 109.867 436.34 301.711 41.06 57.199 77.11 117.388 107.04 177.098 86.36 25.71 176.79 72.41 251.71 117.39-24.61-33.07-50.78-69.43-76.17-106.89-136.67-202.02-186.04-336.961-151.09-412.668 13.32-29.153 45.92-63.942 124.45-63.942 91.53 0 236.66 131.02 372.54 280.539-44.19-96.379-67.7-183.211-42.94-232.578 10.81-21.793 35.26-47.961 88.87-47.961 78.67 0 163.93 80.711 234.93 171.149v-2.199c0-51.25 15.52-92.149 45.77-121.622 32.44-31.339 80.09-47.328 141.52-47.328 88.87 0 225.54 94.821 360.8 212.371-60.5-105.8-132.74-208.281-133.52-209.851l89.79 2.808c156.73 274.43 313.46 437.742 417.37 526.302 118.17 100.93 233.68 161.11 309.07 161.11 13.95 0 38.24-1.88 44.04-14.57 14.11-30.25-27.9-127.11-135.41-253.9-158.93-187.449-215.66-301.391-184.16-369.57 16.77-36.211 55.48-54.7 114.73-54.7 101.56 0 211.42 54.7 308.75 122.879 5.65-30.097 17.56-55.168 35.58-74.918 28.06-30.883 69.12-46.859 121.94-47.801.47-.16 1.09-.16 1.72-.16h3.45v.16c102.5 2.661 225.38 85.411 345.9 198.098 1.25-37.769 8.62-71 21.94-99.047 24.3-50.312 67.71-82.601 125.54-93.261l2.98-.469 46.39.32 3.45.777c92.94 21.942 198.26 97.332 302.33 195.293 1.1-26.179 5.02-50.312 11.76-72.101 15.36-49.371 45.76-86.668 87.61-108.141l7.84-4.078 75.85 5.168 4.39 1.731c63.48 23.82 127.89 62.378 188.39 105.949 5.02-33.391 17.24-60.969 36.83-82.438 26.02-28.531 63.16-44.511 110.5-47.332v-.629c1.09 0 4.54-.16 10.18.16 2.04-.16 4.24-.16 6.43-.16v.309c63.01 3.141 295.12 34.332 570.34 315.973 26.8 27.269 51.56 54.226 74.76 80.708 7.52-51.72 19.28-108.29 36.36-170.201 35.42-129.148 24.45-255.468-26.96-359.23-305.62-149.52-601.37-162.207-608.42-162.207h-.16c-15.36.469-28.68-9.41-33.07-23.832-4.23-14.57 1.88-30.399 14.73-38.238 81.66-49.372 170.06-73.821 257.35-73.821 100.16 0 198.58 32.129 283.21 96.078 56.43 42.782 101.72 95.762 134.48 155.789 149.83 76.172 299.51 183.063 419.25 331.321l-90.53-.719" style="fill:#000000;fill-opacity:1;fill-rule:nonzero;stroke:none" transform="matrix(.13333 0 0 -.13333 0 370.72)"></path>
<path d="M4196.41 547.121c-9.93 510.889 666.33 1560.569 1217.85 2051.929 13.37 11.91 15.72 31.82 5.34 46.41-10.52 14.79-30.67 19.25-46.24 9.92-675.3-404.96-1519.87-1504.63-1737.3-1796.528 14.28 404.318 510.16 1389.848 726.75 1749.128 8.64 14.25 5.82 32.61-6.69 43.66-12.51 11.04-31.05 11.58-44.17 1.22-335.74-265.75-566.68-666.32-811.17-1090.42C3044.04 770.18 2571.71-48.98 1362.59 76.75l-6.62-63.531C1440.54 4.422 1522.69 0 1602.64 0c449.71 0 827.93 139.68 1150.5 423.691C3087.99 718.5 3325.97 1131.3 3556.12 1530.53c207.71 360.29 405.53 703.4 664.5 956.58-224.49-408.38-713.61-1377.42-641.53-1723.532l14.74-70.797 42.41 58.578c8.98 12.422 792.11 1089.041 1494.13 1653.601-198.51-218.63-403.13-489.83-573.48-764.17-161.38-259.88-431.1-747.7-424.35-1094.899 2.45-125.961 42-220.539 117.56-281.102l38.54-32.168 1.41 82.027c-60.07 48.141-91.58 126.364-93.64 232.473" style="fill:#000000;fill-opacity:1;fill-rule:nonzero;stroke:none" transform="matrix(.13333 0 0 -.13333 0 370.72)"></path>
<path d="M692.594 733.359c146.211 138.532 313.896 338.781 502.366 600.081 67.19-16.93 130.25-24.25 189.14-24.24 301.96.03 493.23 192.52 556.27 267.73 113.89 135.89 160.98 287.17 111.98 359.68l-52.93-35.76c24.15-35.74.06-153.94-108.01-282.88-67.21-80.18-293.95-306.14-656.11-228.11 53.7 75.74 109.03 156.28 165.98 241.6 237.98 356.53 449.46 716.06 570.46 927.93 412.03-72.46 651.16-329.62 657.1-708.25 10.06-640.55-569.24-1182.378-1116.61-1286.558-365.15-69.512-606.808 56.359-819.636 168.777Zm371.226 713.361c-235.257 104.66-337.16 319.23-265.933 560 51.754 174.96 188.199 335.23 374.353 439.71 118.11 66.3 300.53 135.11 548.8 135.11 57.44 0 118.44-3.68 182.95-11.94-122.21-213.26-326.81-559.57-556.07-903.02-62.71-93.95-122.24-180.27-178.69-259.48-34.05 10.42-69.2 23.52-105.41 39.62zM284.672 565.141c-92.828 0-145.676 21.05-173.656 38.699-30.395 19.172-47.133 44.32-47.133 70.82 0 63.852 92.48 129.879 247.234 129.879 87.578 0 175.137-36.828 271.457-85.809-137.261-117.109-232.5-153.589-297.902-153.589ZM2376.35 1019.62c205.41 252.04 320.72 555.48 316.37 832.52-6.37 405.43-256.19 682.57-687.56 766.06 46.13 81.58 97.08 160.62 97.97 162.24h-80.62c-.95-1.74-31.52-57.83-84.4-151.01-374.27 54.05-639.51-38.83-797.14-127.29-200.532-112.56-347.907-286.53-404.341-477.29-81.024-273.91 34.398-517.8 301.231-636.49 31.45-13.99 62.16-25.89 92.12-35.88-204.277-281.87-367.003-468.031-496.304-588.171-112.426 58.32-214.008 104.113-322.559 104.113C106.867 868.422 0 770.949 0 674.66c0-49.219 27.324-93.551 76.926-124.851 50.347-31.758 122.183-48.547 207.746-48.547 97.32 0 216.82 62.328 357.816 186.308 5.27-2.769 10.551-5.57 15.871-8.379C829.121 588.98 1033.47 481.012 1309.95 481.02c66.99 0 138.23 6.339 214.22 20.8 328.34 62.5 630.98 246.379 852.18 517.8M4810.66 283.469l-22.57 9.23c-16.41 6.742-24.62 15.641-24.62 26.68 0 8.012 3.13 14.66 9.38 19.922 6.25 5.379 14.12 8.078 23.6 8.078 7.71 0 14.02-1.578 18.9-4.688 4.69-2.75 9.63-8.613 14.8-17.601l27.7 16.422c-14.65 25.41-35.03 38.109-61.11 38.109-19.35 0-35.52-5.769-48.51-17.301-13-11.441-19.5-25.648-19.5-42.648 0-25.211 15.49-44.363 46.46-57.453l21.84-9.078c5.67-2.45 10.55-5.02 14.66-7.7 4.1-2.703 7.45-5.57 10.04-8.652 2.59-3.078 4.49-6.449 5.72-10.117 1.21-3.652 1.82-7.684 1.82-12.09 0-10.941-3.51-19.973-10.55-27.113-7.03-7.117-15.88-10.688-26.52-10.688-13.49 0-23.75 4.879-30.78 14.649-3.91 5.09-6.65 14.269-8.21 27.558l-34.59-7.629c3.13-21.109 10.99-37.461 23.6-49.089 12.8-11.629 29.02-17.45 48.66-17.45 20.71 0 38.05 6.84 52.03 20.532 13.87 13.57 20.81 30.769 20.81 51.578 0 15.531-4.25 28.66-12.75 39.351-8.5 10.707-21.94 19.77-40.31 27.188M5133.02 148.93h34.15v226.281h-34.15V148.93M5614.68 217.961l-165.02 172.648V148.93h34.15v158.429l165.02-172.211v240.063h-34.15v-157.25M5950.52 338.141c-19.05-22.571-28.57-48.27-28.57-77.09 0-32.16 11.38-59.602 34.15-82.36 22.86-22.57 50.46-33.871 82.8-33.871 21.5 0 42.01 5.52 61.56 16.559v41.191c-5.58-4.691-10.88-8.699-15.91-12.019-5.02-3.321-9.89-5.961-14.58-7.91-8.4-3.922-18.61-5.86-30.63-5.86-23.25 0-42.89 8.16-58.92 24.469-16.02 16.32-24.03 36.352-24.03 60.09 0 24.039 8.01 44.359 24.03 60.969 15.93 16.711 35.52 25.07 58.78 25.07 21.1 0 41.52-8.258 61.26-24.777v40.449c-18.96 11.039-38.6 16.57-58.91 16.57-37.24 0-67.57-13.832-91.03-41.48M6371.66 148.93h124.88v32.09h-90.73v75.64h88.09v32.09h-88.09v54.371h90.73v32.09h-124.88V148.93M7105.34 343.27h39.13V148.93h34.15v226.281h-54.52l-18.76-31.941M7574.98 274.969c-8.29-8.309-18.36-12.457-30.18-12.457-11.83 0-21.93 4.199-30.34 12.609-8.3 8.301-12.46 18.559-12.46 30.77 0 11.437 4.2 21.347 12.61 29.757 8.29 8.301 18.31 12.454 30.04 12.454 11.92 0 22.04-4.153 30.33-12.454 8.41-8.41 12.62-18.519 12.62-30.347 0-11.813-4.21-21.93-12.62-30.332zm-30.77 104.062c-20.72 0-38.5-7.422-53.35-22.281-14.75-14.75-22.13-32.531-22.13-53.34 0-19.551 6.65-36.262 19.94-50.14 13.38-13.969 29.2-20.942 47.48-20.942 1.26 0 2.94.082 4.98.281 2.05.2 4.54.493 7.48.891l-54.08-73.73 25.05-18.61 79.01 107.289c14.85 20.41 22.27 39.422 22.27 57 0 19.84-7.62 37.039-22.86 51.602-15.24 14.648-33.17 21.98-53.79 21.98M7975.9 222.641c9.77 11.531 17.85 21.531 24.25 29.988 6.4 8.441 11.26 15.742 14.59 21.91 6.54 11.813 9.82 23.883 9.82 36.191 0 19.34-7.04 35.559-21.11 48.661-13.98 13.089-31.27 19.64-51.88 19.64-42.7 0-66.78-23.84-72.26-71.519h34c3.32 27.07 16.42 40.59 39.28 40.59 10.94 0 20.13-3.571 27.56-10.692 7.43-7.14 11.13-15.98 11.13-26.531 0-7.328-2.78-15.578-8.35-24.77-2.74-4.687-6.72-10.5-11.95-17.437-5.23-6.942-11.69-15.152-19.41-24.633l-78.56-95.109h151.98v32.09h-84.27l35.18 41.621M8286.68 343.27h111.68L8285.5 158.309l27.12-17.149 142.75 234.051h-168.69V343.27M2528.37 619.102c-79.74 0-113.67 35.628-128.08 65.5-81.77 169.468 275.93 627.318 316.99 678.958l50.02-39.74c-145.44-182.99-358.05-510.808-309.47-611.461 3.5-7.257 14.17-29.371 70.54-29.371 216.17 0 519.79 487.652 618.55 675.562l73.39-1.49c-15.23-28.99-393.27-737.958-691.94-737.958" style="fill:#000000;fill-opacity:1;fill-rule:nonzero;stroke:none" transform="matrix(.13333 0 0 -.13333 0 370.72)"></path>
</svg>
