<?xml version="1.0" encoding="UTF-8" standalone="no"?>
<!DOCTYPE svg PUBLIC "-//W3C//DTD SVG 1.1//EN" "http://www.w3.org/Graphics/SVG/1.1/DTD/svg11.dtd">
<svg xmlns="http://www.w3.org/2000/svg" version="1.1" viewBox="0.00 0.00 709.00 148.00">
<g fill="#000000">
<path d="
  M 427.90 0.00
  Q 407.70 28.68 389.82 58.54
  Q 373.00 86.64 363.34 116.62
  C 361.94 120.97 360.59 129.88 363.71 133.62
  C 367.24 137.85 371.95 135.86 375.98 132.97
  A 1.15 1.12 -16.6 0 0 376.46 132.11
  C 376.67 129.30 376.33 124.80 376.73 121.31
  Q 378.78 103.15 393.49 91.75
  Q 401.43 85.60 411.23 86.31
  C 419.75 86.93 419.45 97.61 418.14 103.86
  A 0.20 0.20 0.0 0 0 418.51 104.01
  L 429.49 86.76
  A 0.54 0.53 -73.3 0 1 429.94 86.51
  L 437.56 86.51
  A 0.08 0.08 0.0 0 1 437.63 86.64
  Q 425.99 104.25 417.42 119.89
  C 415.80 122.83 413.57 128.62 415.40 131.83
  C 418.93 138.05 426.55 129.92 428.83 126.82
  C 438.00 114.33 445.96 100.08 452.51 87.01
  A 0.47 0.47 0.0 0 1 452.93 86.75
  L 461.12 86.75
  A 0.11 0.10 -73.2 0 1 461.20 86.91
  Q 449.38 104.65 437.97 126.21
  Q 436.12 129.70 436.52 131.54
  A 1.67 1.64 -74.8 0 0 436.98 132.36
  C 441.00 136.17 445.20 130.68 446.77 127.23
  Q 448.15 124.22 450.58 116.31
  C 454.62 103.12 466.19 86.54 481.25 85.48
  Q 485.12 85.20 487.04 86.50
  C 492.18 89.99 488.59 100.75 482.20 100.56
  A 2.38 2.07 -88.2 0 1 480.21 98.12
  C 480.28 95.79 482.55 94.86 484.72 93.44
  A 1.71 1.70 33.9 0 0 484.11 90.34
  C 478.95 89.33 471.81 94.60 468.57 98.34
  Q 460.64 107.47 457.25 120.51
  C 455.92 125.64 454.84 133.01 461.29 134.41
  Q 463.52 134.89 466.78 133.50
  Q 475.13 129.93 480.39 122.64
  C 486.71 113.88 494.69 100.45 501.18 88.89
  Q 505.39 81.41 532.50 33.02
  Q 536.19 26.43 542.17 22.17
  C 543.47 21.24 547.02 20.17 548.74 20.51
  C 556.63 22.06 551.07 35.79 548.65 39.98
  Q 539.23 56.34 525.90 70.41
  Q 522.73 73.77 514.57 81.56
  Q 509.22 86.67 502.97 97.08
  A 0.23 0.23 0.0 0 0 503.26 97.40
  Q 503.78 97.16 505.70 95.74
  C 510.21 92.39 518.02 88.57 523.47 91.23
  Q 526.07 92.49 526.60 95.32
  C 527.85 101.88 523.77 109.35 519.34 114.52
  Q 515.20 119.35 514.36 120.66
  C 512.96 122.86 507.86 132.18 511.83 133.67
  C 518.01 135.99 523.19 120.28 524.80 115.58
  Q 525.13 114.62 528.37 107.68
  C 532.78 98.21 539.50 91.19 548.80 86.29
  C 552.28 84.46 561.34 81.84 561.40 88.74
  C 561.42 91.74 559.63 95.08 557.79 98.27
  Q 550.27 111.33 535.73 114.66
  Q 534.96 114.84 533.08 116.21
  C 528.68 119.44 526.94 126.76 527.66 131.14
  C 529.10 139.79 542.31 131.05 545.70 128.29
  Q 549.66 125.08 554.12 118.16
  Q 565.19 100.98 573.60 85.86
  Q 592.34 52.17 604.19 31.44
  Q 607.58 25.50 612.93 22.18
  C 616.57 19.93 622.78 19.03 623.39 25.09
  C 623.94 30.62 620.78 38.18 617.99 42.50
  Q 606.36 60.57 596.27 70.79
  C 589.07 78.08 581.84 84.14 575.71 93.72
  Q 565.83 109.14 558.31 123.56
  C 557.33 125.45 555.12 130.65 556.46 132.39
  C 559.24 136.00 568.85 127.30 571.06 125.14
  Q 573.66 122.58 575.71 119.67
  C 595.65 91.24 614.56 54.73 628.62 30.67
  Q 632.08 24.75 637.90 21.65
  C 640.16 20.46 644.01 19.60 645.96 21.83
  C 649.87 26.28 645.11 37.20 642.39 41.67
  Q 633.09 56.97 620.88 70.14
  Q 618.49 72.71 607.53 83.28
  C 605.06 85.65 601.88 90.19 599.72 93.69
  Q 588.41 111.97 581.31 128.04
  Q 580.47 129.92 580.64 131.02
  A 1.59 1.58 -14.1 0 0 582.74 132.27
  C 587.20 130.68 590.45 125.33 592.14 121.16
  Q 595.71 112.30 596.96 109.47
  C 599.05 104.69 601.80 99.23 605.68 94.95
  C 610.70 89.43 618.86 82.81 626.75 82.60
  C 631.63 82.47 632.46 86.34 631.01 90.26
  Q 624.29 108.37 605.97 113.01
  A 4.32 4.04 20.3 0 0 604.92 113.45
  Q 599.11 116.93 597.96 124.75
  Q 597.34 128.96 597.89 131.33
  C 599.15 136.72 604.56 136.47 608.19 133.94
  C 613.24 130.41 618.44 125.27 622.36 120.73
  Q 637.22 103.56 649.44 82.74
  A 1.34 1.33 -81.1 0 1 650.28 82.12
  Q 651.20 81.89 652.32 82.01
  A 0.53 0.53 0.0 0 1 652.77 82.70
  Q 650.89 88.71 652.34 95.39
  C 654.11 103.56 655.92 112.05 655.43 120.42
  A 0.37 0.37 0.0 0 0 656.01 120.74
  C 669.94 110.73 690.97 101.07 708.30 108.27
  A 0.44 0.44 0.0 0 1 708.54 108.84
  Q 708.28 109.49 707.72 109.40
  C 688.81 106.60 670.50 113.33 655.81 125.17
  A 8.17 7.99 -2.9 0 0 654.21 126.90
  C 649.38 134.05 642.66 139.73 633.78 140.08
  C 626.61 140.36 622.17 135.89 620.69 129.21
  A 0.47 0.46 -26.4 0 0 619.94 128.96
  Q 614.54 133.49 611.05 136.05
  C 604.01 141.24 595.98 140.79 591.89 131.94
  A 0.56 0.56 0.0 0 0 591.02 131.75
  C 587.43 134.80 582.47 137.80 577.96 136.53
  Q 573.29 135.20 573.49 128.96
  A 0.23 0.23 0.0 0 0 573.12 128.77
  C 567.22 133.56 553.67 144.14 549.07 130.93
  A 0.63 0.63 0.0 0 0 548.09 130.64
  Q 539.91 136.91 530.81 138.44
  Q 525.33 139.36 520.91 134.53
  A 0.51 0.50 -39.7 0 0 520.23 134.47
  C 516.04 137.65 509.96 140.52 505.89 136.42
  C 500.59 131.08 504.39 123.64 508.05 118.63
  Q 515.73 108.09 519.11 100.42
  Q 520.32 97.68 520.28 96.04
  A 2.14 2.13 84.6 0 0 517.80 93.98
  C 509.59 95.31 501.13 102.96 496.77 109.80
  C 492.11 117.14 489.25 122.98 484.91 132.21
  C 482.65 137.00 478.22 139.89 473.23 136.41
  A 1.15 1.14 49.9 0 0 472.12 136.31
  C 465.05 139.60 453.42 141.06 450.03 131.72
  A 0.42 0.42 0.0 0 0 449.36 131.54
  C 445.69 134.69 442.88 137.02 438.78 137.75
  C 435.00 138.42 432.17 136.13 431.00 132.74
  A 0.42 0.42 0.0 0 0 430.33 132.56
  Q 426.32 136.01 422.44 137.40
  C 413.82 140.48 409.14 135.50 408.77 127.23
  Q 408.73 126.40 409.21 122.26
  A 0.16 0.16 0.0 0 0 408.92 122.15
  C 403.50 129.47 397.13 138.23 387.30 138.72
  Q 384.04 138.88 379.29 136.48
  A 0.99 0.96 -42.8 0 0 378.47 136.46
  C 373.70 138.58 369.65 140.23 364.52 139.53
  C 355.50 138.32 351.82 129.80 352.94 121.45
  C 354.73 108.10 361.18 93.52 367.93 82.19
  Q 387.83 48.75 409.75 16.79
  A 0.30 0.30 0.0 0 0 409.30 16.39
  C 397.91 26.58 387.41 38.07 376.86 50.78
  Q 335.17 100.96 303.91 138.64
  A 0.16 0.16 0.0 0 1 303.69 138.66
  L 303.68 138.65
  A 0.20 0.18 -53.4 0 1 303.65 138.38
  Q 306.45 134.53 309.44 129.44
  Q 320.05 111.34 329.21 92.43
  Q 340.71 68.69 343.81 62.93
  Q 351.70 48.26 361.20 31.34
  A 0.15 0.15 0.0 0 0 360.95 31.17
  Q 355.21 38.01 336.37 60.45
  C 315.83 84.92 302.75 100.91 284.57 116.81
  C 268.57 130.79 250.94 143.64 229.49 146.89
  Q 219.12 148.46 209.86 145.87
  C 197.05 142.29 187.33 130.71 184.90 117.66
  Q 181.70 100.56 190.51 86.12
  A 3.12 3.08 -30.6 0 0 190.95 84.46
  Q 190.35 57.11 211.97 40.71
  Q 227.44 28.98 247.76 29.74
  A 1.52 1.51 -8.1 0 1 249.14 30.77
  L 249.21 30.96
  A 0.77 0.76 -8.8 0 1 248.47 31.97
  Q 222.53 31.32 206.27 50.05
  C 199.10 58.32 195.93 68.50 195.06 78.89
  A 0.16 0.15 68.5 0 0 195.33 79.01
  Q 218.36 53.16 252.32 46.86
  C 265.35 44.44 284.16 45.09 288.55 60.73
  C 289.47 64.02 289.21 70.83 288.16 74.48
  C 282.87 92.90 266.28 104.88 249.26 111.48
  C 236.99 116.24 222.05 116.55 210.32 111.72
  C 202.95 108.69 195.79 101.77 192.89 93.81
  A 0.43 0.43 0.0 0 0 192.16 93.68
  Q 188.42 97.94 187.73 103.99
  C 186.12 118.01 192.92 134.74 207.09 139.82
  C 239.39 151.39 273.29 123.04 294.12 102.37
  Q 319.17 77.51 336.11 56.35
  Q 354.76 33.08 362.98 23.98
  Q 374.29 11.46 389.09 1.35
  A 0.57 0.56 2.2 0 1 389.85 2.17
  Q 378.58 16.21 369.92 31.40
  C 358.44 51.52 353.08 63.64 341.31 88.70
  A 0.13 0.13 0.0 0 0 341.53 88.84
  Q 368.44 56.11 378.01 44.51
  Q 391.24 28.46 406.56 14.81
  Q 415.70 6.68 425.90 0.00
  L 427.90 0.00
  Z
  M 519.23 71.03
  C 531.17 59.39 542.75 46.18 549.12 31.39
  Q 550.40 28.42 550.25 25.68
  A 2.07 1.86 89.5 0 0 548.48 23.75
  Q 547.41 23.69 546.31 24.82
  Q 543.38 27.83 538.52 35.27
  Q 527.21 52.58 518.90 70.81
  A 0.20 0.20 0.0 0 0 519.23 71.03
  Z
  M 590.01 70.88
  C 601.91 59.29 613.45 46.14 619.81 31.40
  Q 621.09 28.45 620.94 25.72
  A 2.06 1.85 89.5 0 0 619.18 23.79
  Q 618.11 23.73 617.01 24.86
  Q 614.09 27.85 609.25 35.26
  Q 597.97 52.50 589.68 70.66
  A 0.20 0.20 0.0 0 0 590.01 70.88
  Z
  M 613.70 71.84
  C 625.61 60.22 637.17 47.04 643.52 32.28
  Q 644.80 29.32 644.65 26.59
  A 2.06 1.86 89.5 0 0 642.89 24.66
  Q 641.82 24.60 640.72 25.73
  Q 637.80 28.73 632.95 36.15
  Q 621.66 53.43 613.37 71.62
  A 0.20 0.20 0.0 0 0 613.70 71.84
  Z
  M 196.35 89.93
  C 198.70 101.05 208.33 108.55 219.36 110.87
  Q 225.22 112.11 229.99 111.92
  C 243.51 111.37 255.96 105.55 267.02 97.29
  Q 277.08 89.80 281.98 79.31
  C 285.91 70.90 287.44 60.24 279.79 54.01
  C 271.97 47.64 255.96 48.95 246.05 51.61
  C 225.80 57.05 207.75 69.59 196.75 87.56
  A 3.28 3.25 -35.7 0 0 196.35 89.93
  Z
  M 607.87 108.38
  Q 620.32 103.98 627.11 92.27
  Q 627.98 90.78 627.77 89.21
  A 1.65 1.63 83.2 0 0 626.00 87.79
  C 618.36 88.52 610.30 102.14 607.40 107.84
  A 0.39 0.38 -86.3 0 0 607.87 108.38
  Z
  M 537.69 110.01
  Q 550.08 105.64 556.84 93.99
  Q 557.70 92.50 557.49 90.94
  A 1.65 1.62 83.2 0 0 555.73 89.53
  C 548.13 90.25 540.11 103.81 537.22 109.48
  A 0.39 0.38 -86.3 0 0 537.69 110.01
  Z
  M 407.35 113.21
  A 1.21 1.20 33.1 0 0 408.75 112.92
  C 413.26 107.91 416.11 99.44 413.33 92.93
  C 411.79 89.31 408.23 90.17 406.17 92.87
  C 402.17 98.10 399.57 109.63 407.35 113.21
  Z
  M 634.76 112.08
  C 638.39 116.55 635.45 122.70 629.41 121.03
  A 1.29 1.27 26.5 0 0 628.07 121.47
  C 625.93 124.19 623.40 128.39 625.10 131.66
  C 627.08 135.48 631.04 136.76 635.10 135.34
  C 641.52 133.10 645.00 127.47 646.00 120.75
  Q 647.03 113.85 646.69 107.45
  C 646.43 102.65 646.51 98.55 646.54 94.64
  A 0.62 0.62 0.0 0 0 645.40 94.30
  L 634.71 111.09
  A 0.86 0.84 -48.5 0 0 634.76 112.08
  Z
  M 398.19 97.50
  Q 386.24 108.62 382.68 124.73
  Q 381.89 128.26 382.67 131.09
  C 384.35 137.15 390.82 134.06 393.91 131.38
  Q 400.38 125.76 405.38 118.13
  A 0.53 0.52 -60.2 0 0 405.18 117.37
  C 397.97 113.72 397.54 104.90 398.59 97.70
  A 0.24 0.23 -17.6 0 0 398.19 97.50
  Z"
/>
<path d="
  M 0.00 141.62
  L 0.00 139.77
  C 1.77 133.79 10.21 132.31 15.73 131.69
  C 25.31 130.60 35.32 130.97 44.41 131.76
  A 1.82 1.79 -58.2 0 0 45.56 131.48
  C 53.43 126.37 59.68 117.59 64.41 109.42
  Q 74.42 92.13 87.49 67.73
  C 96.35 51.18 104.72 36.03 115.75 22.24
  A 0.43 0.43 0.0 0 0 115.67 21.62
  Q 103.64 12.89 88.27 11.39
  C 71.84 9.78 56.19 12.56 42.26 22.06
  Q 27.14 32.37 21.45 49.97
  C 18.48 59.18 18.98 68.46 25.35 76.11
  Q 30.02 81.70 36.33 83.12
  C 51.14 86.46 65.66 78.27 74.84 67.09
  C 79.21 61.77 82.76 54.19 82.17 47.50
  C 81.59 40.81 76.94 34.58 70.23 32.86
  C 60.02 30.24 49.67 37.76 42.64 44.13
  A 0.21 0.21 0.0 0 1 42.30 44.06
  L 41.60 42.48
  A 0.52 0.52 0.0 0 1 41.67 41.94
  C 49.14 33.07 61.39 26.14 72.97 29.14
  Q 81.11 31.24 84.42 39.14
  C 88.20 48.17 84.30 59.12 78.71 66.45
  C 69.57 78.44 53.24 88.48 37.46 87.10
  C 14.13 85.06 11.91 60.43 19.85 43.61
  C 37.54 6.14 84.49 -0.47 118.71 16.95
  A 0.91 0.90 -50.1 0 0 119.66 16.86
  L 130.74 8.22
  A 1.19 1.18 25.6 0 1 131.47 7.97
  L 133.64 7.97
  A 0.30 0.30 0.0 0 1 133.88 8.45
  L 125.75 19.71
  A 0.83 0.82 -51.1 0 0 125.86 20.80
  Q 131.97 26.40 133.81 28.42
  Q 152.31 48.79 150.69 76.49
  Q 150.56 78.76 149.35 87.41
  A 0.52 0.51 4.3 0 0 149.86 88.00
  L 158.64 88.00
  A 0.41 0.41 0.0 0 1 158.97 88.66
  Q 147.20 104.35 139.39 119.86
  Q 136.75 125.11 137.80 129.84
  Q 138.71 133.96 143.02 133.41
  C 147.05 132.88 153.30 124.27 155.29 121.04
  Q 164.99 105.29 175.37 89.45
  A 0.33 0.30 14.9 0 1 175.64 89.31
  L 183.21 89.31
  A 0.17 0.16 17.6 0 1 183.35 89.57
  Q 174.48 101.73 162.78 121.80
  Q 160.20 126.22 158.58 131.33
  A 0.89 0.89 0.0 0 0 159.50 132.49
  C 162.74 132.26 168.98 127.27 171.66 125.06
  A 0.81 0.80 53.9 0 1 172.84 125.25
  L 172.86 125.28
  A 1.13 1.11 51.6 0 1 172.71 126.68
  C 169.94 129.44 151.59 146.62 150.67 134.08
  A 0.35 0.35 0.0 0 0 150.11 133.82
  Q 144.33 137.91 139.52 138.47
  C 133.41 139.17 129.20 134.62 128.42 129.17
  Q 127.51 122.82 131.15 116.69
  A 0.13 0.13 0.0 0 0 130.95 116.53
  C 108.20 136.42 75.98 142.58 46.63 137.80
  A 1.57 1.51 35.6 0 0 45.74 137.93
  Q 34.58 143.38 23.94 145.89
  C 17.33 147.45 3.28 148.95 0.00 141.62
  Z
  M 54.38 131.44
  Q 67.56 133.34 81.23 131.21
  C 105.56 127.42 129.93 112.51 139.39 89.24
  Q 149.08 65.42 135.93 42.48
  Q 130.68 33.33 121.84 27.25
  A 0.93 0.92 33.4 0 0 120.54 27.51
  C 107.31 48.17 96.56 73.08 84.43 93.18
  Q 71.74 114.22 54.30 131.19
  A 0.15 0.15 0.0 0 0 54.38 131.44
  Z
  M 32.82 136.99
  A 0.38 0.37 33.9 0 0 32.68 136.31
  C 26.58 135.16 11.33 133.28 6.24 138.72
  A 1.61 1.58 44.4 0 0 6.28 140.92
  Q 7.36 142.01 9.02 142.23
  Q 22.05 143.95 32.82 136.99
  Z"
/>
</g>
</svg>
