<?xml version="1.0" encoding="utf-8"?>
<!-- Generator: Adobe Illustrator 27.9.0, SVG Export Plug-In . SVG Version: 6.00 Build 0)  -->
<svg version="1.1" id="Layer_1" xmlns="http://www.w3.org/2000/svg" xmlns:xlink="http://www.w3.org/1999/xlink" x="0px" y="0px"
	 viewBox="0 0 500 500" style="enable-background:new 0 0 500 500;" xml:space="preserve">
<style type="text/css">
	.st0,.st1,.st2,.st3,.st4,.st5,.st6,.st7,.st8,.st9,
	.st10,.st11,.st12,.st13,.st14,.st15,.st16,.st17,.st18,.st19,
	.st20,.st21,.st22,.st23,.st24,.st25,.st26,.st27,.st28,.st29,
	.st30,.st31,.st32,.st33,.st34,.st35,.st36,.st37,.st38,.st39,
	.st40,.st41,.st42,.st43,.st44,.st45,.st46,.st47,.st48,.st49,
	.st50,.st51,.st52,.st53,.st54,.st55,.st56,.st57,.st58,.st59,
	.st60,.st61,.st62,.st63,.st64,.st65,.st66,.st67,.st68,.st69,
	.st70,.st71,.st72,.st73,.st74,.st75,.st76,.st77,.st78,.st79,
	.st80,.st81,.st82,.st83,.st84,.st85,.st86,.st87,.st88,.st89,
	.st90,.st91,.st92,.st93,.st94,.st95,.st96,.st97,.st98,.st99,
	.st100,.st101,.st102,.st103,.st104,.st105,.st106{fill:#000000;}
</style>
<g id="logotype">
	<path class="st0" d="M65.2,353c-1.2,3.5-3,6.6-5.2,9.1s-4.8,4.5-8,5.9c-3.1,1.4-6.5,2.1-10.2,2.1c-3.2,0-6-0.5-8.6-1.6
		c-2.5-1.1-4.6-2.5-6.5-4.3V389H6.5v-75.4h20.4v5.3c1.6-1.9,3.7-3.3,6.3-4.5c2.4-1.2,5.4-1.8,8.8-1.8c3.7,0,7.1,0.7,10.2,2.1
		c3.1,1.4,5.7,3.4,8,5.9c2.2,2.5,3.9,5.6,5.2,9.1c1.2,3.5,1.9,7.5,1.9,11.6C67,345.6,66.5,349.5,65.2,353L65.2,353z M43.6,333.2
		c-1.9-2-4.4-3.1-7.7-3.1c-1.6,0-3.3,0.3-4.9,0.9c-1.6,0.5-3.1,1.3-4.1,2.2v16.1c1.2,1,2.6,1.8,4.3,2.3c1.6,0.5,3.2,0.8,4.8,0.8
		c3.2,0,5.7-1,7.6-3c1.9-2,2.9-4.7,2.9-8.1C46.3,338.1,45.3,335.3,43.6,333.2L43.6,333.2z M92.5,313.6v9.2c1.6-3.1,3.6-5.6,6.1-7.5
		c2.4-1.9,5.5-2.7,9.3-2.7c1.6,0,3.4,0.3,5.3,0.7c3.6,0.7,9.2,3.1,11.4,5.4l-8.4,17.2c-1.3-1.5-4.9-3.1-7.5-3.9
		c-1.5-0.5-3.4-0.7-5.2-0.7c-2.9,0-5.2,0.8-7.1,2.2c-1.9,1.4-3.2,3.3-3.8,5.6v30H72.2v-55.5L92.5,313.6L92.5,313.6z M116.2,329.7
		c1.5-3.6,3.6-6.7,6.3-9.3c2.6-2.6,5.8-4.7,9.4-6.1c3.6-1.5,7.6-2.2,12-2.2c4.3,0,8.3,0.8,12.1,2.2c3.7,1.5,6.9,3.5,9.5,6.1
		s4.7,5.7,6.3,9.3c1.5,3.6,2.3,7.5,2.3,11.7s-0.8,8-2.3,11.5s-3.6,6.6-6.3,9.2c-2.6,2.6-5.8,4.6-9.5,6.1c-3.7,1.4-7.7,2.2-12.1,2.2
		c-4.3,0-8.3-0.8-12-2.2c-3.6-1.4-6.8-3.5-9.4-6.1s-4.7-5.7-6.3-9.2c-1.5-3.5-2.3-7.3-2.3-11.5C113.8,337.3,114.6,333.3,116.2,329.7
		z M136.2,349c1.9,2.1,4.4,3.2,7.6,3.2c1.5,0,3-0.3,4.3-0.9c1.3-0.5,2.4-1.3,3.3-2.3c0.9-1,1.6-2.1,2.1-3.4s0.8-2.6,0.8-4.2
		c0-3.1-1-5.6-2.9-7.7s-4.5-3.2-7.7-3.2c-3.1,0-5.6,1.1-7.6,3.2c-1.9,2.1-2.9,4.6-2.9,7.7C133.4,344.4,134.4,346.9,136.2,349
		L136.2,349z M190.9,313.8c4.1-0.8,8.1-1.2,12.2-1.2c4.8,0,8.8,0.5,12.1,1.6c3.2,1.1,5.8,2.6,7.8,4.7s3.3,4.5,4.2,7.3
		c0.8,2.9,1.2,6.1,1.2,9.8v33h-19.8v-4.9c-1.8,1.6-3.8,3.1-6.4,4.3c-2.5,1.2-5.4,1.8-8.8,1.8c-5.6,0-9.9-1.5-12.7-4.5
		c-2.9-3-4.4-6.9-4.4-11.8c0-3.1,0.5-5.8,1.8-8.1c1.2-2.4,2.9-4.4,5-6c2.2-1.6,4.8-2.9,8-3.6c3.1-0.9,6.6-1.3,10.4-1.3
		c1.3,0,2.5,0,3.6,0.1c1.2,0.1,2.3,0.2,3.3,0.3v-0.1c0-2.3-0.5-3.8-1.8-4.8c-1.2-0.9-3.1-1.4-5.6-1.4c-3,0-6,0.3-9.3,1.1
		c-3.2,0.8-5.8,1.5-7.9,2.3l-3.4-15.6C183.4,315.6,186.9,314.7,190.9,313.8L190.9,313.8z M197.2,355.5c1.1,0.8,2.5,1.2,4.3,1.2
		c1.4,0,2.6-0.2,3.7-0.7c1.1-0.4,2.2-1,3.2-1.5V346c-1.2-0.2-2.4-0.3-3.5-0.3c-2.5,0-4.6,0.4-6.5,1.4s-2.7,2.4-2.7,4.5
		C195.6,353.3,196.2,354.6,197.2,355.5z M236.9,329.6c1.4-3.6,3.4-6.7,5.9-9.2c2.6-2.6,5.8-4.6,9.5-6.1c3.8-1.5,8.1-2.2,13-2.2
		c4.5,0,8.6,0.7,12.4,2.1s7.1,3.2,9.9,5.4l-8.8,15c-1.6-1.3-3.4-2.3-5.4-3.1c-2-0.8-4.2-1.1-6.5-1.1c-3.8,0-6.7,1.1-8.6,3.2
		s-2.9,4.6-2.9,7.6s1,5.5,2.9,7.7s4.8,3.3,8.6,3.3c2.4,0,4.6-0.4,6.5-1.2c2-0.8,3.7-1.8,5.4-3.1l8.8,15c-2.7,2.2-6,3.9-9.9,5.4
		s-8,2.1-12.4,2.1c-4.9,0-9.2-0.8-13-2.2c-3.7-1.5-7-3.5-9.5-6.1c-2.6-2.6-4.6-5.7-5.9-9.3c-1.4-3.6-2.1-7.5-2.1-11.6
		S235.6,333.2,236.9,329.6L236.9,329.6z M324.5,313.6h37v15.7h-37v15.4c0,3,0.4,5,1.4,6.1s2.3,1.6,4.2,1.6c1.9,0,3.6-0.4,5.4-1.2
		c1.8-0.8,3.2-1.6,4.4-2.4l6.1,15.4c-3,1.8-6.4,3.2-10,4.3c-3.7,1.1-7.8,1.6-12.3,1.6c-6.1,0-11-1.8-14.5-5.4s-5.2-8.9-5.2-16v-19.5
		h-20l9.1-15.7h11.8l2.4-14.1h17v14.2H324.5z M355.3,291.8c2.1-1.3,4.7-2,8.1-2c3.3,0,5.9,0.7,7.9,2s3,3.6,3,7s-1,5.7-3,7
		s-4.6,2-7.9,2s-6-0.7-8.1-2s-3.1-3.7-3.1-7C352.2,295.4,353.2,293.1,355.3,291.8z M373.4,313.6v55.5H353v-55.5H373.4z M422.7,369.1
		h-24.5l-20.6-55.5h22.1l10.6,37.4l11-37.4h22.1L422.7,369.1z M484.1,368.5c-4.1,1.3-8.6,2-13.4,2c-5.3,0-9.8-0.8-13.6-2.2
		c-3.8-1.4-7-3.5-9.5-6.1s-4.4-5.7-5.6-9.2s-1.8-7.3-1.8-11.5c0-4.3,0.7-8.1,2.1-11.7s3.4-6.7,5.9-9.3c2.5-2.6,5.6-4.7,9.3-6.1
		c3.6-1.5,7.7-2.2,12.2-2.2c4.3,0,7.9,0.7,11.1,1.9c3.2,1.2,5.8,3,7.9,5c2.1,2.1,3.6,4.6,4.7,7.3c1,2.7,1.5,5.7,1.5,8.9
		c0,1.9-0.1,3.8-0.3,5.8c-0.2,2.1-0.5,3.6-0.9,4.7h-33.9c0.5,2.6,1.8,4.8,3.7,6.5c2,1.8,4.9,2.6,8.8,2.6c1.3,0,2.6-0.1,3.9-0.4
		c1.4-0.3,2.7-0.7,4.1-1.1s2.6-1,3.7-1.6c1.1-0.5,2.1-1.2,2.9-1.8l7.6,13C491.7,365.4,488.2,367.2,484.1,368.5L484.1,368.5z
		 M476.4,328.5c-1.4-1.3-3.5-1.9-6.4-1.9c-2.7,0-4.9,0.8-6.7,2.3c-1.6,1.5-2.7,3.4-3.1,5.8h18.1v-1
		C478.4,331.6,477.8,329.8,476.4,328.5L476.4,328.5z"/>
</g>
<g id="squirrel_mark">
	<path class="st1" d="M358.5,197c-12.4,3.9-22.4-4.1-27.9-10.4c-1.6-3.3-2.2-6.8-2.1-10.5c0.1-9.8,9.9-19,19.7-17.7
		c10,1.3,15.4-0.2,17.2-0.1c1.5,0,4.8,1.9,6.4,3.9C374.8,175.1,376.2,191.5,358.5,197L358.5,197z"/>
	<path class="st2" d="M378.2,190c-3.7,7.2-10.9,15.9-23.7,12.9c-1.9-0.4-3.8-1.1-5.9-2.1s-3.9-1.9-5.7-2.9c-4.4-2.4-7.5-4.9-9.6-7.5
		c-1.1-1.3-2-2.6-2.6-4.1c5.5,6.4,15.5,14.4,27.9,10.4c17.7-5.6,16.2-21.9,13.4-35c0.2,0.3,0.4,0.7,0.5,1
		C374.9,168.4,382.5,181.8,378.2,190L378.2,190z"/>
	<path class="st3" d="M313.9,168.2l4.6,3.7l-15.3,4.6l1.8-5.2l3.9-6.4L313.9,168.2z"/>
	<path class="st4" d="M303.2,136.2l8.1,19.1l-16-6.6l-7.8-20.4L303.2,136.2z"/>
	<path class="st5" d="M301.1,160.3l9.9-5l6.1,0.7l6.6,8.1l-7.2,4.2l-7.7-0.2l-3.8,3.2L301.1,160.3z"/>
	<path class="st6" d="M284.4,77.6l6.1,9.8l7.9,23.2l-13.2,10.9l-11.1-10.2l5.1-23.3L284.4,77.6z"/>
	<path class="st7" d="M279.2,88l4.5-20.3l6.8,19.7l-6.1-9.8L279.2,88z"/>
	<path class="st8" d="M266.8,74.6l9.9,9.9l15.6,25.8l-13,16.5l-16-9.5l0.1-29L266.8,74.6z"/>
	<path class="st7" d="M263.4,88.3l0.1-25.5l13.2,21.7l-9.9-9.9L263.4,88.3z"/>
	<path class="st9" d="M311.3,158.8c0,0,5.3,10.2,12.4,5.3c-0.3-3.2-0.5-6.9-0.5-6.9l-8.4-2L311.3,158.8L311.3,158.8z"/>
	<path class="st10" d="M299.1,102.1l-19.8,24.7l56.2,27.7L299.1,102.1z"/>
	<path class="st11" d="M340.7,137.7c0,0,11.1,14.6-5.3,16.8l-5.6-8.1L340.7,137.7z"/>
	<path class="st12" d="M313.2,122.7l19,1.6l8.5,13.4l-10.8,8.7L313.2,122.7z"/>
	<path class="st13" d="M299.2,102.2l17,7.9l16,14.2l-19-1.6L299.2,102.2z"/>
	<path class="st14" d="M319.8,132l-1.9-9l-8.3-5.1l-7.5,5.7l-1.6,5.3l5.1,6.2l9.8,0.1L319.8,132z"/>
	<path class="st15" d="M319.7,132.1c0,0-2.3-8.4-6-10.1c-5.3-2.4-8.6-0.9-11.4,1.6c0.3,3.9,2.7,7.8,5.6,8.8
		C312.1,133.8,319.7,132.1,319.7,132.1z"/>
	<circle class="st16" cx="309.6" cy="124.8" r="1.9"/>
	<path class="st17" d="M335.5,154.5c0,0-9.5,10.4-24.6,0.4c4.9-3.4,9.8-7.7,9.8-7.7L335.5,154.5L335.5,154.5z"/>
	<path class="st18" d="M311,155.3l-8.8-17.4l18.6,9.4L311,155.3z"/>
	<path class="st19" d="M288.4,131l2.2,22.3l20.7,2l-14-10L288.4,131z"/>
	<path class="st20" d="M290.6,153.3l20.4,2l-9.9,5.1L290.6,153.3z"/>
	<path class="st21" d="M305,171.3l-8.6-3.4l4.7-7.6L305,171.3z"/>
	<path class="st22" d="M290.6,153.3l-6.4,14.6h12.2l4.7-7.6L290.6,153.3z"/>
	<path class="st23" d="M284.2,167.9l12.7,8l-0.5-8H284.2z"/>
	<path class="st24" d="M305,171.3l-8.1,4.6l-0.5-8L305,171.3z"/>
	<path class="st25" d="M278.9,126.6l-6.6,17.7l16.1-13.3L278.9,126.6z"/>
	<path class="st26" d="M290.6,153.3l-18.3-9l16.1-13.3L290.6,153.3z"/>
	<path class="st27" d="M263.4,103.9l-8.8,16.2l8.7-2.8L263.4,103.9z"/>
	<path class="st28" d="M263.3,117.3l-2.2,9.6l-6.5-6.8L263.3,117.3z"/>
	<path class="st29" d="M279.3,126.8l-13.6,8.6l-2.4-18.1L279.3,126.8z"/>
	<path class="st30" d="M272.3,144.3l-12.2,7.9l5.6-16.8l13.6-8.6L272.3,144.3z"/>
	<path class="st31" d="M265.7,135.4l-4.6-8.5l2.2-9.6L265.7,135.4z"/>
	<path class="st32" d="M246.5,137l14.6-10.1l4.6,8.5L246.5,137z"/>
	<path class="st33" d="M254.6,120.1l-8.1,16.9l14.6-10.1L254.6,120.1z M299.1,102.1l-3.9-0.9l1.4,4L299.1,102.1z"/>
	<path class="st34" d="M284.2,167.9l-4.8-20.3l11.2,5.7L284.2,167.9z"/>
	<path class="st35" d="M260.1,152.2l12.2-7.9l7.1,3.3L260.1,152.2z"/>
	<path class="st36" d="M284.2,167.9l-24.1-15.7l19.3-4.6L284.2,167.9z"/>
	<path class="st37" d="M260.1,152.2l-17.8,10l4.2-25.2l19.2-1.6L260.1,152.2z"/>
	<path class="st38" d="M296.9,175.9l-54.6-13.7l17.8-10L296.9,175.9z"/>
	<path class="st39" d="M233.7,179.1l8.6-16.9l30.9,7.6l2.2,40.7L233.7,179.1z"/>
	<path class="st1" d="M330.6,169.6l0.2,5.3C330.5,173,330.4,171.3,330.6,169.6z"/>
	<path class="st40" d="M305,171.3l-1.8,5.2l-6.3-0.6L305,171.3z"/>
	<path class="st41" d="M303.2,176.5l13.9,0.5l25-14.3L303.2,176.5z"/>
	<path class="st42" d="M335.7,181.4l-18.6-4.4l25-14.3L335.7,181.4z"/>
	<path class="st43" d="M355.1,172.8l-3.7-5.9l-6.1-1.4l-3.2-2.8l-3.9,11.6L355.1,172.8z"/>
	<path class="st44" d="M345.4,187.1l-9.7-5.7l2.5-7.1l18.3,5l-5.6,5l-4.4-0.6L345.4,187.1z"/>
	<path class="st45" d="M355.1,172.8l2.6,2.6l-1.2,3.9l-18.3-5L355.1,172.8z"/>
	<path class="st46" d="M335.7,181.4l-15.4,13.7l3.1-16.6L335.7,181.4z"/>
	<path class="st47" d="M317.1,177l4.5,11.5l1.8-10L317.1,177z"/>
	<path class="st48" d="M320.4,195.1l-9.9,6.5l2.9-19.1l8.2,6L320.4,195.1z"/>
	<path class="st49" d="M317.1,177l-3.7,5.5l8.2,6L317.1,177z"/>
	<path class="st50" d="M303.2,176.5l10.2,6l3.7-5.5L303.2,176.5z"/>
	<path class="st51" d="M312,191.5l-8.8-15l10.2,6L312,191.5z"/>
	<path class="st52" d="M296.9,175.9l-4.3,13.6l10.6-13L296.9,175.9z"/>
	<path class="st53" d="M312,191.5l-19.4-2l10.6-13L312,191.5z"/>
	<path class="st54" d="M282.5,172.3l10.1,17.2l4.3-13.6L282.5,172.3z"/>
	<path class="st55" d="M273.6,183.1l8.9-10.9l10.1,17.3L273.6,183.1z"/>
	<path class="st44" d="M273,169.8l9.6,2.5l-9,10.8L273,169.8z"/>
	<path class="st46" d="M292.6,189.5l-17.2,21l-1.8-27.4L292.6,189.5z"/>
	<path class="st56" d="M310.5,201.6l-15.2-0.5l5.2-10.9l11.5,1.3L310.5,201.6z"/>
	<path class="st57" d="M292.6,189.5l3.1,11.6l4.8-10.9L292.6,189.5z"/>
	<path class="st44" d="M288.6,212.6l7.1-11.5l6.9,6.3L288.6,212.6z"/>
	<path class="st58" d="M310.5,201.6l-7.9,5.8l-6.9-6.3L310.5,201.6z M286.3,197.2l9.4,3.9l-3.1-11.6L286.3,197.2z"/>
	<path class="st59" d="M275.5,210.4l20.2-9.3l-9.4-3.9L275.5,210.4z"/>
	<path class="st60" d="M288.6,212.6l-13.2-2.1l20.3-9.4L288.6,212.6z"/>
	<path class="st61" d="M275.4,210.5l-21.1-6.9l-5.6-13.2L275.4,210.5z"/>
	<path class="st62" d="M221.6,193.4l27.1-3l5.6,13.2l-20.8-6.4L221.6,193.4z"/>
	<path class="st63" d="M218.6,210.9l-3.9-7.8l7.5-9.7L218.6,210.9z"/>
	<path class="st64" d="M235.3,197.5l-16.7,13.2l3.6-17.3L235.3,197.5z"/>
	<path class="st65" d="M233.7,179.1l-11.5,14.3l26.5-3L233.7,179.1z"/>
	<path class="st66" d="M242.3,162.2l-20.2-11.8l13.8-4.1L242.3,162.2z"/>
	<path class="st67" d="M246.5,137l-10.6,9.3l6.5,16.1L246.5,137z"/>
	<path class="st68" d="M233.7,179.1l-25.2-3.9l13.6-24.8l20.2,11.8L233.7,179.1z"/>
	<path class="st69" d="M200.6,158l21.5-7.6l-7.5,13.6L200.6,158z"/>
	<path class="st70" d="M208.5,175.2l13.7,18.2l11.5-14.3L208.5,175.2z"/>
	<path class="st71" d="M200.8,158.1l7.7,17.1l6.2-11.1L200.8,158.1z"/>
	<path class="st72" d="M182.6,184.3l25.9-9.1l-7.7-17.1L182.6,184.3z"/>
	<path class="st73" d="M222.2,193.4l-39.6-9.1l25.9-9.1L222.2,193.4z"/>
	<path class="st74" d="M196.2,203.1l-13.6-18.8l39.6,9.1L196.2,203.1z"/>
	<path class="st63" d="M186.8,238.3l9.4-35.2l-4.1-5.8L186.8,238.3z"/>
	<path class="st75" d="M182.6,184.3l-4.2,24.1l13.7-11.1L182.6,184.3z"/>
	<path class="st76" d="M186.8,238.4l-8.4-30l13.7-11.1L186.8,238.4z"/>
	<path class="st77" d="M214.7,203.1h-18.5l26-9.7L214.7,203.1z"/>
	<path class="st78" d="M218.6,210.9l-22.4-7.8h18.5L218.6,210.9z"/>
	<path class="st79" d="M186.8,238.4l9.4-35.3l22.4,7.6L186.8,238.4z"/>
	<path class="st80" d="M187.1,238.6l-8.6-29.7l-23.2,22L187.1,238.6z"/>
	<path class="st75" d="M155.3,230.9l-7.6-24.2l30.6,2.8L155.3,230.9z"/>
	<path class="st76" d="M178.3,209.5l4.4-25.3l-35,22.5L178.3,209.5z"/>
	<path class="st71" d="M147.6,207l2.1-38.1l32.9,15.4L147.6,207z"/>
	<path class="st68" d="M149.7,169l51.2-10.9l-18.4,26.2L149.7,169z"/>
	<path class="st80" d="M176.6,140.5l0.7,22.6l23.6-5L176.6,140.5z"/>
	<path class="st66" d="M149.7,169l27-28.5l0.7,22.6L149.7,169z M200.8,158l6.7-24.6l-31,7L200.8,158z"/>
	<path class="st80" d="M200.9,113.4l6.6,20l-30.9,7L200.9,113.4z"/>
	<path class="st71" d="M200.9,113.3l-35.4-20.2l-22.8,27.6L200.9,113.3z"/>
	<path class="st13" d="M176.6,140.4l-6.1-23.3l30.4-3.7L176.6,140.4z"/>
	<path class="st63" d="M186.8,238.3l17.1,43.1l-48.6-50.5L186.8,238.3z"/>
	<path class="st81" d="M224.8,205.5l14.2,43.7l-30.5-6.3L224.8,205.5z"/>
	<path class="st82" d="M186.8,238.3l21.8,4.6l16.2-37.4L186.8,238.3z"/>
	<path class="st83" d="M239,249.2l-35.1,32.2l-17.1-43.1L239,249.2z"/>
	<path class="st84" d="M237.5,268.6l-13.8-5.4l15.3-14L237.5,268.6z"/>
	<path class="st85" d="M237.5,268.6l-33.6,12.8l19.8-18.2L237.5,268.6z"/>
	<path class="st86" d="M236.8,282.1l0.7-13.5l-33.6,12.8L236.8,282.1z"/>
	<path class="st87" d="M239,249.2l1.1-21.7l-11.2-8.4L239,249.2z"/>
	<path class="st88" d="M224.8,205.5l15.3,22l-11.2-8.4L224.8,205.5z"/>
	<path class="st89" d="M234.9,197.6l5.2,29.9l-15.3-22L234.9,197.6z"/>
	<path class="st90" d="M273.1,226.5l-6.3,27.1l-31.9-56L273.1,226.5z"/>
	<path class="st91" d="M240.1,227.5l10.2-3.4l-15.4-26.5L240.1,227.5z"/>
	<path class="st92" d="M249.6,257.6l0.3-16.3l0.4-17.2l16.5,29.5L249.6,257.6z"/>
	<path class="st90" d="M240.1,227.5l9.9,11.8l0.3-15.2L240.1,227.5z M249.6,257.6l-10.6-8.4l11.3-10.5L249.6,257.6z"/>
	<path class="st93" d="M240.1,227.5l-1.1,21.7l11.3-10.5L240.1,227.5z"/>
	<path class="st94" d="M273.1,226.5l8.8-15l-47-13.9L273.1,226.5z"/>
	<path class="st95" d="M285.9,232.9l-12.8-6.4l8.8-15L285.9,232.9z"/>
	<path class="st96" d="M266.8,253.6l19.1-20.7l-12.8-6.4L266.8,253.6z"/>
	<path class="st97" d="M277.6,259.1l-10.8-5.5l19.1-20.7L277.6,259.1z"/>
	<path class="st98" d="M266.8,253.6l10.8,5.5l-8,13.7l21.6,0.2l12.8,9.1l-47.3,0.4L266.8,253.6z"/>
	<path class="st99" d="M305.4,268.1l-14.2,4.9l12.8,9.1L305.4,268.1z"/>
	<path class="st100" d="M315,282.1l-9.6-14l-1.4,14H315z"/>
	<path class="st101" d="M249.6,257.6l7.1,24.9l-19.9-0.4L249.6,257.6z"/>
	<path class="st102" d="M239,249.2l10.6,8.4l-12.8,24.5L239,249.2z"/>
	<path class="st103" d="M266.8,253.6l-17.2,4l7.1,24.5L266.8,253.6z"/>
	<path class="st80" d="M207.5,133.4l14.6,17l-21.3,7.6L207.5,133.4z"/>
	<path class="st104" d="M223.3,117.8l-15.8,15.6l-6.6-20L223.3,117.8z M222.1,150.3l6.6-18l-21.2,1.1L222.1,150.3z"/>
	<path class="st69" d="M223.3,117.8l5.4,14.5l-21.2,1.1L223.3,117.8z M216.4,97.6l6.9,20.2l-22.4-4.4l-7.7-20L216.4,97.6z"/>
	<path class="st105" d="M197.3,84.2l19.1,13.4l-23.1-4.2L197.3,84.2z"/>
	<path class="st104" d="M193.2,93.4l-27.7-0.3l35.4,20.3L193.2,93.4z M197.3,84.2l-31.8,8.9l27.7,0.3L197.3,84.2z"/>
	<path class="st106" d="M167.1,75.9l30.2,8.3l-31.8,8.9l-15.9-11.5L167.1,75.9z M143.1,120.4l8.8-25.4l13.6-1.9L143.1,120.4z
		 M133.5,100.9l16.1-19.3l2.3,13.4L133.5,100.9z"/>
	<path class="st69" d="M165.5,93.1l-15.9-11.5l2.3,13.4L165.5,93.1z M142.7,120.7l-9.2-19.8l18.4-5.9l-8.6,24.7l-0.2,0.7
		L142.7,120.7z M142.7,141.7v-21l-18.5-1.1L142.7,141.7z"/>
	<path class="st104" d="M133.5,100.9l-9.3,18.7l18.5,1.1L133.5,100.9z"/>
	<path class="st28" d="M286.6,117.9l-12.9-20.2l-4,23.5l9.6,5.6L286.6,117.9z"/>
</g>
</svg>
