<?xml version="1.0" encoding="UTF-8" standalone="no"?>
<!DOCTYPE svg PUBLIC "-//W3C//DTD SVG 1.1//EN" "http://www.w3.org/Graphics/SVG/1.1/DTD/svg11.dtd">
<svg xmlns="http://www.w3.org/2000/svg" version="1.1" viewBox="0.00 0.00 600.00 600.00">
<path fill="#feee1c" d="
  M 409.62 216.37
  Q 423.69 212.88 440.44 208.39
  Q 448.85 206.12 453.03 213.28
  Q 460.01 225.22 462.59 237.67
  Q 463.23 240.75 463.14 242.76
  A 1.88 1.87 82.0 0 1 461.87 244.45
  Q 455.88 246.48 448.02 247.81
  Q 328.17 268.04 304.63 271.97
  Q 288.57 274.65 274.39 277.28
  C 260.25 279.92 239.17 282.50 222.46 286.94
  Q 219.09 287.84 216.68 289.43
  A 1.84 1.83 53.4 0 0 216.28 292.14
  C 219.22 295.67 222.37 296.21 227.32 295.68
  Q 236.68 294.68 243.74 294.38
  Q 253.46 293.97 260.57 293.39
  Q 280.25 291.80 320.00 289.30
  Q 368.51 286.25 390.06 284.47
  Q 416.51 282.28 438.03 280.93
  Q 458.50 279.65 486.00 277.29
  Q 489.47 277.00 493.96 277.59
  C 502.21 278.67 502.44 288.45 502.54 295.01
  Q 502.66 303.93 501.36 312.61
  Q 500.44 318.71 498.42 322.22
  A 1.22 1.19 56.7 0 0 498.27 323.00
  L 498.36 323.59
  A 0.69 0.69 0.0 0 1 498.00 324.31
  Q 495.45 325.63 493.33 326.08
  Q 487.74 327.27 480.50 326.80
  C 466.11 325.87 450.16 322.79 434.58 321.80
  Q 360.18 317.06 285.00 311.82
  A 2.27 2.25 -33.9 0 1 284.53 311.73
  Q 282.18 311.01 279.68 311.11
  Q 277.47 311.19 275.32 311.03
  Q 253.91 309.41 233.00 308.43
  C 229.65 308.28 223.18 308.14 220.61 308.57
  Q 216.29 309.30 213.13 313.38
  A 0.68 0.67 -51.1 0 0 213.23 314.32
  Q 214.40 315.29 216.28 315.83
  Q 223.40 317.88 233.72 319.59
  Q 317.35 333.40 442.03 352.41
  Q 449.94 353.62 456.41 356.13
  Q 461.08 357.94 462.26 361.57
  A 2.26 2.22 42.7 0 1 462.32 362.78
  Q 458.94 377.74 450.84 390.85
  A 3.03 3.02 19.4 0 1 447.89 392.26
  Q 446.06 392.03 443.79 391.54
  Q 428.98 388.33 404.89 381.83
  Q 386.09 376.75 346.35 365.64
  C 335.72 362.67 319.92 358.96 306.04 355.20
  Q 280.13 348.18 231.76 334.95
  C 226.73 333.57 215.27 330.17 211.59 332.47
  C 205.67 336.17 220.46 343.85 222.98 344.76
  Q 230.00 347.31 237.20 350.34
  Q 243.84 353.13 247.95 354.13
  C 253.92 355.57 260.64 358.67 266.30 360.60
  Q 276.40 364.04 385.10 403.20
  Q 402.37 409.42 414.82 416.54
  C 419.38 419.14 426.19 422.81 428.91 427.46
  A 2.32 2.30 -43.0 0 1 428.81 429.95
  C 425.92 434.09 423.17 437.43 418.95 442.16
  Q 413.61 448.15 410.03 454.08
  Q 406.65 459.67 400.49 458.28
  C 396.60 457.40 391.35 452.30 387.98 450.55
  Q 260.69 384.42 260.35 384.24
  C 248.11 377.52 235.46 371.07 222.75 365.24
  Q 215.18 361.77 207.60 359.42
  Q 204.62 358.50 202.04 358.75
  A 1.62 1.61 -4.8 0 0 200.59 360.46
  C 200.83 364.20 203.47 366.14 206.72 368.13
  C 232.88 384.14 277.89 413.55 311.57 434.39
  Q 338.41 451.00 359.58 465.71
  Q 369.31 472.47 375.50 477.65
  A 1.64 1.64 0.0 0 1 375.84 479.78
  Q 374.78 481.50 372.63 482.93
  Q 358.56 492.30 343.77 498.57
  Q 335.81 501.94 329.51 496.61
  C 286.53 460.23 246.40 427.19 195.39 384.11
  C 192.74 381.88 185.43 379.17 185.31 385.45
  A 2.40 2.36 34.2 0 0 185.51 386.45
  Q 186.63 389.04 188.72 391.52
  Q 222.92 432.19 259.41 472.60
  C 268.87 483.07 278.28 494.29 286.47 505.30
  Q 288.06 507.44 289.62 510.21
  C 296.58 522.49 252.49 519.94 249.24 519.64
  Q 245.57 519.29 242.83 515.38
  Q 230.74 498.13 222.14 484.61
  Q 198.71 447.80 175.97 411.77
  Q 168.22 399.49 161.45 390.93
  Q 158.18 386.81 155.13 384.80
  C 152.53 383.08 149.87 386.02 148.71 388.44
  Q 147.62 390.72 144.56 399.27
  Q 132.78 432.16 129.35 439.86
  C 127.37 444.32 125.34 449.81 122.82 451.50
  A 2.81 2.80 -42.1 0 1 119.49 451.34
  C 116.11 448.59 111.82 443.53 107.48 440.52
  C 104.25 438.28 100.27 436.36 100.60 432.89
  Q 100.96 429.08 101.91 426.67
  C 106.83 414.11 113.83 400.93 117.73 387.53
  Q 121.34 375.16 118.41 363.43
  C 116.68 356.52 111.57 347.61 109.16 340.58
  Q 105.31 329.32 105.21 317.25
  Q 105.09 303.84 105.93 289.25
  C 106.62 277.29 109.47 268.84 114.14 255.64
  C 117.35 246.56 119.97 234.93 118.72 224.09
  C 118.08 218.52 113.95 211.00 112.15 206.08
  Q 106.74 191.33 98.48 171.13
  Q 97.82 169.51 97.62 168.23
  A 1.70 1.64 55.3 0 1 97.79 167.18
  Q 98.24 166.36 102.11 163.13
  Q 108.37 157.90 114.97 154.26
  C 122.59 150.06 127.96 163.70 130.39 169.16
  Q 131.01 170.55 145.73 207.79
  Q 146.84 210.58 148.90 212.69
  A 2.12 2.12 0.0 0 0 151.99 212.62
  C 160.93 202.68 168.04 191.01 175.80 180.07
  C 195.60 152.17 215.02 123.61 230.40 100.90
  Q 235.18 93.86 240.16 87.42
  C 242.82 83.99 246.08 80.72 250.50 80.33
  Q 262.10 79.31 273.97 80.62
  C 278.23 81.08 285.65 82.51 288.59 85.54
  A 1.22 1.21 37.7 0 1 288.78 87.00
  Q 285.55 92.66 281.53 98.03
  Q 273.12 109.24 267.07 116.82
  Q 219.15 176.84 208.96 189.46
  C 202.13 197.92 193.43 207.53 187.55 217.04
  Q 186.70 218.41 186.34 219.32
  A 0.70 0.70 0.0 0 0 187.27 220.22
  Q 191.79 218.27 196.55 214.80
  Q 207.28 206.97 219.35 196.84
  Q 237.44 181.67 276.36 149.62
  Q 308.78 122.91 320.17 112.90
  Q 323.19 110.23 328.97 104.73
  C 331.65 102.18 335.02 100.35 338.59 101.94
  C 340.84 102.94 343.23 104.81 346.28 106.08
  Q 358.73 111.26 364.56 114.67
  C 381.03 124.30 333.51 153.41 326.88 157.52
  Q 275.95 189.08 254.43 203.19
  Q 231.23 218.41 202.87 237.60
  Q 200.49 239.21 202.40 242.31
  A 2.33 2.32 -21.9 0 0 204.86 243.36
  Q 206.08 243.11 207.98 242.44
  Q 214.03 240.29 224.50 234.49
  Q 244.32 223.50 259.50 215.42
  Q 274.36 207.50 295.05 197.41
  Q 340.28 175.34 389.37 153.14
  Q 394.89 150.64 403.24 147.69
  Q 405.57 146.86 407.31 147.87
  Q 407.98 148.26 410.05 151.00
  Q 422.27 167.13 428.32 177.69
  Q 429.40 179.59 427.06 181.11
  Q 421.90 184.45 414.36 187.61
  C 389.78 197.92 361.22 207.21 333.52 218.03
  Q 324.51 221.55 308.17 227.40
  Q 271.67 240.46 243.45 250.90
  C 239.38 252.41 234.64 254.82 229.71 256.23
  C 226.04 257.27 210.50 262.15 213.87 267.70
  C 215.24 269.96 220.93 268.98 222.88 268.41
  Q 253.27 259.48 289.56 249.73
  Q 327.77 239.48 349.31 233.35
  Q 375.57 225.88 409.00 216.78
  Q 409.56 216.63 409.62 216.37
  Z"
/>
</svg>
