<?xml version="1.0" encoding="UTF-8" standalone="no"?>
<!DOCTYPE svg PUBLIC "-//W3C//DTD SVG 1.1//EN" "http://www.w3.org/Graphics/SVG/1.1/DTD/svg11.dtd">
<svg width="100%" height="100%" viewBox="0 0 1266 850" version="1.1" xmlns="http://www.w3.org/2000/svg" xmlns:xlink="http://www.w3.org/1999/xlink" xml:space="preserve" xmlns:serif="http://www.serif.com/" style="fill-rule:evenodd;clip-rule:evenodd;stroke-linejoin:round;stroke-miterlimit:2;">
    <g>
        <path d="M817.35,75.68C817.172,75.581 817.062,75.394 817.062,75.19C817.062,75.04 817.122,74.895 817.23,74.79C818.223,73.803 818.783,73.177 818.91,72.91C819.103,72.483 819.113,72.123 818.94,71.83C818.917,71.791 818.892,71.754 818.865,71.718C818.418,71.113 817.535,70.998 816.909,71.461C816.871,71.489 816.835,71.519 816.8,71.55C812.3,75.61 808.16,74.54 801.84,73.27C755.773,64.003 709.383,58.347 662.67,56.3C643.13,55.44 622.38,55.6 605.07,55.28C603.271,55.248 601.809,53.759 601.809,51.961C601.809,51.673 601.846,51.388 601.92,51.11L601.98,50.87C602.646,48.342 604.932,46.552 607.55,46.51C684.75,45.15 759.627,53.257 832.18,70.83C868.113,79.53 904.74,91.363 942.06,106.33C944.277,107.221 945.672,109.457 945.5,111.84L945.37,113.67C945.289,114.827 944.315,115.736 943.155,115.736C942.975,115.736 942.795,115.714 942.62,115.67C941.327,115.357 939.193,114.647 936.22,113.54C926.973,110.1 913.927,105.383 897.08,99.39C877.46,92.41 858,87 840.23,81.6C838.183,80.98 836.093,79.787 833.96,78.02C833.205,77.396 832.182,77.193 831.24,77.48C826.613,78.907 821.983,78.307 817.35,75.68Z" style="fill:rgb(35,32,33);fill-rule:nonzero;"/>
        <path d="M129.47,618.09C126.8,617.48 125.3,619.44 123.83,620.45C123.28,620.832 122.545,620.828 122,620.44C120.773,619.567 119.597,618.513 118.47,617.28C78.85,573.91 48.63,521.32 40.03,463.25C39.757,461.383 39.02,454.833 37.82,443.6C36.993,435.88 36.597,429.303 36.63,423.87C36.67,416.83 37.293,407.96 38.5,397.26C41.56,370.113 48.69,344.24 59.89,319.64C74.637,287.26 94.21,258.083 118.61,232.11C125.143,225.157 133.19,217.143 142.75,208.07C143.325,207.523 144.211,207.447 144.87,207.89L146.86,209.22C146.952,209.286 147.058,209.334 147.17,209.36C149.683,210.027 151.013,209.05 151.16,206.43C151.253,204.703 151.237,203.37 151.11,202.43C151.052,202.014 151.125,201.588 151.32,201.21C151.967,199.937 152.877,198.8 154.05,197.8C167.717,186.14 180.073,176.583 191.12,169.13C198.773,163.963 210.717,156.29 226.95,146.11C229.46,144.54 231.41,143.88 234.18,142.9C235.441,142.451 236.606,141.758 237.61,140.86C239.937,138.8 241.84,137.367 243.32,136.56C289.28,111.647 338.483,91.933 390.93,77.42C426.257,67.647 461.28,60.347 496,55.52C517.053,52.593 539.637,50.173 563.75,48.26C570.81,47.693 577.973,47.413 585.24,47.42C586.88,47.42 588.053,48.263 588.76,49.95C588.9,50.274 588.892,50.642 588.74,50.96C588.293,51.893 587.39,53.083 586.03,54.53C583.29,57.47 581.54,53.38 578.85,54.87C576.65,56.09 574.743,56.767 573.13,56.9C552.88,58.51 540.24,59.09 521.36,61.2C459.927,68.06 400.253,81.693 342.34,102.1C317.373,110.9 292.313,121.59 267.16,134.17C223.71,155.89 182.72,183.03 147.08,216.07C98.28,261.29 59.38,319.87 49.04,386.51C47.987,393.33 47.077,402.827 46.31,415C45.417,429.26 46.203,444.483 48.67,460.67C56.26,510.48 79.36,557.21 111.81,595.94C116.403,601.42 121.987,607.837 128.56,615.19C129.207,615.917 129.65,616.74 129.89,617.66C129.898,617.689 129.902,617.719 129.902,617.75C129.902,617.942 129.744,618.1 129.552,618.1C129.524,618.1 129.497,618.096 129.47,618.09Z" style="fill:rgb(35,32,33);fill-rule:nonzero;"/>
        <path d="M597.63,63.51C598.423,62.29 599.81,61.657 601.79,61.61C634.57,60.743 666.803,61.593 698.49,64.16C730.357,66.733 764.153,71.57 799.88,78.67C847.42,88.117 894.57,102.7 941.33,122.42C943.043,123.147 944.277,123.917 945.03,124.73C947.83,127.76 946.62,133.93 944.77,137.01C944.201,137.957 943.071,138.422 942,138.15C941.08,137.917 939.993,137.537 938.74,137.01C903.707,122.217 869.567,110.527 836.32,101.94C802.673,93.247 769.113,86.81 735.64,82.63C730.8,82.023 722.05,81.083 709.39,79.81C679.21,76.76 653.48,76.13 620.53,75.53C618.869,75.497 617.229,75.182 615.68,74.6C610.913,72.793 606.213,70.657 601.58,68.19C599.953,67.323 598.633,66.077 597.62,64.45C597.443,64.163 597.447,63.797 597.63,63.51Z" style="fill:rgb(35,32,33);fill-rule:nonzero;"/>
        <path d="M123.08,576.33C123.094,576.377 123.1,576.425 123.1,576.474C123.1,576.759 122.866,576.994 122.58,576.994C122.54,576.994 122.499,576.989 122.46,576.98C118.973,576.093 116.577,575.543 115.27,575.33C112.75,574.92 111.36,575.31 108.27,575.75C106.03,576.08 104.64,573.86 103.53,572.27C87.943,549.81 76.063,526.68 67.89,502.88C65.017,494.507 62.363,484.83 59.93,473.85C55.11,452.06 53.94,429.1 55.41,407.5C60.57,332.03 103.16,264.87 158.13,215.38C174.017,201.073 190.603,188.077 207.89,176.39C295.44,117.17 398.88,83.82 503.67,69.13C528.08,65.7 556.38,63.45 582.25,62.06C588.49,61.73 591.17,65.39 596.59,70.75C596.86,71.027 597.02,71.393 597.04,71.78C597.133,74.1 596.097,75.39 593.93,75.65C589.69,76.163 581.21,76.78 568.49,77.5C536.84,79.29 504.83,83.24 474.99,88.16C474.25,88.287 473.057,88.267 471.41,88.1C470.961,88.057 470.615,87.675 470.615,87.224C470.615,87.052 470.665,86.884 470.76,86.74C471.967,84.887 472.647,83.003 472.8,81.09C472.853,80.43 472.59,80.033 472.01,79.9C469.72,79.39 467.66,82.3 467.5,84.26C467.38,85.693 467.253,87.063 467.12,88.37C467.064,88.882 466.72,89.316 466.24,89.48C463.473,90.447 460.897,90.9 458.51,90.84C458.047,90.828 457.628,90.566 457.42,90.16L456.03,87.47C455.994,87.401 455.952,87.335 455.905,87.272C455.452,86.679 454.596,86.56 454.007,87.009C453.943,87.057 453.884,87.111 453.83,87.17C452.37,88.75 451.53,91.34 449.57,92.41C447.883,93.317 446.537,93.877 445.53,94.09C408.657,101.89 372.65,112.45 337.51,125.77C284.07,146.02 233.47,173.08 188.73,208.48C142.26,245.23 100.84,293.76 81.61,350.82C64.39,401.893 64.95,452.747 83.29,503.38C90.08,522.15 100.18,541.72 111.34,558.18C118.04,568.047 121.533,573.21 121.82,573.67C122.407,574.583 122.827,575.47 123.08,576.33Z" style="fill:rgb(35,32,33);fill-rule:nonzero;"/>
        <path d="M620.42,110.98C619.63,110.849 619.044,110.161 619.04,109.36L618.92,100.22C618.908,99.027 619.744,97.981 620.91,97.73C626.37,96.59 636.14,96.28 640.34,100.54C643.47,103.71 644.35,108.41 642.63,112.63C642.537,112.857 642.093,113.973 641.3,115.98C640.913,116.951 640.964,118.042 641.44,118.97C642.28,120.617 643.06,122.29 643.78,123.99C646.67,130.78 642.24,138.87 635.04,140.56C631.553,141.38 628.5,140.91 625.88,139.15C622.77,137.06 616.93,133.39 619.31,128.41C620.29,126.357 620.89,123.233 621.11,119.04C621.183,117.513 622.27,116.123 624.37,114.87C627.62,112.92 633.63,116.07 635.06,110.56C636.09,106.58 633.14,103.77 629.14,104.2C628.08,104.309 627.181,105.046 626.86,106.07C625.82,109.44 624.26,111.62 620.42,110.98ZM626.38,123.35L626.52,132.33C626.542,133.653 627.636,134.73 628.96,134.73C628.973,134.73 628.987,134.73 629,134.73L630.3,134.71C634.015,134.649 637.024,131.604 636.97,127.96L636.96,127.4C636.96,127.398 636.96,127.395 636.96,127.393C636.903,123.746 633.798,120.794 630.08,120.85L628.78,120.88C627.445,120.902 626.363,122.015 626.38,123.35Z" style="fill:rgb(35,32,33);fill-rule:nonzero;"/>
        <path d="M663.96,113.85C664.372,113.864 664.703,114.207 664.703,114.62C664.703,114.667 664.699,114.714 664.69,114.76C663.737,119.86 663.7,124.84 664.58,129.7C664.893,131.4 665.21,132.563 665.53,133.19C666.99,136.07 670.13,137.08 672.72,134.76C674.51,133.15 674.9,130.61 675.5,127.77C676.88,121.26 677.26,114.59 675.52,108.5C674.8,105.98 671.95,104.2 669.55,105.23C668.21,105.803 667.167,105.957 666.42,105.69C666.14,105.597 664.29,105.52 660.87,105.46C660.32,105.454 659.87,105 659.87,104.45C659.87,104.251 659.929,104.056 660.04,103.89C666.81,93.73 681.27,96.65 683.36,108.67C684.36,114.4 685.17,118.18 684.2,123.44C683.567,126.873 682.907,129.877 682.22,132.45C679.967,140.857 674.523,144.157 665.89,142.35C660.04,141.13 657.58,135.66 656.65,129.99C655.81,124.91 658.41,119.27 661.43,115.15C662.09,114.25 662.933,113.817 663.96,113.85Z" style="fill:rgb(35,32,33);fill-rule:nonzero;"/>
        <path d="M558.79,100.13C560.117,99.583 561.23,99.243 562.13,99.11C576.26,97.06 585.62,102.23 583.45,117.84C582.943,121.447 582.507,125.207 582.14,129.12C581.75,133.21 580.55,140.24 575.52,141.47C570.867,142.617 566.543,143.1 562.55,142.92C561.094,142.853 559.904,141.694 559.8,140.24C558.987,128.733 558.263,116.573 557.63,103.76C557.583,102.847 557.747,101.87 558.12,100.83C558.235,100.517 558.478,100.264 558.79,100.13ZM565.73,108.14L567.07,133.64C567.14,134.97 568.29,136.008 569.62,135.94L570.41,135.9C574.726,135.672 577.999,130.172 577.66,123.714C577.66,123.713 577.66,123.711 577.66,123.71L577.3,116.9C576.961,110.445 573.134,105.319 568.82,105.54L568.03,105.58C566.746,105.647 565.726,106.721 565.726,108.007C565.726,108.051 565.728,108.096 565.73,108.14Z" style="fill:rgb(35,32,33);fill-rule:nonzero;"/>
        <path d="M706.03,116.39C706.034,116.435 706.036,116.479 706.036,116.524C706.036,117.319 705.382,117.974 704.586,117.974C704.551,117.974 704.515,117.973 704.48,117.97L700.1,117.66C699.032,117.582 698.197,116.676 698.2,115.6C698.213,114.2 698.657,110.337 699.53,104.01C699.83,101.877 700.987,100.81 703,100.81C706.46,100.81 713.62,101.28 716.86,102.67C722.98,105.283 725.123,110.337 723.29,117.83C723.204,118.181 723.066,118.522 722.88,118.84L720.72,122.58C720.085,123.684 719.899,124.991 720.2,126.23C721.52,131.583 721.523,137.52 720.21,144.04C720.035,144.894 719.347,145.553 718.49,145.69C714.557,146.31 712.683,144.81 712.87,141.19C713.017,138.303 713.147,135.35 713.26,132.33C713.346,129.96 711.761,127.832 709.47,127.24L709.15,127.14C708.847,127.049 708.532,127.003 708.215,127.003C706.573,127.003 705.173,128.24 704.97,129.87L703.5,141.48C703.282,143.225 701.718,144.509 699.97,144.38L698.67,144.28C697.176,144.174 696.003,142.915 696.003,141.417C696.003,141.348 696.005,141.279 696.01,141.21L697.15,125.49C697.187,125.019 697.534,124.631 697.99,124.55L703.67,123.56C704.087,123.483 704.46,123.25 704.71,122.91L706.64,120.32C706.949,119.903 707.489,119.726 707.98,119.88C717.19,122.82 719.75,107.52 709.66,108.1C705.92,108.31 705.81,114.05 706.03,116.39Z" style="fill:rgb(35,32,33);fill-rule:nonzero;"/>
        <path d="M535.68,121.13C535.98,120.303 536.03,119.137 535.83,117.63C535.27,113.157 534.877,108.78 534.65,104.5C534.648,104.451 534.646,104.402 534.646,104.353C534.646,102.685 536.019,101.313 537.686,101.313C537.754,101.313 537.822,101.315 537.89,101.32L538.07,101.33C539.943,101.465 541.47,102.92 541.69,104.78C543.63,120.96 544.903,132.833 545.51,140.4C545.69,142.533 544.843,143.917 542.97,144.55C539.977,145.577 537.727,144.74 536.22,142.04C535.167,140.14 532.457,134.92 528.09,126.38C527.697,125.607 527.227,125.103 526.68,124.87C526.578,124.826 526.471,124.795 526.362,124.778C525.641,124.662 524.954,125.156 524.84,125.871C524.822,125.983 524.819,126.097 524.83,126.21L526.36,143.25C526.368,143.34 526.372,143.43 526.372,143.52C526.372,145.139 525.041,146.47 523.422,146.47C523.405,146.47 523.387,146.47 523.37,146.47L522.97,146.47C521.074,146.556 519.412,145.145 519.19,143.26C518.443,137.14 517.157,125.35 515.33,107.89C515.023,105.003 516.273,103.383 519.08,103.03C522.16,102.637 524.357,103.8 525.67,106.52C528.77,112.927 531.383,117.87 533.51,121.35C533.73,121.709 534.121,121.928 534.542,121.928C535.051,121.928 535.507,121.608 535.68,121.13Z" style="fill:rgb(35,32,33);fill-rule:nonzero;"/>
        <path d="M746.11,143.05C746.158,143.045 746.207,143.043 746.255,143.043C746.957,143.052 747.528,143.641 747.519,144.349C747.519,144.396 747.516,144.443 747.51,144.49L747.13,147.48C746.992,148.544 746.088,149.354 745.02,149.37C741.153,149.443 737.873,149.013 735.18,148.08C733.76,147.587 733.173,146.433 733.42,144.62C734.62,135.78 736.497,123.513 739.05,107.82C739.33,106.1 740.383,105.263 742.21,105.31C746.937,105.437 751.493,106.367 755.88,108.1C760.98,110.12 763.28,116.54 763.24,121.76C763.2,128.473 761.857,135.12 759.21,141.7C758.33,143.91 755.81,147.56 753.03,147.54C750.44,147.52 750,144.5 749.86,142.85C749.834,142.527 749.919,142.205 750.1,141.94C754.68,135.4 755.89,126.87 755.03,119.13C754.66,115.81 752.46,113.24 748.77,113.28C746.943,113.3 745.817,114.417 745.39,116.63C744.943,118.95 744.05,124.737 742.71,133.99C742.277,137.017 742.233,139.463 742.58,141.33C742.645,141.685 742.837,142.004 743.12,142.23C743.98,142.89 744.977,143.163 746.11,143.05Z" style="fill:rgb(35,32,33);fill-rule:nonzero;"/>
        <path d="M492.78,139.3C491.747,139.467 490.863,139.743 490.13,140.13C489.151,140.655 488.482,141.615 488.33,142.71L487.53,148.52C487.25,150.559 485.597,152.154 483.55,152.36L483.31,152.39C483.228,152.397 483.145,152.4 483.062,152.4C481.356,152.4 479.952,150.996 479.952,149.29C479.952,149.217 479.955,149.143 479.96,149.07C480.72,137.81 481.56,126.393 482.48,114.82C482.687,112.167 482.97,110.447 483.33,109.66C483.495,109.307 483.742,108.998 484.05,108.76C485.043,108 486.28,107.503 487.76,107.27C489.233,107.037 490.56,107.13 491.74,107.55C492.107,107.684 492.436,107.903 492.7,108.19C493.28,108.83 494.077,110.38 495.09,112.84C499.51,123.58 503.807,134.19 507.98,144.67C508.129,145.04 508.206,145.435 508.206,145.833C508.206,147.271 507.209,148.53 505.81,148.86L505.57,148.9C503.555,149.333 501.49,148.319 500.6,146.46L498.07,141.18C497.586,140.182 496.647,139.474 495.55,139.28C494.737,139.133 493.813,139.14 492.78,139.3ZM490.26,132.14L492.79,131.76C493.325,131.678 493.724,131.214 493.724,130.673C493.724,130.615 493.719,130.557 493.71,130.5L493.54,129.36C493.54,129.359 493.54,129.359 493.54,129.358C492.951,125.464 491.448,122.413 490.212,122.6C490.211,122.6 490.02,122.63 490.02,122.63C490.017,122.63 490.014,122.631 490.011,122.631C488.774,122.818 488.241,126.176 488.83,130.07L489.01,131.22C489.102,131.814 489.665,132.229 490.26,132.14Z" style="fill:rgb(35,32,33);fill-rule:nonzero;"/>
        <path d="M977.43,126.02L977.61,127.35C977.627,127.475 977.636,127.601 977.636,127.727C977.636,129.258 976.376,130.517 974.846,130.517C974.458,130.517 974.075,130.436 973.72,130.28C964.493,126.227 957.51,123.043 952.77,120.73C950.463,119.603 949.093,118.023 948.66,115.99C948.073,113.277 949.077,111.747 951.67,111.4C952.803,111.247 954.647,111.8 957.2,113.06C957.653,113.287 963.033,115.767 973.34,120.5C975.56,121.513 977.107,123.602 977.43,126.02Z" style="fill:rgb(35,32,33);fill-rule:nonzero;"/>
        <path d="M794.64,154.94L794.44,155.41C793.84,157.154 792.034,158.207 790.22,157.87C785.09,156.91 771.44,155.07 772.58,149.03C774.487,138.997 776.647,128.067 779.06,116.24C779.6,113.57 779.57,111.53 783.26,112.04C788.973,112.827 794.04,113.747 798.46,114.8C800.324,115.245 801.531,117.09 801.19,118.97L801.18,119.02C800.871,120.732 799.243,121.911 797.52,121.67L789.51,120.55C787.855,120.321 786.27,121.368 785.83,122.98C785.323,124.827 785.2,126.47 785.46,127.91C785.659,129.013 786.5,129.902 787.6,130.17L795.09,131.98C795.155,131.996 795.22,132.014 795.284,132.034C796.796,132.51 797.646,134.151 797.168,135.669C797.147,135.733 797.125,135.797 797.1,135.86L796.94,136.28C796.337,137.972 794.551,138.958 792.81,138.56C788.39,137.553 785.487,137.317 784.1,137.85C783.283,138.12 782.675,138.823 782.52,139.68L781.39,145.82C781.111,147.338 782.084,148.829 783.59,149.19L792.87,151.44C794.022,151.721 794.839,152.761 794.839,153.947C794.839,154.288 794.771,154.625 794.64,154.94Z" style="fill:rgb(35,32,33);fill-rule:nonzero;"/>
        <path d="M422.66,134.18C420.62,132.893 419.783,130.823 420.15,127.97C420.63,124.197 422.583,121.28 426.01,119.22C429.56,117.09 435.27,116.28 438.57,119.26C440.19,120.72 442.11,124.78 440.81,127.1C440.8,127.117 440.791,127.134 440.781,127.151C440.147,128.223 438.829,128.634 437.861,128.061C437.844,128.051 437.827,128.041 437.81,128.03C433.96,125.6 430.85,121.84 427.85,128.34C426.59,131.06 425.97,132.36 423.7,134.13C423.402,134.364 422.984,134.384 422.66,134.18Z" style="fill:rgb(35,32,33);fill-rule:nonzero;"/>
        <path d="M819.82,132.89C819.697,133.137 819.443,133.294 819.167,133.294C819.022,133.294 818.88,133.251 818.76,133.17C817.507,132.303 816.417,131.323 815.49,130.23C812.96,127.25 813.69,125.75 814.73,122.53C815.597,119.87 817.317,118.86 819.89,119.5C827.21,121.32 837.76,122.24 837.6,132.54C837.56,135.307 837.137,137.48 836.33,139.06C835.34,141.01 833.27,142.88 832.47,145.07C832.299,145.544 832.237,146.053 832.29,146.56C832.823,151.947 831.99,157.79 829.79,164.09C829.277,165.55 828.27,166.22 826.77,166.1C823.69,165.86 822.43,164.153 822.99,160.98C823.99,155.22 826.34,148.93 820.88,145.99C819.933,145.485 818.794,145.637 818.11,146.36C815.53,149.12 814.49,155.4 813.69,158.91C813.684,158.935 813.679,158.959 813.673,158.983C813.147,161.108 810.961,162.423 808.831,161.896C808.811,161.891 808.79,161.885 808.77,161.88L808.53,161.82C806.714,161.374 805.583,159.518 806.02,157.7L810.38,139.71C810.505,139.198 810.945,138.819 811.47,138.77L818.53,138.16C818.928,138.121 819.328,138.201 819.68,138.39C820.6,138.863 821.783,139.21 823.23,139.43C825.877,139.83 827.81,138.853 829.03,136.5C830,134.61 830.27,130.89 828.67,129.29C827.543,128.163 826.063,127.527 824.23,127.38C820.65,127.09 820.89,130.7 819.82,132.89Z" style="fill:rgb(35,32,33);fill-rule:nonzero;"/>
        <path d="M387.96,159.47C386.89,160.88 388.57,165.96 389.82,170.73C389.896,171.021 389.934,171.32 389.934,171.62C389.934,173.243 388.816,174.666 387.24,175.05L387.08,175.09C385.206,175.541 383.284,174.433 382.74,172.59C378.747,159.03 375.413,147.517 372.74,138.05C371.95,135.27 372.73,133.95 375.41,133.01C377.383,132.317 378.96,131.893 380.14,131.74C381.346,131.587 382.539,132.14 383.2,133.16C383.933,134.287 386.25,138.67 390.15,146.31C390.863,147.697 391.667,148.833 392.56,149.72C392.729,149.888 392.957,149.982 393.194,149.982C393.552,149.982 393.878,149.768 394.02,149.44C394.373,148.62 394.53,147.643 394.49,146.51C394.263,140.15 394.023,135.337 393.77,132.07C393.63,130.16 393.78,128.44 395.51,127.41C397.61,126.15 399.87,125.583 402.29,125.71C402.717,125.729 403.113,125.938 403.37,126.28C404.29,127.527 404.947,128.82 405.34,130.16C408.567,141.16 411.75,152.113 414.89,163.02C415.484,165.066 414.334,167.245 412.31,167.91L412.22,167.94C410.454,168.528 408.516,167.559 407.92,165.79L403.8,153.52C403.67,153.141 403.311,152.885 402.911,152.885C402.578,152.885 402.269,153.063 402.1,153.35C401.827,153.81 401.71,154.54 401.75,155.54C401.963,160.107 402.157,163.34 402.33,165.24C402.68,169.07 401.86,171.67 397.76,171.83C395.95,171.9 394.85,170.25 394.13,168.81C392.05,164.757 390.317,161.657 388.93,159.51C388.822,159.339 388.633,159.235 388.431,159.235C388.246,159.235 388.071,159.322 387.96,159.47Z" style="fill:rgb(35,32,33);fill-rule:nonzero;"/>
        <path d="M1160.41,278.14C1159.744,278.886 1158.79,279.314 1157.79,279.314C1156.643,279.314 1155.566,278.751 1154.91,277.81C1143.597,261.617 1131.64,246.887 1119.04,233.62C1116.53,230.97 1115.12,228.99 1113.61,225.8C1113.187,224.909 1112.429,224.216 1111.5,223.87C1109.34,223.063 1107.32,221.773 1105.44,220C1069.48,186.09 1029.04,158.87 985.25,136.18C983.082,135.056 982.042,132.498 982.81,130.18L982.87,130C982.898,129.915 982.929,129.831 982.964,129.749C983.747,127.858 985.951,126.949 987.846,127.734C987.925,127.766 988.003,127.802 988.08,127.84C1032.14,149.913 1071.39,176.603 1105.83,207.91C1126.177,226.417 1144.577,247.46 1161.03,271.04C1162.496,273.141 1162.326,275.995 1160.62,277.9L1160.41,278.14Z" style="fill:rgb(35,32,33);fill-rule:nonzero;"/>
        <path d="M1117.8,256.06C1115.18,256.37 1113.63,260 1110.61,256.63C1078.71,220.98 1041.01,191.42 1000.01,168.01C984.83,159.34 978.6,155.26 967.05,150.05C960.95,147.297 956.48,145.107 953.64,143.48C947.49,139.96 948.56,134.32 952.48,129.86C953.252,128.979 954.512,128.691 955.59,129.15C961.55,131.69 967.493,134.48 973.42,137.52C975.53,138.6 975.74,140.55 975.17,143.05C974.597,145.543 974.417,147.643 974.63,149.35C974.701,149.94 975.207,150.389 975.801,150.389C975.955,150.389 976.108,150.358 976.25,150.3C980.29,148.68 982.78,142.01 987.76,144.76C1002.347,152.82 1016.323,161.003 1029.69,169.31C1045.857,179.35 1062.837,191.903 1080.63,206.97C1086.303,211.777 1092.037,217.15 1097.83,223.09C1104.17,229.6 1112.59,237.29 1119.99,245.52C1129.137,255.707 1137.763,266.77 1145.87,278.71C1146.39,279.474 1146.197,280.531 1145.44,281.07L1145.37,281.11C1145.073,281.321 1144.717,281.434 1144.352,281.434C1143.718,281.434 1143.132,281.092 1142.82,280.54C1141.733,278.633 1140.68,276.473 1139.66,274.06C1139.632,273.994 1139.602,273.93 1139.569,273.867C1139.008,272.798 1137.795,272.313 1136.881,272.793C1136.826,272.822 1136.772,272.854 1136.72,272.89C1135.813,273.503 1135.25,274.387 1135.03,275.54C1134.79,276.807 1134.323,278.957 1133.63,281.99C1133.602,282.106 1133.556,282.218 1133.494,282.32C1133.169,282.855 1132.466,283.029 1131.936,282.707C1131.832,282.644 1131.739,282.564 1131.66,282.47C1127.94,278.083 1123.627,272.607 1118.72,266.04C1116.43,262.98 1118.17,260.02 1118.36,256.59C1118.361,256.577 1118.361,256.563 1118.36,256.55C1118.351,256.27 1118.118,256.048 1117.844,256.057C1117.829,256.057 1117.814,256.058 1117.8,256.06Z" style="fill:rgb(35,32,33);fill-rule:nonzero;"/>
        <path d="M424.58,135.45L431.11,134.3C431.4,134.247 431.7,134.257 431.99,134.33C441.03,136.55 450.28,138.69 450,150.22C449.8,158.34 441.42,163.16 434.06,162.1C429.67,161.47 425.41,158.06 424.75,153.41C424.699,153.077 424.781,152.736 424.98,152.46C426.12,150.907 427.627,150.357 429.5,150.81C433.19,151.71 435.96,157.8 440.56,153.5C444.67,149.65 437.77,143.79 435.29,140.97C435.014,140.649 434.628,140.445 434.21,140.4C432.81,140.25 431.47,141.24 430.03,141.2C427.603,141.14 425.51,139.903 423.75,137.49C423.69,137.409 423.641,137.322 423.602,137.23C423.325,136.578 423.638,135.813 424.294,135.534C424.386,135.496 424.482,135.467 424.58,135.45Z" style="fill:rgb(35,32,33);fill-rule:nonzero;"/>
        <path d="M865.28,176.98C861.17,177.07 860.99,174.54 861.98,171.21C863.853,164.877 865.673,159.643 867.44,155.51C870.15,149.18 871.04,142.94 873.75,136.82C874.337,135.487 875.343,135.033 876.77,135.46C879.097,136.153 881.563,137.01 884.17,138.03C889.43,140.1 893.7,141.71 894.7,147.08C896.05,154.36 892.39,162.32 884.59,163.84C882.06,164.34 877.9,163.36 875.1,163.14C874.239,163.073 873.416,163.507 872.99,164.25L865.83,176.66C865.719,176.852 865.51,176.973 865.28,176.98ZM878.99,145.39L876,153.22C875.55,154.413 876.158,155.766 877.35,156.22L878.72,156.75C878.721,156.75 878.722,156.751 878.722,156.751C881.91,157.968 885.551,156.305 886.788,153.066C886.789,153.064 886.789,153.062 886.79,153.06L886.93,152.69C888.165,149.454 886.564,145.79 883.38,144.57L882,144.04C881.735,143.939 881.453,143.887 881.168,143.887C880.203,143.887 879.333,144.487 878.99,145.39Z" style="fill:rgb(35,32,33);fill-rule:nonzero;"/>
        <path d="M364.84,163.89C365.507,164.17 366.103,165.173 366.63,166.9C369.26,175.5 366.25,184.4 356.78,186.23C342.84,188.92 336.09,166.09 335.14,155.83C335.026,154.607 335.463,153.396 336.33,152.53C338.09,150.777 339.297,148.977 339.95,147.13C340.557,145.437 341.323,144.347 342.25,143.86C348.4,140.66 354.12,142.44 358.53,147.49C360.163,149.363 360.833,151.147 360.54,152.84C360.482,153.167 360.299,153.458 360.03,153.65C355.44,156.91 353.28,153.03 349.94,150.63C347.72,149.04 345.4,149.92 343.9,152.03C343.71,152.304 343.603,152.631 343.59,152.97C343.517,156.383 343.633,158.58 343.94,159.56C345.88,165.767 347.87,171.287 349.91,176.12C351.58,180.05 357.55,180.03 358.9,175.68C360.42,170.77 356.4,165.55 363.8,163.8C364.144,163.716 364.51,163.747 364.84,163.89Z" style="fill:rgb(35,32,33);fill-rule:nonzero;"/>
        <path d="M898.98,189.8L897.75,189.24C896.255,188.572 895.541,186.823 896.14,185.3C901.4,171.867 905.95,160.523 909.79,151.27C910.937,148.517 912.947,147.8 915.82,149.12C916.553,149.453 919.397,150.713 924.35,152.9C931.1,155.87 932.92,162.31 930.09,168.9C928.97,171.51 926,173.42 924.06,175.84C923.917,176.016 923.833,176.229 923.82,176.45L923.38,182.45C923.36,182.762 923.296,183.071 923.19,183.37L919.06,194.7C918.545,196.101 916.983,196.841 915.58,196.35L914.21,195.88C912.824,195.4 911.89,194.087 911.89,192.62C911.89,192.235 911.954,191.853 912.08,191.49L915.38,181.95C916.164,179.686 915.245,177.161 913.19,175.93L912.91,175.77C912.383,175.451 911.779,175.282 911.164,175.282C909.839,175.282 908.633,176.062 908.09,177.27L903.18,188.2C902.459,189.793 900.564,190.515 898.98,189.8ZM915.29,158.49L912.37,165.5C912.253,165.781 912.193,166.082 912.193,166.386C912.193,167.318 912.758,168.163 913.62,168.52L915.01,169.1C918.098,170.383 921.668,168.966 922.92,165.96L923.05,165.65C924.305,162.643 922.797,159.109 919.71,157.82L918.31,157.24C918.029,157.123 917.728,157.063 917.424,157.063C916.492,157.063 915.647,157.628 915.29,158.49Z" style="fill:rgb(35,32,33);fill-rule:nonzero;"/>
        <path d="M323.39,196.81C322.45,196.803 321.653,196.107 321,194.72C317.513,187.273 314.57,180.567 312.17,174.6C311.477,172.873 310.49,170.857 309.21,168.55C307.88,166.16 303.83,167.57 302.24,168.03C300.944,168.394 299.555,167.843 298.86,166.69C296.57,162.9 299.89,161.53 302.99,160.03C307.65,157.77 312.77,156.257 318.35,155.49C318.547,155.461 318.738,155.569 318.81,155.75C319.25,156.857 319.507,158.05 319.58,159.33C319.605,159.739 319.435,160.139 319.12,160.41C316.82,162.363 316.45,164.98 318.01,168.26C319.063,170.487 320.683,174.343 322.87,179.83C324.763,184.563 325.177,190.023 324.11,196.21C324.047,196.557 323.742,196.811 323.39,196.81Z" style="fill:rgb(35,32,33);fill-rule:nonzero;"/>
        <path d="M947.94,174.21L948.1,171.94C948.264,169.645 949.958,167.728 952.22,167.28C957.92,166.15 964.28,169.21 966.64,174.33C967.9,177.07 968.013,180.547 966.98,184.76C965.1,192.453 961.55,199.31 956.33,205.33C955.59,206.177 954.707,206.623 953.68,206.67C952.826,206.718 952.006,206.073 951.7,205.11C950.74,202.1 951.17,199.76 952.66,196.82C954.93,192.33 962.53,179.32 957.97,175.45C956.55,174.237 954.387,174.537 951.48,176.35C951.112,176.579 950.687,176.701 950.254,176.701C948.981,176.701 947.934,175.653 947.934,174.381C947.934,174.324 947.936,174.267 947.94,174.21Z" style="fill:rgb(35,32,33);fill-rule:nonzero;"/>
        <path d="M279.39,206.72C280.797,204.853 282.63,204.38 284.89,205.3C288.17,206.61 293.82,209.95 294.79,203.37C295.34,199.63 292.08,197.02 288.53,196.51C279.91,195.27 271.19,196.73 268.61,185.9C267.63,181.813 268.517,178.423 271.27,175.73C274.25,172.83 277.477,171.363 280.95,171.33C284.49,171.303 287.427,172.84 289.76,175.94C290.5,176.927 290.613,177.85 290.1,178.71C288.56,181.32 285.94,181.32 283.33,180.12C281.59,179.307 280.443,178.917 279.89,178.95C276.67,179.11 275.21,182.06 276.86,184.67C279.58,188.98 285.82,187.87 290.57,188.46C296.703,189.213 300.627,192.443 302.34,198.15C304.6,205.67 300.23,211.48 293.22,214.06C287.97,216.01 282.38,214.33 279.43,209.54C278.841,208.586 278.825,207.459 279.39,206.72Z" style="fill:rgb(35,32,33);fill-rule:nonzero;"/>
        <g transform="matrix(0.999994,-0.003491,0.003491,0.999994,620.78,202.4)">
            <path d="M6.84,-22.99L6.84,22.99C6.84,24.905 5.285,26.46 3.37,26.46L-3.37,26.46C-5.285,26.46 -6.84,24.905 -6.84,22.99L-6.84,-22.99C-6.84,-24.905 -5.285,-26.46 -3.37,-26.46L3.37,-26.46C5.285,-26.46 6.84,-24.905 6.84,-22.99Z" style="fill:rgb(35,32,33);"/>
        </g>
        <path d="M687.46,181.54C687.49,181.702 687.505,181.867 687.505,182.032C687.505,183.468 686.355,184.664 684.92,184.72C682.247,184.833 678.32,185.72 673.14,187.38C670.493,188.233 669.12,189.857 669.02,192.25C668.5,204.603 667.977,215.35 667.45,224.49C667.403,225.243 667.193,226.377 666.82,227.89C666.638,228.614 666.032,229.16 665.29,229.27C661.163,229.857 657.64,229.8 654.72,229.1C654.4,229.023 654.127,228.825 653.96,228.55C653.393,227.657 653.143,226.63 653.21,225.47C653.723,216.343 654.283,204.95 654.89,191.29C655.003,188.777 653.873,187.36 651.5,187.04C649.787,186.807 646.287,186.573 641,186.34C636.19,186.12 637.3,180.64 637.76,177.37C637.816,176.993 638.087,176.683 638.45,176.58C640.097,176.113 641.447,175.9 642.5,175.94C651.593,176.24 665.313,176.923 683.66,177.99C685.514,178.096 687.069,179.464 687.41,181.29L687.46,181.54Z" style="fill:rgb(35,32,33);fill-rule:nonzero;"/>
        <path d="M943.07,176.29C944.05,178.84 946.25,182.64 945.33,185.6C944.883,187.02 943.887,189.863 942.34,194.13C941.17,197.35 941.63,200.24 944.33,202.85C945.67,204.143 946.053,205.967 945.48,208.32C945.293,209.094 944.538,209.605 943.75,209.49C935.09,208.27 932.69,201.19 934.13,193.39C935.343,186.777 938.07,181.03 942.31,176.15C942.395,176.053 942.519,175.997 942.648,175.997C942.836,175.997 943.005,176.114 943.07,176.29Z" style="fill:rgb(35,32,33);fill-rule:nonzero;"/>
        <path d="M579.86,179.83C579.862,179.826 579.865,179.822 579.867,179.817C580.114,179.371 580.681,179.205 581.122,179.45C581.128,179.453 581.134,179.457 581.14,179.46L584.92,181.65C586.214,182.394 587.879,182.048 588.77,180.85L590.98,177.88C591.293,177.45 591.729,177.122 592.23,176.94C594.043,176.28 595.833,176.14 597.6,176.52C598.469,176.711 599.123,177.434 599.22,178.31C600.473,189.73 601.59,202.79 602.57,217.49C602.78,220.62 603.15,223.49 602.69,226.63C602.569,227.48 601.951,228.181 601.12,228.41C597.8,229.337 594.757,229.557 591.99,229.07C591.555,228.994 591.181,228.716 590.98,228.32C590.58,227.547 590.227,226.283 589.92,224.53C589.867,224.203 589.22,217.293 587.98,203.8C587.913,203.06 587.773,202.42 587.56,201.88C587.49,201.701 587.375,201.543 587.226,201.421C586.746,201.028 586.026,201.103 585.63,201.587C585.508,201.736 585.426,201.912 585.39,202.1C583.743,210.773 582.413,217.77 581.4,223.09C580.67,226.87 580.43,230.2 576.2,230.62C572.853,230.953 570.027,230.983 567.72,230.71C567.071,230.63 566.521,230.192 566.3,229.58L557.35,204.83C557.152,204.293 556.637,203.934 556.065,203.934C555.547,203.934 555.072,204.227 554.84,204.69C554.787,204.79 554.777,205.23 554.81,206.01C554.93,208.977 555.46,216.727 556.4,229.26C556.488,230.414 555.757,231.483 554.65,231.82C552.05,232.63 541.81,235.13 543.77,228.39C543.867,228.053 544.079,227.757 544.37,227.55L547.04,225.65C547.457,225.354 547.705,224.873 547.705,224.362C547.705,223.788 547.392,223.258 546.89,222.98C543.997,221.373 542.407,218.86 542.12,215.44C541.367,206.507 540.633,197.277 539.92,187.75C539.67,184.53 539.03,180.78 543.32,180.27C548.127,179.697 552.643,179.427 556.87,179.46C557.959,179.473 558.949,180.102 559.42,181.08C560.46,183.24 561.233,185.053 561.74,186.52C563.26,190.913 566.16,198.927 570.44,210.56C570.657,211.149 571.221,211.542 571.848,211.542C572.144,211.542 572.434,211.454 572.68,211.29C573.34,210.843 573.757,210.133 573.93,209.16C575.203,202.033 576.91,193.08 579.05,182.3C579.25,181.287 579.52,180.463 579.86,179.83Z" style="fill:rgb(35,32,33);fill-rule:nonzero;"/>
        <path d="M706.44,232.74C705.973,232.06 705.887,230.55 706.18,228.21C707.987,213.75 709.357,203.267 710.29,196.76C710.63,194.35 710.29,192.72 708.31,191.08C704.89,188.233 701.18,186.997 697.18,187.37C697.104,187.377 697.028,187.381 696.952,187.382C695.427,187.398 694.159,186.161 694.143,184.641C694.142,184.564 694.144,184.487 694.15,184.41L694.32,182.07C694.431,180.52 695.752,179.315 697.3,179.35C699.26,179.397 701.823,179.63 704.99,180.05C718.07,181.797 730.013,183.407 740.82,184.88C743.92,185.3 743.62,187.58 743.53,190.36C743.49,191.52 743.237,192.58 742.77,193.54C742.33,194.456 741.367,195.013 740.35,194.94L727.59,194.02C726.833,193.964 726.1,194.305 725.66,194.92C725,195.84 724.597,196.867 724.45,198C722.81,210.867 721.357,221.563 720.09,230.09C719.89,231.423 719.667,232.44 719.42,233.14C719.06,234.153 718.099,234.838 717.02,234.85C713.74,234.89 710.473,234.38 707.22,233.32C706.902,233.216 706.628,233.013 706.44,232.74Z" style="fill:rgb(35,32,33);fill-rule:nonzero;"/>
        <path d="M993.82,186.71C996.46,188.183 999.307,189.86 1002.36,191.74C1003.818,192.635 1004.323,194.544 1003.5,196.05L1003.37,196.28C1002.586,197.667 1000.91,198.301 999.41,197.78L995.66,196.48C994.324,196.016 992.83,196.567 992.11,197.79C986.597,207.163 981.623,215.623 977.19,223.17C975.81,225.52 974.18,225.9 971.87,224.56C969.56,223.22 969.09,221.62 970.44,219.26C974.787,211.66 979.657,203.14 985.05,193.7C985.754,192.469 985.494,190.901 984.43,189.97L981.44,187.36C980.242,186.319 979.958,184.55 980.77,183.18L980.91,182.95C981.808,181.492 983.711,180.983 985.21,181.8C988.363,183.513 991.233,185.15 993.82,186.71Z" style="fill:rgb(35,32,33);fill-rule:nonzero;"/>
        <path d="M508.05,187.43C508.284,187.494 508.447,187.708 508.447,187.951C508.447,188.026 508.431,188.101 508.4,188.17C506.87,191.6 506.01,196.27 501.67,197.21C497.837,198.037 494.64,198.733 492.08,199.3C489.927,199.78 489.037,201.103 489.41,203.27C490.743,211.077 492.3,219.303 494.08,227.95C494.49,229.97 495.58,230.74 497.79,230.63C502.25,230.403 506.23,229.437 509.73,227.73C517.76,223.81 517.79,211.15 513.98,204.52C512.1,201.247 510.987,199.117 510.64,198.13C510.429,197.51 510.351,196.853 510.41,196.2C510.657,193.407 511.413,191.017 512.68,189.03C513.227,188.168 514.292,187.78 515.26,188.09C532,193.46 534.94,222.04 523.11,232.7C522.153,233.562 520.769,233.778 519.59,233.25L517.42,232.27C516.428,231.829 515.32,231.731 514.27,231.99L505.77,234.1C504.425,234.433 503.266,235.286 502.55,236.47C500.93,239.13 499.88,241.05 496.35,241.64C490.263,242.653 486.887,243.223 486.22,243.35C484.153,243.717 482.917,242.857 482.51,240.77C479.697,226.343 476.897,211.583 474.11,196.49C473.63,193.89 474.46,192.287 476.6,191.68C486.173,188.967 495.55,187.423 504.73,187.05C505.917,187.003 507.023,187.13 508.05,187.43Z" style="fill:rgb(35,32,33);fill-rule:nonzero;"/>
        <path d="M263.1,231.39C261.9,232.123 260.353,232.763 258.46,233.31C251.87,235.23 247.84,231.23 244.43,226.1C241.423,221.567 236.78,214.077 230.5,203.63C230.5,203.629 230.499,203.629 230.499,203.628C229.4,201.792 230.003,199.38 231.834,198.284C231.836,198.282 231.838,198.281 231.84,198.28L231.99,198.2C233.813,197.111 236.208,197.705 237.31,199.52C243.977,210.46 248.437,217.64 250.69,221.06C253.603,225.48 256.46,226.833 259.26,225.12C262.06,223.407 262.157,220.247 259.55,215.64C257.523,212.08 253.157,204.843 246.45,193.93C245.333,192.124 245.891,189.719 247.69,188.59L247.83,188.49C247.832,188.489 247.834,188.488 247.836,188.486C249.645,187.356 252.066,187.917 253.2,189.73C259.647,200.077 264.207,207.62 266.88,212.36C269.9,217.73 271.62,223.14 266.92,228.13C265.567,229.57 264.293,230.657 263.1,231.39Z" style="fill:rgb(35,32,33);fill-rule:nonzero;"/>
        <path d="M792.2,240.65C792.613,243.19 792.09,245.577 790.63,247.81C790.054,248.697 788.981,249.133 787.95,248.9C772.497,245.413 760.82,242.803 752.92,241.07C752.04,240.877 750.4,240.403 748,239.65C745.9,238.99 745.16,237.82 745.63,235.71C748.27,223.783 751.49,209.48 755.29,192.8C755.97,189.81 756.77,187.7 760.5,188.53C775.04,191.797 786.933,194.47 796.18,196.55C801.57,197.75 800.86,201.72 798.92,205.48C798.433,206.43 797.434,207.016 796.36,206.98C795.047,206.94 793.91,206.81 792.95,206.59C785.577,204.883 779.923,203.603 775.99,202.75C773.71,202.257 771.67,201.99 769.87,201.95C768.585,201.919 767.418,202.73 766.99,203.95C766.47,205.457 766.277,206.843 766.41,208.11C766.542,209.418 767.494,210.503 768.77,210.8C777.17,212.753 784.267,214.47 790.06,215.95C794.75,217.14 793.55,220.32 792.35,223.71C791.34,226.55 788.51,225.98 785.96,225.38C778.38,223.613 772.32,222.29 767.78,221.41C762.95,220.48 762.36,223.52 761.54,227.61C760.973,230.43 762.133,232.17 765.02,232.83C773.4,234.743 781.893,236.737 790.5,238.81C791.388,239.022 792.062,239.752 792.2,240.65Z" style="fill:rgb(35,32,33);fill-rule:nonzero;"/>
        <path d="M1032.93,216.12C1032.4,217.036 1031.418,217.601 1030.36,217.601C1029.837,217.601 1029.323,217.463 1028.87,217.2L1021.86,213.16C1020.225,212.219 1018.124,212.651 1017,214.16L1015.77,215.82C1014.458,217.59 1014.832,220.125 1016.6,221.44L1022,225.45C1023.366,226.461 1023.718,228.384 1022.8,229.82L1022.59,230.14C1021.648,231.616 1019.663,232.066 1018.17,231.14L1011.89,227.24C1010.702,226.504 1009.157,226.652 1008.13,227.6C1006.357,229.247 1005.013,231.217 1004.1,233.51C1003.576,234.826 1004.005,236.34 1005.14,237.18L1012.29,242.49C1012.981,243.003 1013.389,243.814 1013.389,244.674C1013.389,245.411 1013.09,246.118 1012.56,246.63L1012.28,246.9C1011.039,248.207 1009.024,248.452 1007.5,247.48C1002.347,244.18 997.963,241.163 994.35,238.43C992.817,237.27 992.6,235.86 993.7,234.2C1000.38,224.147 1007.207,214.133 1014.18,204.16C1016.92,200.24 1018.93,202.26 1022.12,204.36C1024.96,206.233 1028.31,208.543 1032.17,211.29C1033.587,212.303 1034.01,214.246 1033.14,215.75L1032.93,216.12Z" style="fill:rgb(35,32,33);fill-rule:nonzero;"/>
        <path d="M444.78,243.89C442.68,244.517 440.417,245.203 437.99,245.95C434.32,247.09 434.21,250.58 434.01,253.78C433.76,257.78 431.67,258.75 428.33,259.8C425.13,260.807 423.01,261.307 421.97,261.3C420.31,261.287 419.553,260.273 419.7,258.26C419.707,258.153 421.4,242.283 424.78,210.65C425.38,205.1 427.64,204.78 432.6,203.29C437.57,201.8 439.63,200.82 443.18,205.13C463.413,229.677 473.563,241.993 473.63,242.08C474.857,243.68 474.783,244.943 473.41,245.87C472.543,246.45 470.497,247.2 467.27,248.12C463.9,249.08 461.63,249.42 459.22,246.22C457.29,243.66 455.27,240.8 451.58,241.88C449.147,242.587 446.88,243.257 444.78,243.89ZM434.95,232.89C434.945,232.957 434.942,233.024 434.942,233.091C434.942,234.446 436.057,235.561 437.412,235.561C437.648,235.561 437.883,235.527 438.11,235.46L445.27,233.37C446.32,233.063 447.047,232.093 447.047,230.999C447.047,230.457 446.869,229.931 446.54,229.5L440.21,221.14C439.743,220.525 439.014,220.162 438.242,220.162C436.963,220.162 435.885,221.155 435.78,222.43L434.95,232.89Z" style="fill:rgb(35,32,33);fill-rule:nonzero;"/>
        <path d="M827.64,217.75C826.733,218.13 825.833,219.53 824.94,221.95C823.56,225.683 822.417,228.933 821.51,231.7C818.93,239.6 815.72,246.59 811.96,253.72C811.553,254.49 810.725,254.948 809.86,254.88C807.38,254.693 804.92,254.02 802.48,252.86C801.609,252.443 801.071,251.541 801.12,250.58C801.207,248.927 801.457,247.527 801.87,246.38C805.35,236.653 807.847,229.43 809.36,224.71C811.16,219.11 813.91,215.04 818.28,211.79C821.927,209.077 823.873,207.62 824.12,207.42C826.85,205.15 828.61,205.98 831.85,207.18C838.743,209.72 844.293,211.913 848.5,213.76C852.553,215.54 855.147,218.2 856.28,221.74C858.22,227.84 859.31,231.423 859.55,232.49C861,238.8 858.58,244.38 855.68,249.86C853.4,254.173 849.713,257.737 844.62,260.55C836.86,264.85 828.37,261.91 820.36,259.16C817.247,258.087 815.927,255.753 816.4,252.16C817.16,246.33 823.29,249.33 827.2,250.55C832.753,252.29 837.313,250.983 840.88,246.63C845.447,241.043 847.187,234.667 846.1,227.5C845.27,222 833.62,218.52 829.01,217.61C828.546,217.525 828.071,217.574 827.64,217.75Z" style="fill:rgb(35,32,33);fill-rule:nonzero;"/>
        <path d="M227.52,246.32C232.08,244.77 226.62,237.86 231.99,234.93C235.93,232.78 237.01,237.5 236.81,240.41C236.59,243.52 232.76,248.26 230.83,250.58C230.034,251.534 228.827,252.048 227.59,251.96L217.22,251.21C216.751,251.177 216.304,250.999 215.94,250.7C208.687,244.747 203.757,237.383 201.15,228.61C198.85,220.86 206.43,211.74 214.73,213.08C216.75,213.4 224.21,216.67 222.4,220.06C218.85,226.72 213.06,217.63 209.3,222.59C205.31,227.85 220.84,248.59 227.52,246.32Z" style="fill:rgb(35,32,33);fill-rule:nonzero;"/>
        <path d="M1038.79,244.03C1036.603,246.603 1034.703,249.443 1033.09,252.55C1031.45,255.71 1031.59,260.47 1036.53,260.01C1038.57,259.82 1041.89,257.61 1044.71,260.33C1047.52,263.05 1044.63,265.08 1042.24,266.56C1039.587,268.2 1036.607,268.563 1033.3,267.65C1026.22,265.68 1022.34,258.36 1024.9,251.3C1026.6,246.593 1029.07,242.333 1032.31,238.52C1035.557,234.707 1039.367,231.583 1043.74,229.15C1050.29,225.49 1058.14,228.15 1061.22,234.82C1062.653,237.933 1062.773,240.933 1061.58,243.82C1060.51,246.41 1058.97,249.59 1055.83,247.25C1052.69,244.91 1054.34,241.28 1054.2,239.23C1053.86,234.28 1049.14,234.91 1046.29,237.03C1043.477,239.123 1040.977,241.457 1038.79,244.03Z" style="fill:rgb(35,32,33);fill-rule:nonzero;"/>
        <path d="M1092.58,268.25L1091.38,269.58C1090.568,270.482 1089.186,270.622 1088.21,269.9L1083.97,266.75C1083.865,266.671 1083.741,266.623 1083.61,266.61C1082.557,266.49 1081.587,266.853 1080.7,267.7C1071.2,276.707 1064.193,283.327 1059.68,287.56C1058.107,289.038 1055.661,289.128 1053.99,287.77L1053.79,287.61C1052.985,286.957 1052.517,285.974 1052.517,284.938C1052.517,284.023 1052.882,283.145 1053.53,282.5C1062.583,273.453 1069.577,266.717 1074.51,262.29C1077.53,259.57 1074.31,255.88 1072.79,253.36C1072.561,252.982 1072.55,252.512 1072.76,252.13C1073.97,249.88 1076.64,247.96 1078.88,250.37C1080.847,252.497 1085.397,257.323 1092.53,264.85C1093.429,265.791 1093.451,267.283 1092.58,268.25Z" style="fill:rgb(35,32,33);fill-rule:nonzero;"/>
        <path d="M159.95,271.46C160.531,272.048 160.638,272.963 160.21,273.67C157.83,277.64 154.99,276.4 151.26,277.06C149.943,277.291 148.941,278.195 148.8,279.28C148.48,281.78 149.483,283.483 151.81,284.39C155.7,285.91 161.86,281.64 165.73,281.05C171.957,280.097 176.86,282.263 180.44,287.55C185.36,294.82 178.8,304.32 171.75,307.03C168.69,308.203 165.547,307.58 162.32,305.16C161.992,304.909 161.774,304.544 161.71,304.14C161.457,302.587 162.307,301.343 164.26,300.41C166.45,299.35 171,299.67 172.45,298.54C174.18,297.2 175.06,295.49 174.18,293.32C172.893,290.153 170.24,288.98 166.22,289.8C163.493,290.36 160.233,291.323 156.44,292.69C150.56,294.81 144.56,290.88 142.12,285.95C138.62,278.88 144.29,269.72 151.92,268.83C155.153,268.45 157.83,269.327 159.95,271.46Z" style="fill:rgb(35,32,33);fill-rule:nonzero;"/>
        <g transform="matrix(0.714473,-0.699663,0.699663,0.714473,192.91,278.28)">
            <path d="M3.85,-2.04L3.85,2.04C3.85,3.685 2.515,5.02 0.87,5.02L-0.87,5.02C-2.515,5.02 -3.85,3.685 -3.85,2.04L-3.85,-2.04C-3.85,-3.685 -2.515,-5.02 -0.87,-5.02L0.87,-5.02C2.515,-5.02 3.85,-3.685 3.85,-2.04Z" style="fill:rgb(35,32,33);"/>
        </g>
        <g transform="matrix(0.788011,-0.615661,0.615661,0.788011,1088.82,294.57)">
            <path d="M21.88,-0.35L21.88,0.35C21.88,2.359 20.249,3.99 18.24,3.99L-18.24,3.99C-20.249,3.99 -21.88,2.359 -21.88,0.35L-21.88,-0.35C-21.88,-2.359 -20.249,-3.99 -18.24,-3.99L18.24,-3.99C20.249,-3.99 21.88,-2.359 21.88,-0.35Z" style="fill:rgb(35,32,33);"/>
        </g>
        <path d="M1165.37,287.24L1168.71,288.05C1171.21,288.655 1173.351,290.271 1174.62,292.51C1183.26,307.717 1190.297,322.723 1195.73,337.53C1217.92,398 1216.57,463.9 1191.28,523.35C1161.83,592.58 1108.11,646.79 1045.84,688.08C982.27,730.24 910.17,759.51 835.28,777.82C832.76,778.433 830.59,777.97 828.77,776.43C828.694,776.366 828.614,776.308 828.529,776.256C827.588,775.682 826.32,776.018 825.719,777.001C825.667,777.088 825.62,777.177 825.58,777.27C824.34,780.14 822.93,780.82 819.73,781.58C797.19,786.89 771.83,790.72 750.03,794.15C738.41,795.983 726.053,797.53 712.96,798.79C659.747,803.91 606.343,804.377 552.75,800.19C542.823,799.417 526.3,797.703 503.18,795.05C501.273,794.828 499.819,793.195 499.819,791.275C499.819,790.904 499.873,790.535 499.98,790.18L500.06,789.92C500.809,787.44 503.251,785.835 505.83,786.13C535.51,789.51 555.567,791.537 566,792.21C574.267,792.743 589.21,793.247 610.83,793.72C650.17,794.59 688.58,792.25 726.5,788.22C733.947,787.427 746.46,785.683 764.04,782.99C779.127,780.677 791.57,778.51 801.37,776.49C838.943,768.743 875.8,758.297 911.94,745.15C963.03,726.56 1012.84,701.4 1057.07,669.55C1077.79,654.62 1097.07,637.87 1114.43,620.47C1145.8,589.02 1173.25,549.21 1188.01,507.06C1206.137,455.307 1207.163,403.417 1191.09,351.39C1185.277,332.577 1175.94,312.22 1163.08,290.32C1162.946,290.089 1162.857,289.834 1162.819,289.57C1162.653,288.435 1163.446,287.366 1164.575,287.201C1164.84,287.163 1165.11,287.176 1165.37,287.24Z" style="fill:rgb(35,32,33);fill-rule:nonzero;"/>
        <path d="M1152.4,291.29C1152.476,291.056 1152.696,290.896 1152.942,290.896C1153.106,290.896 1153.262,290.967 1153.37,291.09C1156.06,294.1 1158.07,297.89 1160.23,301.71C1170.557,319.903 1178.59,338.963 1184.33,358.89C1200.14,413.76 1195.31,472.81 1171.9,524.65C1155.56,560.84 1132.7,592.21 1104.67,620.18C1061.56,663.21 1007.42,697.47 950.93,722.72C906.657,742.507 859.84,757.76 810.48,768.48C785.673,773.867 762.917,777.91 742.21,780.61C727.843,782.483 710.78,784.213 691.02,785.8C675.92,787.013 661.55,787.687 647.91,787.82C623.71,788.047 609.323,788.18 604.75,788.22C596.663,788.287 588.747,788.04 581,787.48C557.74,785.813 533.11,783.52 507.11,780.6C503.37,780.18 498.21,778.75 493.94,778.26C486.06,777.35 481.54,776.99 474.43,775.48C470.283,774.593 465.387,773.68 459.74,772.74C432.78,768.27 408.6,761.3 376.63,752.4C373.41,751.5 370.657,749.873 368.37,747.52C367.845,746.97 367.047,746.768 366.32,747C361.94,748.413 358.417,747.26 355.75,743.54C355.455,743.128 354.918,742.96 354.44,743.13C351.333,744.257 348.827,743.75 346.92,741.61C346.263,740.878 346.268,739.753 346.93,739.02L353.46,731.75C354.282,730.836 355.577,730.5 356.74,730.9L372.88,736.49C373.185,736.592 373.391,736.88 373.391,737.201C373.391,737.483 373.232,737.742 372.98,737.87L369.87,739.48C369.817,739.507 369.767,739.54 369.721,739.579C369.39,739.859 369.351,740.365 369.634,740.7C369.672,740.744 369.714,740.785 369.76,740.82C371.713,742.287 373.683,742.957 375.67,742.83C377.98,742.69 379.68,740.86 381.48,740.22C382.86,739.72 384.513,739.753 386.44,740.32C416.44,749.2 445.29,756.017 472.99,760.77C506.51,766.51 538.933,770.31 570.26,772.17C608.7,774.44 644.29,774.71 680,772.28C689.947,771.6 704.817,770.193 724.61,768.06C738.197,766.593 755.62,764.033 776.88,760.38C824.02,752.28 870.33,739.417 915.81,721.79C947.29,709.59 977.507,694.907 1006.46,677.74C1043.04,656.047 1075.313,630.417 1103.28,600.85C1139.45,562.6 1166.6,515.48 1175.76,463.92C1184.59,414.26 1176.23,364 1153.11,318.83C1149.43,311.65 1147.513,307.893 1147.36,307.56C1146.765,306.326 1146.86,304.866 1147.61,303.72C1150.32,299.58 1150.82,296.22 1152.4,291.29Z" style="fill:rgb(35,32,33);fill-rule:nonzero;"/>
        <path d="M1123.98,322.8C1123.513,325.467 1122.753,327.253 1121.7,328.16C1114.82,334.05 1098.29,344.14 1090.23,335.94C1085.34,330.98 1083.83,324.32 1088.65,318.63C1094.89,311.277 1102.713,306.437 1112.12,304.11C1120.59,302.02 1127.77,307.97 1128.35,316.55C1128.55,319.51 1126.74,320.61 1124.55,321.96C1124.251,322.145 1124.044,322.45 1123.98,322.8ZM1093.81,326.33C1093.41,330.85 1097.6,331.86 1101,330.5C1105.16,328.84 1110.673,326.273 1117.54,322.8C1119.6,321.75 1120.6,317.35 1120.55,316C1120.13,304.44 1094.4,319.76 1093.81,326.33Z" style="fill:rgb(35,32,33);fill-rule:nonzero;"/>
        <g transform="matrix(0.834848,0.550481,-0.550481,0.834848,157.45,320.92)">
            <path d="M5.26,-0.37L5.26,0.37C5.26,2.346 3.656,3.95 1.68,3.95L-1.68,3.95C-3.656,3.95 -5.26,2.346 -5.26,0.37L-5.26,-0.37C-5.26,-2.346 -3.656,-3.95 -1.68,-3.95L1.68,-3.95C3.656,-3.95 5.26,-2.346 5.26,-0.37Z" style="fill:rgb(35,32,33);"/>
        </g>
        <path d="M106.82,334.78C107.455,334.427 108.221,334.39 108.89,334.68C111.73,335.927 119.473,339.58 132.12,345.64C134.3,346.68 136.533,347.217 138.82,347.25C141.77,347.3 143.31,343.39 142.74,341.12C142.46,340.033 141.42,338.963 139.62,337.91C131.41,333.11 123.67,329.6 114.75,325.23C112.878,324.31 112.066,322.038 112.93,320.14L113.03,319.92C113.036,319.907 113.042,319.894 113.048,319.881C113.888,318.07 116.075,317.273 117.891,318.116C117.901,318.121 117.91,318.125 117.92,318.13C130.227,323.977 137.553,327.537 139.9,328.81C141.28,329.563 142.613,330.923 143.9,332.89C146.233,336.463 147.987,339.27 149.16,341.31C150.98,344.49 149.26,348.1 146.91,351.2C141.23,358.65 134.46,355.51 126.57,351.72C116.483,346.887 110.67,344.1 109.13,343.36C107.323,342.487 106.033,341.68 105.26,340.94C104.405,340.123 104.138,338.859 104.59,337.77C105.23,336.25 105.973,335.253 106.82,334.78Z" style="fill:rgb(35,32,33);fill-rule:nonzero;"/>
        <path d="M1129.03,364.12C1129.903,364.22 1131.053,364 1132.48,363.46C1136.72,361.873 1140.903,360.477 1145.03,359.27C1145.304,359.191 1145.587,359.152 1145.872,359.152C1147.356,359.152 1148.636,360.236 1148.88,361.7L1148.91,361.87C1149.217,363.729 1148.149,365.561 1146.38,366.21C1131.033,371.843 1119.737,375.833 1112.49,378.18C1110.45,378.847 1108.903,378.34 1107.85,376.66C1106.157,373.973 1106.453,371.583 1108.74,369.49C1110.347,368.023 1114.817,364.17 1122.15,357.93C1122.81,357.363 1123.19,356.787 1123.29,356.2C1123.304,356.121 1123.312,356.041 1123.312,355.961C1123.312,355.232 1122.711,354.631 1121.982,354.631C1121.838,354.631 1121.696,354.655 1121.56,354.7L1105.27,360.14C1104.967,360.241 1104.65,360.293 1104.331,360.293C1102.946,360.293 1101.738,359.322 1101.44,357.97L1101.35,357.58C1100.825,355.746 1101.814,353.795 1103.6,353.14C1109.407,351 1120.623,347.017 1137.25,341.19C1139.997,340.223 1141.867,341.067 1142.86,343.72C1143.953,346.64 1143.327,349.057 1140.98,350.97C1135.44,355.477 1131.217,359.17 1128.31,362.05C1128.211,362.147 1128.13,362.26 1128.07,362.384C1127.78,362.981 1128.036,363.713 1128.639,364.005C1128.762,364.065 1128.894,364.104 1129.03,364.12Z" style="fill:rgb(35,32,33);fill-rule:nonzero;"/>
        <path d="M1140.61,425.15L1164.05,425.74C1164.649,425.754 1165.134,426.251 1165.134,426.85C1165.134,427.194 1164.973,427.52 1164.7,427.73L1146.13,442.06C1145.768,442.338 1145.613,442.812 1145.74,443.25L1152.43,465.74C1152.46,465.842 1152.475,465.947 1152.475,466.053C1152.475,466.662 1151.974,467.163 1151.365,467.163C1151.142,467.163 1150.924,467.095 1150.74,466.97L1131.38,453.73C1131.002,453.469 1130.498,453.469 1130.12,453.73L1110.8,467.04C1110.616,467.165 1110.398,467.233 1110.175,467.233C1109.566,467.233 1109.065,466.732 1109.065,466.123C1109.065,466.017 1109.08,465.912 1109.11,465.81L1115.72,443.31C1115.852,442.869 1115.696,442.389 1115.33,442.11L1096.7,427.85C1096.426,427.64 1096.266,427.314 1096.266,426.969C1096.266,426.374 1096.745,425.879 1097.34,425.86L1120.79,425.19C1121.25,425.179 1121.657,424.883 1121.81,424.45L1129.61,402.33C1129.768,401.89 1130.187,401.594 1130.655,401.594C1131.123,401.594 1131.542,401.89 1131.7,402.33L1139.59,424.42C1139.746,424.85 1140.153,425.141 1140.61,425.15Z" style="fill:rgb(35,32,33);fill-rule:nonzero;"/>
        <path d="M145.72,466.08L144.05,464.19C143.636,463.717 143.115,463.35 142.53,463.12C139.81,462.06 137.29,461.6 134.1,459.53C133.853,459.37 130.277,456.8 123.37,451.82C123.355,451.809 123.34,451.799 123.325,451.789C122.833,451.469 122.162,451.615 121.839,452.112C121.829,452.128 121.819,452.144 121.81,452.16L119.32,456.46C119.017,456.987 118.604,457.444 118.11,457.8L105.27,466.93C105.122,467.035 104.944,467.091 104.762,467.091C104.362,467.091 104.01,466.818 103.91,466.43C103.637,465.323 103.663,464.26 103.99,463.24C106.37,455.827 107.98,450.77 108.82,448.07C109.387,446.257 109.657,444.8 109.63,443.7C109.592,442.346 108.922,441.083 107.82,440.29C100.38,434.977 95.503,431.447 93.19,429.7C92.477,429.16 91.65,428.353 90.71,427.28C90.563,427.111 90.482,426.894 90.482,426.669C90.482,426.171 90.882,425.757 91.38,425.74C96.533,425.613 103.703,425.507 112.89,425.42C117.34,425.38 117.65,418.98 120.15,416.14C122.117,413.907 124.507,412.227 127.32,411.1C127.495,411.03 127.681,410.994 127.87,410.994C128.48,410.994 129.03,411.371 129.25,411.94L134.98,426.62C135.21,427.213 135.306,427.851 135.26,428.49L135.14,430.16C135.107,430.6 135.186,431.04 135.37,431.44C136.19,433.227 137.557,434.38 139.47,434.9C140.546,435.191 141.68,434.778 142.27,433.88C142.61,433.367 142.703,432.57 142.55,431.49C142.317,429.89 142.053,428.537 141.76,427.43C141.754,427.407 141.748,427.384 141.743,427.361C141.604,426.701 142.038,426.042 142.703,425.902C142.725,425.898 142.748,425.893 142.77,425.89C148.323,425.043 153.92,425.033 159.56,425.86C159.746,425.887 159.885,426.048 159.885,426.236C159.885,426.271 159.88,426.306 159.87,426.34C159.59,427.333 158.963,428.213 157.99,428.98C155.463,430.967 151.63,433.763 146.49,437.37C142.53,440.15 139.36,441.8 140.86,446.36C143.387,454.053 145.333,460.453 146.7,465.56C146.712,465.607 146.719,465.656 146.719,465.704C146.719,466.017 146.461,466.274 146.149,466.274C145.984,466.274 145.828,466.203 145.72,466.08Z" style="fill:rgb(35,32,33);fill-rule:nonzero;"/>
        <path d="M1134.59,512.54C1136.444,513.528 1137.157,515.866 1136.17,517.72L1132.54,524.56C1128.644,531.888 1118.451,534.204 1109.96,529.69L1102.03,525.47C1102.029,525.469 1102.027,525.468 1102.026,525.468C1093.535,520.953 1089.754,511.208 1093.65,503.88L1097.29,497.05C1097.953,495.799 1099.258,495.013 1100.674,495.013C1101.3,495.013 1101.917,495.166 1102.47,495.46L1134.59,512.54ZM1125.9,516.61L1103.79,504.85C1102.547,504.192 1100.983,504.669 1100.32,505.91L1099.98,506.56C1097.936,510.406 1100.55,515.854 1105.77,518.63L1113.38,522.68C1118.6,525.453 1124.575,524.573 1126.62,520.73L1126.97,520.08C1127.627,518.835 1127.144,517.269 1125.9,516.61Z" style="fill:rgb(35,32,33);fill-rule:nonzero;"/>
        <path d="M158.48,521.28C159.392,520.744 160.577,520.997 161.19,521.86L163.05,524.48C163.687,525.372 163.525,526.623 162.68,527.33C156.78,532.28 149.51,538.16 141.35,538.2C137.86,538.22 135.72,538.55 132.16,539.13C130.702,539.37 129.303,538.376 129.05,536.92L128.87,535.91C128.584,534.242 129.643,532.617 131.28,532.21C138.4,530.43 145.41,530.02 151.81,525.49C153.47,524.317 155.693,522.913 158.48,521.28Z" style="fill:rgb(35,32,33);fill-rule:nonzero;"/>
        <path d="M1098.99,568.59C1097.631,567.706 1097.239,565.861 1098.12,564.5L1102.49,557.72C1103.509,556.14 1103.185,554.026 1101.74,552.83L1100.15,551.52C1098.45,550.124 1095.906,550.371 1094.513,552.066C1094.512,552.067 1094.511,552.069 1094.51,552.07L1090.25,557.25C1089.176,558.559 1087.244,558.814 1085.86,557.83L1085.55,557.6C1084.126,556.59 1083.775,554.591 1084.77,553.15L1088.97,547.09C1089.762,545.944 1089.692,544.4 1088.8,543.33C1087.247,541.483 1085.35,540.047 1083.11,539.02C1081.826,538.437 1080.3,538.792 1079.41,539.88L1073.76,546.73C1073.714,546.785 1073.666,546.839 1073.616,546.891C1072.582,547.958 1070.849,547.982 1069.777,546.944C1069.726,546.895 1069.677,546.843 1069.63,546.79L1069.37,546.5C1068.128,545.196 1067.984,543.176 1069.03,541.71C1072.577,536.743 1075.8,532.53 1078.7,529.07C1079.927,527.603 1081.34,527.457 1082.94,528.63C1092.62,535.783 1102.253,543.08 1111.84,550.52C1115.6,553.44 1113.49,555.34 1111.24,558.41C1109.233,561.15 1106.767,564.373 1103.84,568.08C1102.764,569.441 1100.806,569.764 1099.35,568.82L1098.99,568.59Z" style="fill:rgb(35,32,33);fill-rule:nonzero;"/>
        <path d="M137.11,542.58C137.228,542.422 137.368,542.282 137.526,542.164C138.419,541.499 139.698,541.682 140.361,542.571C140.479,542.729 140.573,542.904 140.64,543.09L141.52,545.54C142.175,547.343 141.882,549.359 140.74,550.9L136.1,557.15C135.664,557.733 134.978,558.077 134.25,558.077C133.504,558.077 132.803,557.716 132.37,557.11L131.28,555.57C130.169,554.011 130.189,551.902 131.33,550.37L137.11,542.58Z" style="fill:rgb(35,32,33);fill-rule:nonzero;"/>
        <g transform="matrix(-0.91706,-0.398749,0.398749,-0.91706,181.44,553.47)">
            <ellipse cx="0" cy="0" rx="3.93" ry="3.46" style="fill:rgb(35,32,33);"/>
        </g>
        <path d="M1087.59,586.51C1087.58,586.553 1087.575,586.597 1087.575,586.641C1087.575,586.948 1087.827,587.201 1088.135,587.201C1088.143,587.201 1088.152,587.2 1088.16,587.2C1090.68,587.127 1091.64,588.197 1091.04,590.41C1091.027,590.457 1091.012,590.504 1090.996,590.549C1090.685,591.388 1089.731,591.82 1088.883,591.506C1088.838,591.489 1088.793,591.47 1088.75,591.45C1087.183,590.71 1085.687,590.477 1084.26,590.75C1083.703,590.855 1083.186,591.1 1082.76,591.46C1080.7,593.2 1078.69,595.54 1076.12,596.35C1072.35,597.52 1068.81,596.12 1065.58,593.94C1059.74,590 1057.43,582.52 1061.58,576.56C1063.77,573.4 1066.43,570.76 1063.34,567.65C1062.82,567.13 1060.613,564.947 1056.72,561.1C1056.05,560.439 1055.672,559.535 1055.672,558.594C1055.672,557.482 1056.198,556.434 1057.09,555.77L1057.56,555.42C1059.207,554.194 1061.555,554.473 1062.87,556.05C1062.89,556.077 1071.317,564.337 1088.15,580.83C1088.79,581.457 1089.153,582.54 1089.24,584.08C1089.259,584.408 1089.107,584.723 1088.84,584.91C1088.133,585.403 1087.717,585.937 1087.59,586.51ZM1078.77,583.57L1073.08,577.07C1072.279,576.155 1070.866,576.06 1069.95,576.86L1069.26,577.46C1069.26,577.46 1069.259,577.461 1069.259,577.461C1066.605,579.784 1066.339,583.887 1068.669,586.549C1068.67,586.55 1068.79,586.69 1068.79,586.69C1071.121,589.35 1075.221,589.628 1077.874,587.305C1077.876,587.303 1077.878,587.302 1077.88,587.3L1078.56,586.7C1079.475,585.899 1079.57,584.486 1078.77,583.57Z" style="fill:rgb(35,32,33);fill-rule:nonzero;"/>
        <path d="M174.9,559.3L174.97,559.51C175.845,561.811 175.243,564.428 173.45,566.12C169.423,569.913 165.857,573.197 162.75,575.97C161.643,576.957 161.117,578.04 161.17,579.22C161.177,579.41 161.232,579.596 161.33,579.76L163.83,584.29C164.3,585.137 164.213,586.187 163.61,586.94C160.97,590.24 159.63,589.56 156.9,586.56C150.067,579.04 146.17,574.64 145.21,573.36C142.76,570.09 146.11,565.92 149.41,568.15C151.403,569.49 152.673,570.337 153.22,570.69C154.252,571.363 155.616,571.264 156.54,570.45L170.51,558.15C170.642,558.033 170.785,557.929 170.937,557.84C172.229,557.082 173.917,557.526 174.678,558.822C174.767,558.974 174.842,559.134 174.9,559.3Z" style="fill:rgb(35,32,33);fill-rule:nonzero;"/>
        <path d="M535.33,634.42C535.141,634.058 534.764,633.83 534.355,633.83C534.05,633.83 533.758,633.957 533.55,634.18C531.07,636.85 529.65,638.63 525.23,638.63C513.743,638.643 507.01,638.65 505.03,638.65C502.997,638.65 501.447,638.393 500.38,637.88C499.335,637.378 498.662,636.242 498.65,634.96C498.49,623.09 506.67,612.53 516.65,606.88C519.35,605.35 520.89,606.54 524.38,607.27C526.667,607.75 528.41,607.247 529.61,605.76C531.08,603.93 530.52,600.85 531.42,598.66C531.753,597.86 532.337,597.07 533.17,596.29C536.263,593.37 537.83,589.677 537.87,585.21C537.876,584.565 538.35,584.011 538.99,583.9L542.4,583.3C543.25,583.151 543.88,582.408 543.89,581.54C543.903,580.4 543.647,579.43 543.12,578.63C542.604,577.85 541.571,577.58 540.74,578.01L538.02,579.42C537.158,579.86 536.126,579.814 535.31,579.3C533.63,578.247 532,577.363 530.42,576.65C524.01,573.75 516.13,576.92 514.18,583.75C513.473,586.223 512.913,588.49 512.5,590.55C512.32,591.438 511.619,592.135 510.73,592.31C507.697,592.91 504.987,592.84 502.6,592.1C501.408,591.731 500.548,590.681 500.42,589.44C500.18,587.227 500.327,585.047 500.86,582.9C503.507,572.26 510.23,566.037 521.03,564.23C530.59,562.63 542.69,565.66 547.74,574.73C552.51,583.29 552.68,594.03 545.88,601.42C544.053,603.4 541.747,605.247 538.96,606.96C527.4,614.073 520.61,618.363 518.59,619.83C516.903,621.05 515.72,622.387 515.04,623.84C514.917,624.101 514.853,624.385 514.853,624.673C514.853,625.573 515.475,626.361 516.35,626.57C516.817,626.683 517.45,626.743 518.25,626.75C523.07,626.79 531.17,626.817 542.55,626.83C545.863,626.83 547.673,626.863 547.98,626.93C551.68,627.75 551.29,633.54 550.31,636.3C549.902,637.447 548.817,638.223 547.6,638.24L538.82,638.35C537.933,638.362 537.111,637.87 536.7,637.08L535.33,634.42Z" style="fill:rgb(35,32,33);fill-rule:nonzero;"/>
        <path d="M594.44,565.44C598.21,564.03 601.35,570.24 601.97,573.03C602.957,577.497 603.473,581.57 603.52,585.25C603.64,595.99 603.67,607.637 603.61,620.19C603.58,626.4 604.01,631.56 600.05,635.36C597.877,637.447 595.66,637.507 593.4,635.54C590.75,633.24 590.38,627.7 590.46,624C590.713,612.56 590.76,603.063 590.6,595.51C590.54,592.33 590.77,588.69 586.26,588.65C584.427,588.63 581.39,588.543 577.15,588.39C575.357,588.33 574.387,587.38 574.24,585.54C574.08,583.533 574.163,581.67 574.49,579.95C574.634,579.204 575.207,578.607 575.95,578.43C581.48,577.14 586.46,576.71 589.69,573.26C591.46,571.38 592.14,567.92 593.49,566.14C593.732,565.82 594.062,565.577 594.44,565.44Z" style="fill:rgb(35,32,33);fill-rule:nonzero;"/>
        <path d="M679.66,574.68C679.393,572.993 678.993,571.663 678.46,570.69C677.917,569.693 676.767,569.175 675.66,569.43C671.453,570.41 668.197,572.7 665.89,576.3C665.357,577.127 664.227,577.537 662.5,577.53C659.7,577.517 657.467,577.73 655.8,578.17C654.753,578.444 653.956,579.308 653.76,580.38C653.4,582.313 653.1,584.49 652.86,586.91C652.67,588.83 653.47,590.49 655.51,590.23C660.403,589.583 663.317,589.267 664.25,589.28C675.62,589.37 686.65,597.69 688.2,609.21C691.15,631.1 673.04,645.4 652.17,639.13C643.12,636.41 636.17,628.75 636.58,619.08C636.603,618.515 636.992,618.025 637.54,617.87C641.02,616.88 647.61,616.15 649.17,620.33C650.46,623.8 652.69,627.28 656.92,628.34C661.467,629.493 665.69,628.89 669.59,626.53C672.363,624.857 674.12,621.973 674.86,617.88C676.14,610.84 674.057,605.797 668.61,602.75C663.84,600.09 657.01,600.43 652.78,603.84C648.78,607.06 644.87,608.43 640.16,606.33C639.757,606.147 639.461,605.788 639.36,605.36C639.18,604.607 639.2,603.313 639.42,601.48C640.407,593.387 641.433,585.477 642.5,577.75C643.293,571.99 643.927,568.61 644.4,567.61C644.566,567.258 644.778,566.929 645.03,566.63C645.623,565.943 647.197,565.593 649.75,565.58C662.983,565.52 673.213,565.523 680.44,565.59C682.647,565.61 683.967,566.51 684.4,568.29C685.187,571.497 684.163,573.893 681.33,575.48C681.161,575.576 680.969,575.626 680.775,575.626C680.224,575.626 679.75,575.223 679.66,574.68Z" style="fill:rgb(35,32,33);fill-rule:nonzero;"/>
        <path d="M723.04,590.16C723.18,590.227 723.69,590.253 724.57,590.24C724.91,590.233 725.443,590.153 726.17,590C734.01,588.307 740.94,589.583 746.96,593.83C760.73,603.53 759.65,620.84 749.72,632.98C748.613,634.34 747.13,635.523 745.27,636.53C735.01,642.097 724.763,641.993 714.53,636.22C712.4,635.02 710.55,633.39 709.62,630.62C708.13,626.19 704.55,624.7 705.41,619.21C705.523,618.467 706.091,617.867 706.83,617.71C709.343,617.19 712.053,617.11 714.96,617.47C715.357,617.516 715.731,617.687 716.03,617.96C717.03,618.853 717.633,619.607 717.84,620.22C719.967,626.407 724.447,629.383 731.28,629.15C734.4,629.04 736.68,628.44 738.95,626.25C743.477,621.89 744.947,616.597 743.36,610.37C741.06,601.36 729.13,598.01 721.85,603.66C717.33,607.16 714.09,608.47 708.38,606.29C708.066,606.168 707.856,605.867 707.85,605.53C707.71,599.14 709.75,588.21 712.35,569.9C713.04,565.03 715.93,565.6 720.21,565.59C728.663,565.557 738.167,565.553 748.72,565.58C750,565.587 751.143,565.937 752.15,566.63C752.431,566.826 752.646,567.097 752.77,567.41C752.897,567.757 753.02,569.387 753.14,572.3C753.273,575.673 751.653,577.36 748.28,577.36C736.027,577.347 728.37,577.4 725.31,577.52C724.04,577.574 722.971,578.521 722.76,579.78L721.52,587.21C721.319,588.423 721.941,589.629 723.04,590.16Z" style="fill:rgb(35,32,33);fill-rule:nonzero;"/>
        <g transform="matrix(0.73373,0.679441,-0.679441,0.73373,188.18,586.8)">
            <path d="M4.05,-18.64L4.05,18.64C4.05,20.34 2.67,21.72 0.97,21.72L-0.97,21.72C-2.67,21.72 -4.05,20.34 -4.05,18.64L-4.05,-18.64C-4.05,-20.34 -2.67,-21.72 -0.97,-21.72L0.97,-21.72C2.67,-21.72 4.05,-20.34 4.05,-18.64Z" style="fill:rgb(35,32,33);"/>
        </g>
        <path d="M1054.68,617.57C1053.52,618.53 1052.323,619.127 1051.09,619.36C1050.707,619.432 1050.313,619.411 1049.94,619.3C1049.113,619.047 1047.637,618.113 1045.51,616.5C1036.23,609.473 1027.12,602.497 1018.18,595.57C1018.118,595.522 1018.059,595.472 1018.001,595.42C1016.729,594.275 1016.622,592.289 1017.763,591.021C1017.817,590.962 1017.872,590.905 1017.93,590.85L1018.11,590.69C1019.63,589.293 1021.927,589.119 1023.64,590.27L1028.52,593.54C1029.445,594.155 1030.614,594.289 1031.66,593.9C1032.44,593.613 1033.23,593.14 1034.03,592.48C1034.843,591.813 1035.467,591.123 1035.9,590.41C1036.479,589.461 1036.572,588.293 1036.15,587.27L1033.89,581.84C1033.094,579.938 1033.709,577.721 1035.37,576.5L1035.56,576.35C1035.624,576.305 1035.689,576.263 1035.756,576.223C1037.219,575.347 1039.147,575.834 1040.026,577.303C1040.067,577.37 1040.105,577.44 1040.14,577.51C1045.207,587.623 1050.29,597.913 1055.39,608.38C1056.563,610.773 1057.193,612.4 1057.28,613.26C1057.32,613.65 1057.265,614.045 1057.12,614.41C1056.653,615.57 1055.84,616.623 1054.68,617.57ZM1040.21,597.05L1037.66,599.15C1037.449,599.321 1037.326,599.578 1037.326,599.85C1037.326,600.058 1037.398,600.259 1037.53,600.42L1037.67,600.58C1040.966,604.592 1044.549,607.178 1045.61,606.31L1045.69,606.25C1045.691,606.249 1045.691,606.249 1045.692,606.248C1046.752,605.378 1044.911,601.358 1041.613,597.344C1041.612,597.342 1041.611,597.341 1041.61,597.34L1041.47,597.18C1041.159,596.801 1040.592,596.742 1040.21,597.05Z" style="fill:rgb(35,32,33);fill-rule:nonzero;"/>
        <path d="M175.57,648.17C173.597,646.977 172.067,645.93 170.98,645.03C152.873,630.097 136.533,613.93 121.96,596.53C118.44,592.323 115.047,587.793 111.78,582.94C111.687,582.805 111.638,582.645 111.638,582.482C111.638,582.037 112.004,581.672 112.448,581.672C112.52,581.672 112.591,581.681 112.66,581.7C117.02,582.81 121.13,581.91 124.94,579.99C125.33,579.792 125.797,579.811 126.17,580.04C127.23,580.693 128.023,581.333 128.55,581.96C140.617,596.347 150.87,607.423 159.31,615.19C169.823,624.863 176.523,631.043 179.41,633.73C180.074,634.346 180.169,635.376 179.63,636.11L176.43,640.41C175.763,641.314 175.473,642.44 175.62,643.55L176.19,647.76C176.193,647.78 176.195,647.8 176.195,647.821C176.195,648.046 176.009,648.231 175.785,648.231C175.709,648.231 175.635,648.21 175.57,648.17Z" style="fill:rgb(35,32,33);fill-rule:nonzero;"/>
        <g transform="matrix(0.576432,-0.817145,0.817145,0.576432,215.36,587.6)">
            <ellipse cx="0" cy="0" rx="4.7" ry="3.94" style="fill:rgb(35,32,33);"/>
        </g>
        <path d="M207.93,630.31C207.519,630.528 207.027,630.52 206.63,630.29C204.577,629.09 202.06,627.247 199.08,624.76C196.02,622.21 193.4,619.67 192.7,615.94C191.47,609.33 195.75,604.25 201.76,601.99C202.765,601.612 203.579,600.849 204.02,599.87L206.26,594.87C206.529,594.267 207.152,593.897 207.81,593.95C212.41,594.34 212.66,596.75 212.8,600.65C212.94,604.45 215.4,606.82 219.31,606.66C220.117,606.624 220.793,606.023 220.92,605.23C221.553,601.25 223.57,597.747 226.97,594.72C228.93,592.98 230.833,593.297 232.68,595.67C234.43,597.94 232.13,600.57 230.92,602.16C227.733,606.32 221.043,614.883 210.85,627.85C210.03,628.89 209.057,629.71 207.93,630.31ZM207.18,619.87L211.79,614.1C212.116,613.691 212.294,613.183 212.294,612.66C212.294,611.955 211.972,611.288 211.42,610.85L210.5,610.12C210.499,610.119 210.498,610.118 210.497,610.117C207.741,607.917 203.807,608.194 201.78,610.73L201.68,610.86C199.656,613.398 200.259,617.296 203.014,619.495C203.016,619.497 203.018,619.498 203.02,619.5L203.94,620.23C204.928,621.017 206.389,620.855 207.18,619.87Z" style="fill:rgb(35,32,33);fill-rule:nonzero;"/>
        <path d="M1030.56,634.24C1030.779,634.971 1030.556,635.764 1029.99,636.27C1028.277,637.803 1025.873,639.51 1022.78,641.39C1018.51,643.98 1014.85,646.33 1010.13,644.34C1005.07,642.213 1002.223,637.89 1001.59,631.37C1001.34,628.83 998.98,627.63 996.73,626.17C996.373,625.939 996.061,625.644 995.81,625.3L988.58,615.7C988.165,615.15 987.941,614.48 987.941,613.791C987.941,612.767 988.437,611.804 989.27,611.21L990.37,610.42C991.778,609.486 993.691,609.787 994.75,611.11C996.223,612.943 998.407,615.713 1001.3,619.42C1003.79,622.61 1007.31,620.71 1010.48,620.06C1011.036,619.949 1011.599,620.247 1011.82,620.77C1012.553,622.523 1012.783,624.11 1012.51,625.53C1012.457,625.82 1012.345,626.096 1012.18,626.34C1010.14,629.31 1007.26,632.2 1010.92,635.61C1013.507,638.017 1016.32,638.06 1019.36,635.74C1022.1,633.65 1019.46,629.57 1017.53,627.51C1015.717,625.57 1014.387,623.65 1013.54,621.75C1013.268,621.14 1012.915,620.571 1012.49,620.06C1009.01,615.827 1005.793,611.07 1002.84,605.79C1002.551,605.274 1002.399,604.693 1002.399,604.102C1002.399,602.768 1003.173,601.548 1004.38,600.98L1004.51,600.91C1006.357,600.039 1008.585,600.649 1009.73,602.34C1016.517,612.36 1022.757,621.6 1028.45,630.06C1029.47,631.573 1030.173,632.967 1030.56,634.24Z" style="fill:rgb(35,32,33);fill-rule:nonzero;"/>
        <path d="M228.49,643.02C228.42,643.683 227.854,644.192 227.187,644.192C227.042,644.192 226.897,644.167 226.76,644.12C223.127,642.853 222.2,640.8 223.98,637.96C230.813,627.02 235.373,619.833 237.66,616.4C242.62,608.94 250.48,605.34 258.26,611.81C264.147,616.71 264.987,622.55 260.78,629.33C253.167,641.59 249.307,647.8 249.2,647.96C248.62,648.787 247.671,649.281 246.661,649.281C245.725,649.281 244.838,648.858 244.25,648.13L244.2,648.06C242.659,646.151 242.521,643.446 243.86,641.38C247.947,635.073 251.393,629.86 254.2,625.74C257.56,620.79 253.71,614.24 247.67,617.44C246.543,618.04 245.207,619.53 243.66,621.91C238.07,630.53 235.88,635.59 230.41,639.94C229.25,640.867 228.61,641.893 228.49,643.02Z" style="fill:rgb(35,32,33);fill-rule:nonzero;"/>
        <path d="M131.46,619.56C131.449,619.531 131.444,619.501 131.444,619.47C131.444,619.327 131.561,619.21 131.704,619.21C131.765,619.21 131.823,619.231 131.87,619.27L168.13,651.84C170.091,653.605 170.549,656.53 169.22,658.81L169.18,658.87C169.123,658.968 169.061,659.063 168.995,659.155C167.865,660.728 165.638,661.09 164.06,659.956C163.97,659.892 163.884,659.823 163.8,659.75C150.08,647.737 141.047,639.753 136.7,635.8C134.273,633.6 133.343,631.28 133.91,628.84C135,624.09 132.96,623.32 131.46,619.56Z" style="fill:rgb(35,32,33);fill-rule:nonzero;"/>
        <path d="M967.4,624.24C969.72,622.94 971.34,623.35 972.68,625.71C977,633.303 981.847,641.817 987.22,651.25C987.919,652.483 989.405,653.056 990.75,652.61L994.51,651.36C996.016,650.865 997.678,651.525 998.44,652.92L998.57,653.15C999.365,654.667 998.834,656.561 997.37,657.43C994.297,659.27 991.433,660.907 988.78,662.34C986.173,663.853 983.283,665.447 980.11,667.12C978.604,667.917 976.709,667.381 975.83,665.91L975.7,665.68C974.911,664.303 975.216,662.546 976.42,661.52L979.45,658.95C980.523,658.033 980.804,656.474 980.12,655.24C974.867,645.74 970.123,637.167 965.89,629.52C964.58,627.15 965.07,625.55 967.4,624.24Z" style="fill:rgb(35,32,33);fill-rule:nonzero;"/>
        <path d="M278.55,637.32C278.435,637.978 277.859,638.463 277.19,638.463C276.994,638.463 276.799,638.421 276.62,638.34L273.44,636.91C272.761,636.606 272.322,635.929 272.322,635.185C272.322,634.857 272.408,634.535 272.57,634.25C278.11,624.57 293.02,627.35 295.5,638.03C295.927,639.89 295.73,642.327 294.91,645.34C292.623,653.767 288.437,661.103 282.35,667.35C281.403,668.317 279.653,669.32 277.1,670.36C271.52,672.63 268.74,667.82 265.79,664.22C262.84,660.6 260.62,658.46 261.87,654.11C262.174,653.056 263.13,652.359 264.12,652.47C265.713,652.65 267.053,653.3 268.14,654.42C269.56,655.89 268.45,659.47 269.55,661.26C271.73,664.82 274.96,663.3 277.29,660.73C282.43,655.07 285.707,648.717 287.12,641.67C287.79,638.33 284.89,634.09 282.64,631.5C282.402,631.229 282.071,631.055 281.71,631.01C280.71,630.897 280.023,631.46 279.65,632.7C279.19,634.193 278.823,635.733 278.55,637.32Z" style="fill:rgb(35,32,33);fill-rule:nonzero;"/>
        <path d="M945.34,652.48C946.18,650.92 943.75,646.15 941.79,641.62C941.599,641.178 941.501,640.702 941.501,640.221C941.501,638.796 942.364,637.505 943.68,636.96L943.83,636.9C945.616,636.163 947.692,636.966 948.51,638.71C954.523,651.51 959.573,662.39 963.66,671.35C964.86,673.98 964.29,675.4 961.79,676.74C959.943,677.727 958.447,678.383 957.3,678.71C956.135,679.046 954.873,678.684 954.06,677.78C953.16,676.773 950.2,672.79 945.18,665.83C944.26,664.563 943.293,663.56 942.28,662.82C942.126,662.708 941.941,662.648 941.751,662.648C941.343,662.648 940.983,662.925 940.88,663.32C940.653,664.187 940.647,665.177 940.86,666.29C942.053,672.55 943.023,677.273 943.77,680.46C944.2,682.33 944.31,684.06 942.76,685.34C940.873,686.907 938.723,687.81 936.31,688.05C935.886,688.095 935.464,687.948 935.16,687.65C934.06,686.557 933.213,685.38 932.62,684.12C927.753,673.727 922.937,663.377 918.17,653.07C917.27,651.142 918.071,648.813 919.97,647.84L920.06,647.8C921.716,646.948 923.782,647.611 924.64,649.27L930.58,660.78C930.741,661.091 931.064,661.288 931.415,661.288C931.801,661.288 932.149,661.05 932.29,660.69C932.49,660.19 932.493,659.45 932.3,658.47C931.393,653.983 930.71,650.813 930.25,648.96C929.32,645.23 929.73,642.53 933.77,641.75C935.54,641.4 936.88,642.87 937.82,644.18C940.493,647.873 942.68,650.677 944.38,652.59C944.492,652.716 944.653,652.789 944.821,652.789C945.038,652.789 945.237,652.67 945.34,652.48Z" style="fill:rgb(35,32,33);fill-rule:nonzero;"/>
        <path d="M322.84,731.38C322.804,731.764 322.46,732.054 322.07,732.03C319.57,731.877 317.03,731.227 314.45,730.08C305.03,725.88 293.653,720.667 280.32,714.44C253.327,701.833 227.097,686.567 201.63,668.64C199.83,667.373 198.393,666.04 197.32,664.64C196.962,664.171 196.987,663.503 197.38,663.05C199.7,660.383 200.99,658.867 201.25,658.5C202.69,656.46 200.97,654.54 198.94,654.11C197.4,653.79 194.39,655.75 192.74,656.46C191.295,657.088 189.636,656.992 188.28,656.2C186.933,655.413 184.403,654.14 180.69,652.38C179.563,651.847 178.827,651.213 178.48,650.48C178.326,650.15 178.459,649.752 178.78,649.58C182.467,647.653 185.113,645.15 186.72,642.07C186.837,641.846 187.07,641.706 187.322,641.706C187.457,641.706 187.588,641.745 187.7,641.82C188.37,642.27 188.88,643.04 189.86,643.43C192.907,644.663 196.23,646.57 199.83,649.15C211.877,657.777 218.383,662.427 219.35,663.1C222.21,665.08 225.037,667.563 227.83,670.55C231.157,674.117 236.937,680.127 245.17,688.58C248.06,691.56 251.3,692.25 254.06,689.44C254.773,688.707 255.17,688.307 255.25,688.24C256.39,687.345 257.949,687.188 259.24,687.84C268.65,692.55 278.67,697.29 287.75,703.07C290.47,704.8 293.4,706.76 296.92,707.51C300.6,708.29 303.9,709.623 306.82,711.51C307.713,712.083 308.173,712.893 308.2,713.94C308.26,716.71 309.11,717.98 311.39,719.58C315.063,722.153 318.47,725 321.61,728.12C322.557,729.053 322.967,730.14 322.84,731.38Z" style="fill:rgb(35,32,33);fill-rule:nonzero;"/>
        <path d="M294,678.11C294.42,676.929 295.545,676.136 296.798,676.136C297.14,676.136 297.479,676.195 297.8,676.31L305.41,679C307.188,679.636 309.18,678.83 310.01,677.14L310.91,675.28C311.878,673.301 311.052,670.879 309.08,669.91L303.04,666.96C301.512,666.212 300.816,664.385 301.46,662.81L301.61,662.46C302.266,660.838 304.134,660.035 305.77,660.67L312.65,663.36C313.953,663.87 315.444,663.446 316.28,662.33C317.72,660.39 318.68,658.21 319.16,655.79C319.436,654.4 318.739,652.99 317.47,652.37L309.48,648.46C308.553,648.003 307.964,647.055 307.964,646.021C307.964,645.454 308.141,644.901 308.47,644.44L308.69,644.13C309.674,642.619 311.609,642.012 313.28,642.69C318.94,644.99 323.793,647.157 327.84,649.19C329.56,650.05 330.03,651.393 329.25,653.22C324.517,664.307 319.63,675.383 314.59,686.45C312.61,690.79 310.27,689.18 306.76,687.69C303.627,686.37 299.917,684.71 295.63,682.71C294.058,681.975 293.292,680.146 293.87,678.51L294,678.11Z" style="fill:rgb(35,32,33);fill-rule:nonzero;"/>
        <path d="M897.48,700.04C896.787,698.567 897.428,696.785 898.9,696.09L906.22,692.62C907.92,691.81 908.758,689.84 908.16,688.06L907.5,686.1C906.793,684.014 904.497,682.877 902.41,683.58L896.03,685.74C894.421,686.288 892.638,685.483 891.98,683.91L891.84,683.55C891.165,681.935 891.929,680.048 893.54,679.35L900.32,676.41C901.605,675.854 902.366,674.497 902.17,673.11C901.823,670.717 900.967,668.49 899.6,666.43C898.815,665.251 897.326,664.744 895.99,665.2L887.55,668.05C887.271,668.144 886.979,668.191 886.684,668.191C885.357,668.191 884.214,667.22 884,665.91L883.93,665.53C883.563,663.764 884.512,661.968 886.18,661.27C891.827,658.91 896.803,657.023 901.11,655.61C902.937,655.01 904.22,655.637 904.96,657.49C909.42,668.71 913.763,680.027 917.99,691.44C919.65,695.92 916.85,696.42 913.3,697.85C910.147,699.117 906.34,700.557 901.88,702.17C900.241,702.756 898.403,701.994 897.66,700.42L897.48,700.04Z" style="fill:rgb(35,32,33);fill-rule:nonzero;"/>
        <path d="M360.08,674.99C357.753,675.21 356.167,674.177 355.32,671.89C354.08,668.58 352.73,662.16 347.22,665.88C344.09,667.99 344.36,672.16 346.38,675.13C351.27,682.32 358.23,687.77 351.98,696.98C349.62,700.46 346.517,702.09 342.67,701.87C338.523,701.63 335.267,700.237 332.9,697.69C330.493,695.097 329.65,691.893 330.37,688.08C330.597,686.867 331.2,686.16 332.18,685.96C335.15,685.34 336.91,687.27 337.78,690.01C338.36,691.843 338.847,692.953 339.24,693.34C341.53,695.61 344.69,694.7 345.51,691.72C346.85,686.81 341.83,682.95 339.06,679.05C335.48,674.01 335.22,668.933 338.28,663.82C342.31,657.09 349.54,656.4 356.17,659.83C361.15,662.4 363.68,667.65 362.13,673.06C361.823,674.135 361.004,674.906 360.08,674.99Z" style="fill:rgb(35,32,33);fill-rule:nonzero;"/>
        <path d="M861.1,695.06C860.973,695.927 861.153,697.083 861.64,698.53C863.087,702.823 864.343,707.057 865.41,711.23C865.472,711.474 865.503,711.724 865.503,711.976C865.503,713.5 864.361,714.801 862.85,715L862.68,715.02C860.805,715.264 859.007,714.132 858.42,712.34C853.307,696.793 849.697,685.357 847.59,678.03C846.997,675.963 847.557,674.433 849.27,673.44C852.017,671.833 854.4,672.21 856.42,674.57C857.833,676.23 861.537,680.833 867.53,688.38C868.07,689.06 868.633,689.46 869.22,689.58C869.328,689.602 869.438,689.612 869.548,689.607C870.283,689.578 870.863,688.953 870.834,688.224C870.83,688.114 870.811,688.005 870.78,687.9L865.89,671.42C865.808,671.145 865.766,670.859 865.766,670.571C865.766,669.149 866.791,667.917 868.19,667.66L868.58,667.58C870.434,667.113 872.356,668.168 872.95,669.98C874.897,675.867 878.5,687.227 883.76,704.06C884.633,706.84 883.727,708.683 881.04,709.59C878.08,710.583 875.683,709.873 873.85,707.46C869.53,701.76 865.98,697.41 863.2,694.41C862.969,694.162 862.645,694.021 862.307,694.021C861.705,694.021 861.189,694.465 861.1,695.06Z" style="fill:rgb(35,32,33);fill-rule:nonzero;"/>
        <path d="M396.34,680.1C397.166,679.612 398.376,680.098 399.03,681.18C399.817,682.493 400.213,683.807 400.22,685.12C400.22,685.477 400.156,685.826 400.03,686.15C398.01,691.543 396.38,696.523 395.14,701.09C394.1,704.91 394.48,710.09 398.21,712.22C400.2,713.36 402.64,712.01 403.16,710.12C405.007,703.34 406.93,696.697 408.93,690.19C409.56,688.13 413.51,678.01 416.82,679.82C418.593,680.8 419.197,682.347 418.63,684.46C416.117,693.827 412.877,705.443 408.91,719.31C408.37,721.19 407.07,721.95 405.01,721.59C400.217,720.757 395.997,719.37 392.35,717.43C391.53,716.997 390.373,715.927 388.88,714.22C388.419,713.687 388.084,713.058 387.9,712.38C384.87,701.3 387.4,692.06 393.52,682.75C394.22,681.683 395.16,680.8 396.34,680.1Z" style="fill:rgb(35,32,33);fill-rule:nonzero;"/>
        <path d="M823.69,680.59C826.28,679.92 827.75,680.73 828.44,683.36C830.68,691.827 833.193,701.32 835.98,711.84C836.343,713.211 837.634,714.145 839.05,714.06L843.01,713.82C844.594,713.726 846.034,714.786 846.42,716.33L846.49,716.59C846.875,718.261 845.874,719.961 844.23,720.43C840.777,721.417 837.58,722.267 834.64,722.98C831.727,723.78 828.52,724.583 825.02,725.39C823.356,725.771 821.661,724.767 821.19,723.12L821.12,722.86C820.709,721.321 821.457,719.694 822.89,719.01L826.47,717.31C827.75,716.698 828.427,715.256 828.08,713.88C825.427,703.327 823.03,693.803 820.89,685.31C820.22,682.67 821.11,681.25 823.69,680.59Z" style="fill:rgb(35,32,33);fill-rule:nonzero;"/>
        <path d="M436.35,708.03C435.043,709.743 434.147,712.087 433.66,715.06C433.504,716.007 432.676,716.709 431.716,716.709C431.496,716.709 431.278,716.672 431.07,716.6L428.51,715.71C427.294,715.291 426.576,714.012 426.85,712.75C427.443,709.997 428.283,706.197 429.37,701.35C429.923,698.91 431.347,697.183 433.64,696.17C434.643,695.728 435.14,694.572 434.77,693.54L432.86,688.27C432.748,687.96 432.691,687.632 432.691,687.302C432.691,685.739 433.977,684.452 435.541,684.452C435.611,684.452 435.68,684.455 435.75,684.46L437.63,684.59C439.569,684.73 441.177,686.185 441.51,688.1L445.04,708.21C445.125,708.696 445.551,709.054 446.045,709.054C446.303,709.054 446.551,708.956 446.74,708.78C448.35,707.3 449.52,699.6 451.34,691.61C451.777,689.692 453.662,688.435 455.6,688.77L455.75,688.8C455.771,688.804 455.791,688.807 455.812,688.811C457.633,689.162 458.842,690.953 458.49,692.779C458.487,692.796 458.484,692.813 458.48,692.83C456.627,701.623 454.127,712.923 450.98,726.73C450.52,728.73 449.7,731.73 447.33,731.64C442.3,731.44 441.01,728.82 440.28,724.23C439.627,720.17 439.003,716.027 438.41,711.8C438.21,710.387 437.777,709.143 437.11,708.07C437.027,707.932 436.877,707.848 436.716,707.848C436.573,707.848 436.437,707.915 436.35,708.03Z" style="fill:rgb(35,32,33);fill-rule:nonzero;"/>
        <path d="M202.87,686.11C206.89,685.6 208.07,689.63 212.48,685.72C212.719,685.513 213.046,685.431 213.36,685.5C214.533,685.767 215.297,686.417 215.65,687.45C216.55,690.09 217.393,692.167 218.18,693.68C218.202,693.723 218.228,693.764 218.256,693.803C218.585,694.262 219.23,694.372 219.685,694.046C219.725,694.017 219.764,693.985 219.8,693.95L221.83,692.01C222.056,691.79 222.349,691.653 222.66,691.62C223.72,691.5 224.783,691.757 225.85,692.39C240.923,701.43 255.49,709.45 269.55,716.45C276.85,720.09 286.747,724.707 299.24,730.3C301.592,731.361 303.418,733.328 304.3,735.75L305.3,738.51C305.385,738.748 305.428,738.999 305.428,739.252C305.428,740.464 304.431,741.462 303.218,741.462C302.916,741.462 302.617,741.4 302.34,741.28C290.233,735.973 283.963,733.22 283.53,733.02C282.01,732.313 280.703,730.473 279.61,727.5C279.499,727.199 279.305,726.933 279.05,726.73C278.057,725.957 277.123,725.693 276.25,725.94C272.82,726.91 270.83,726.98 267.32,725.25C252.127,717.743 239.45,710.897 229.29,704.71C223.437,701.15 217.487,697.52 211.44,693.82C207.84,691.62 204.84,689.55 202.44,687.61C202.243,687.449 202.129,687.207 202.129,686.953C202.129,686.528 202.448,686.165 202.87,686.11Z" style="fill:rgb(35,32,33);fill-rule:nonzero;"/>
        <path d="M482.17,705.13C483.203,705.303 484.133,705.32 484.96,705.18C486.057,704.992 486.998,704.292 487.49,703.3L490.09,698.02C491.003,696.166 493.085,695.173 495.1,695.63L495.33,695.68C496.719,696.023 497.702,697.279 497.702,698.709C497.702,699.114 497.623,699.515 497.47,699.89C493.177,710.363 488.76,720.963 484.22,731.69C483.18,734.15 482.367,735.697 481.78,736.33C481.512,736.614 481.179,736.83 480.81,736.96C479.623,737.367 478.29,737.447 476.81,737.2C475.33,736.953 474.097,736.443 473.11,735.67C472.804,735.428 472.561,735.116 472.4,734.76C472.047,733.973 471.777,732.247 471.59,729.58C470.79,717.96 470.063,706.5 469.41,695.2C469.406,695.139 469.405,695.079 469.405,695.018C469.405,693.306 470.813,691.898 472.525,691.898C472.617,691.898 472.708,691.902 472.8,691.91L473.04,691.94C475.094,692.163 476.74,693.78 477,695.83L477.74,701.67C477.885,702.77 478.551,703.737 479.53,704.27C480.257,704.67 481.137,704.957 482.17,705.13ZM482.31,712.96L479.48,712.56C479.441,712.555 479.402,712.552 479.363,712.552C478.938,712.552 478.576,712.869 478.52,713.29L478.45,713.77C478.45,713.77 478.45,713.771 478.45,713.771C477.757,718.704 478.138,722.897 479.295,723.059C479.297,723.06 479.298,723.06 479.3,723.06L479.59,723.1C479.592,723.1 479.594,723.101 479.596,723.101C480.753,723.264 482.276,719.338 482.969,714.406C482.969,714.404 482.97,714.402 482.97,714.4L483.03,713.92C483.095,713.459 482.77,713.027 482.31,712.96Z" style="fill:rgb(35,32,33);fill-rule:nonzero;"/>
        <path d="M768.46,693.25C769.253,694.65 769.303,696.143 768.61,697.73C766.583,702.377 766.187,707.483 767.42,713.05C768.587,718.303 769.577,722.17 770.39,724.65C771.38,727.67 775.13,730.75 778.09,727.63C781.74,723.79 778.51,709.62 777.24,705.25C776.13,701.44 770.4,697.14 774.9,693.3C775.722,692.592 776.912,692.476 777.87,693.01C779.31,693.817 780.45,694.877 781.29,696.19C787.09,705.23 789.157,715 787.49,725.5C786.67,730.67 783.89,734.35 778.83,735.72C763.11,739.95 759.47,720.59 758.7,709.99C758.25,703.87 759.44,693.44 767.56,692.78C767.925,692.75 768.276,692.933 768.46,693.25Z" style="fill:rgb(35,32,33);fill-rule:nonzero;"/>
        <path d="M728.95,735.93C732.617,735.183 734.937,734.757 735.91,734.65C738.537,734.363 739.763,732.913 739.59,730.3C739.45,728.16 739.54,726.05 737.92,725.04C733.67,722.4 727.79,727.56 725.41,722.5C724.437,720.427 725.143,719.003 727.53,718.23C728.043,718.063 730.457,717.5 734.77,716.54C736.63,716.12 737.483,714.86 737.33,712.76C737.29,712.24 736.883,708.547 736.11,701.68C735.876,699.58 737.318,697.633 739.39,697.25L739.64,697.21C739.816,697.185 739.994,697.172 740.173,697.172C742.034,697.172 743.625,698.565 743.87,700.41L748.76,736.57C748.94,737.906 748.267,739.219 747.08,739.85C745.813,740.53 744.013,741.04 741.68,741.38C738.36,741.86 734.563,742.303 730.29,742.71C728.568,742.876 727.002,741.639 726.77,739.93L726.66,739.15C726.457,737.649 727.466,736.231 728.95,735.93Z" style="fill:rgb(35,32,33);fill-rule:nonzero;"/>
        <path d="M520.64,743.36C518.673,743.151 517.209,741.392 517.36,739.42C517.727,734.713 518.073,731.89 518.4,730.95C519.8,726.957 520.46,724.553 520.38,723.74C520.013,719.88 520.143,715.387 520.77,710.26C521.023,708.207 520.107,706.937 518.02,706.45C515.747,705.923 513.007,705.28 509.8,704.52C508.26,704.153 507.58,703.137 507.76,701.47C508.02,699.097 509.517,698.013 512.25,698.22C517.35,698.62 522.273,699.207 527.02,699.98C529.02,700.3 529.903,701.563 529.67,703.77C528.23,717.443 526.757,729.553 525.25,740.1C524.957,742.149 523.068,743.619 521.01,743.4L520.64,743.36Z" style="fill:rgb(35,32,33);fill-rule:nonzero;"/>
        <path d="M562.85,703.9C563.25,704.012 563.539,704.365 563.57,704.78C563.97,710.17 564.25,716.56 561.67,721.39C560.517,723.543 559.89,725.18 559.79,726.3C559.44,730.29 558.66,734.42 559.99,738.47C560.92,741.28 561.45,743.22 560.66,745.36C560.381,746.255 559.515,746.846 558.58,746.78L541.54,745.54C540.147,745.44 539.083,744.209 539.18,742.81L539.31,741.02C539.405,739.7 540.536,738.67 541.87,738.69L550.75,738.87C551.213,738.883 551.663,738.722 552.01,738.42C554.53,736.24 555.61,730.15 550.72,729.33C550.673,729.323 548.093,728.783 542.98,727.71C542.03,727.514 541.314,726.721 541.22,725.76C540.933,722.813 542.18,721.347 544.96,721.36C549.467,721.387 552.007,721.39 552.58,721.37C553.46,721.333 554.234,720.766 554.53,719.94C555.463,717.287 555.697,714.487 555.23,711.54C555.179,711.19 554.978,710.877 554.68,710.68C551.64,708.69 547.1,708.96 543.83,708.33C542.439,708.056 541.427,706.824 541.427,705.406C541.427,705.186 541.451,704.965 541.5,704.75L541.53,704.63C541.928,702.9 543.521,701.692 545.29,701.78C551.55,702.07 557.27,702.29 562.85,703.9Z" style="fill:rgb(35,32,33);fill-rule:nonzero;"/>
        <path d="M674.27,746.04C672.95,747.847 671.13,748.243 668.81,747.23C668.457,747.076 668.177,746.792 668.03,746.44C667.357,744.813 666.987,743.25 666.92,741.75C666.807,739.283 666.1,728.16 664.8,708.38C664.655,706.211 666.277,704.29 668.44,704.07L668.66,704.04C670.521,703.848 672.229,705.162 672.52,707.01C672.787,708.717 673.06,711.637 673.34,715.77C673.7,721.13 676.34,724.94 681.91,722.29C683.15,721.703 683.73,720.547 683.65,718.82C683.45,714.367 683.293,710.393 683.18,706.9C683.18,706.892 683.179,706.884 683.179,706.876C683.12,704.771 684.809,702.989 686.921,702.93C686.927,702.93 686.934,702.93 686.94,702.93L686.97,702.93C689.082,702.885 690.869,704.559 690.96,706.67C691.5,715.103 692.16,725.63 692.94,738.25C693.053,740.183 692.99,742.317 692.75,744.65C692.649,745.626 691.822,746.38 690.84,746.39L688.17,746.42C686.924,746.435 685.839,745.542 685.62,744.32C685.353,742.86 684.983,739.5 684.51,734.24C684.15,730.24 680.32,729.02 676.91,730.6C674.78,731.6 674.49,734.6 674.65,736.53C674.983,740.423 675.03,743.163 674.79,744.75C674.724,745.216 674.546,745.659 674.27,746.04Z" style="fill:rgb(35,32,33);fill-rule:nonzero;"/>
        <path d="M630.63,712.94C631.638,712.981 632.543,712.295 632.78,711.31L633.98,706.39C634.141,705.727 634.64,705.197 635.29,705C638.683,703.973 641.723,704.2 644.41,705.68C649.41,708.44 652.28,717.82 652.54,723.25C652.84,729.54 652.97,736.46 650.06,742.25C647.207,747.937 642.597,750.277 636.23,749.27C630.82,748.42 628.2,745.18 626.51,739.77C624.203,732.337 623.797,724.76 625.29,717.04C625.85,714.18 627.63,712.813 630.63,712.94ZM632.22,727.09C632.313,730.503 632.793,733.897 633.66,737.27C634.573,740.857 636.35,742.613 638.99,742.54C641.623,742.467 643.3,740.617 644.02,736.99C644.7,733.577 644.993,730.16 644.9,726.74C644.807,723.327 644.327,719.933 643.46,716.56C642.54,712.98 640.763,711.227 638.13,711.3C635.497,711.373 633.82,713.223 633.1,716.85C632.42,720.263 632.127,723.677 632.22,727.09Z" style="fill:rgb(35,32,33);fill-rule:nonzero;"/>
        <path d="M584.19,715.63C577.75,716.64 574.56,702.16 584,704.95C584.343,705.049 584.614,705.32 584.72,705.67C585.573,708.577 585.65,711.657 584.95,714.91C584.872,715.282 584.569,715.569 584.19,715.63Z" style="fill:rgb(35,32,33);fill-rule:nonzero;"/>
        <path d="M601.75,719.37C601.835,719.653 602.097,719.848 602.392,719.848C602.644,719.848 602.876,719.705 602.99,719.48C604.13,717.23 603.98,713.59 604.43,708.33C604.593,706.507 606.176,705.114 608,705.19L608.21,705.2C609.988,705.275 611.4,706.785 611.36,708.57C611.04,722.743 610.733,734.55 610.44,743.99C610.387,745.57 610.15,746.723 609.73,747.45C609.53,747.786 609.218,748.041 608.85,748.17C605.87,749.217 603.183,749.23 600.79,748.21C599.775,747.781 599.046,746.863 598.86,745.78C597.567,738.227 596.717,733.363 596.31,731.19C596.063,729.87 595.683,728.67 595.17,727.59C595.013,727.268 594.684,727.063 594.325,727.063C594.061,727.063 593.808,727.174 593.63,727.37C593.077,727.99 592.727,728.57 592.58,729.11C592.173,730.617 590.78,735.953 588.4,745.12C588.147,746.107 587.533,746.917 586.56,747.55C586.344,747.692 586.092,747.768 585.834,747.768C585.277,747.768 584.777,747.415 584.59,746.89L581.26,737.69C580.893,736.673 581.192,735.528 582.01,734.82C583.597,733.447 584.773,732.067 585.54,730.68C585.785,730.229 585.967,729.748 586.08,729.25C587.653,722.43 589.27,715.733 590.93,709.16C591.68,706.23 592.11,705.15 595.07,704.88C597.51,704.653 598.98,706.047 599.48,709.06C600.16,713.167 600.917,716.603 601.75,719.37Z" style="fill:rgb(35,32,33);fill-rule:nonzero;"/>
        <g transform="matrix(-0.449319,-0.893371,0.893371,-0.449319,427.95,723.87)">
            <ellipse cx="0" cy="0" rx="3.83" ry="3.29" style="fill:rgb(35,32,33);"/>
        </g>
        <path d="M344.06,757.29C341.67,756.45 340.7,754.41 342.84,752.29C345,750.15 351.14,750.32 353.8,751.21C396.34,765.523 439.147,776.053 482.22,782.8C485.067,783.247 487.547,783.81 489.66,784.49C489.67,784.493 489.68,784.497 489.69,784.5C491.371,785.059 492.293,786.907 491.732,788.594C491.728,788.606 491.724,788.618 491.72,788.63L491.3,789.86C490.621,791.823 488.611,793.027 486.56,792.7C437.64,784.85 390.09,773.56 344.06,757.29Z" style="fill:rgb(35,32,33);fill-rule:nonzero;"/>
        <g transform="matrix(0.380543,0,0,0.380543,111.278961,254.443007)">
            <g transform="matrix(368.881398,0,0,368.881398,2451.648625,565)">
            </g>
            <text x="238px" y="565px" style="font-family:'CourierNewPS-BoldMT', 'Courier New', monospace;font-weight:700;font-size:368.881px;">12-10-2025</text>
        </g>
    </g>
</svg>
